<svg version="1.1" id="Layer_1" xmlns="http://www.w3.org/2000/svg" x="0" y="0" viewBox="0 0 776 776" style="enable-background:new 0 0 776 776" xml:space="preserve"><style>.st0{fill:#04020a}.st1{fill:#070d1a}.st2{fill:#1c0b11}.st3{fill:#54949a}.st4{fill:#477287}.st5{fill:#eb8d2d}.st7{fill:#a1f8fc}.st9{fill:#1e3b54}.st10{fill:#25353e}.st13{fill:#75afb6}.st14{fill:#377168}.st15{fill:#3bc8cd}.st16{fill:#693816}.st17{fill:#86bfd3}.st18{fill:#ae7b3c}.st20{fill:#42251c}.st22{fill:#1c5b62}.st24{fill:#e6fcfd}.st25{fill:#fdfdfd}.st26{fill:#805432}.st28{fill:#cb7225}.st29{fill:#fbba4f}.st30{fill:#c86010}.st34{fill:#f6d528}.st35{fill:#0d3c3e}.st46{fill:#6bb090}</style><path class="st0" d="m766.4 381 .1.9c.6 15.9-.5 32.1-2.3 48-2 18-5.1 36.3-9.6 53.9-3.1 12-7.1 23.7-11.4 35.4-10.5 28.6-24.2 56.6-41.1 82l-12.6 17.4c-7.7 10.3-15.4 20.3-24.2 29.8-38.1 41.3-84.8 72.9-137.1 93.4-9.2 3.6-18.5 7.2-28 10.1-14.3 4.3-29.1 7.4-43.7 10.1-17.4 3.2-35.4 5.7-53.1 6.4-26.8 1-53.8-.3-80.3-4.9-70-12.1-137.2-45.5-189.3-93.7-60-55.5-103-128.6-117.8-209.4-3.7-20.5-5.2-41.2-6-62-.4-32.2 2.6-64.5 9.9-95.9 15.1-65.4 48.5-127.2 94.2-176.3 30.4-32.6 66.5-60 106.7-79.4C269.7 23.3 324 11.1 378.2 9.3c97.9-3.2 197.1 33.1 268.6 100.4 20.2 19 38 40.8 53.8 63.6 21.1 30.5 38.2 64 49.1 99.5 10.7 35.1 15.6 71.7 16.7 108.2z"/><path class="st1" d="M229.4 74.8c1.6-.4 4.3-.6 5.9-.6 1.8 0 2.4-.1 3.6 1.2l-6.3.7c-1.1-.7-2-1-3.2-1.3z"/><path class="st2" d="M86.5 503.1c-1.4-.4-2-.7-2.9-1.8l-.4.8c-2.6-2.7-7.8-6.8-9-10.3l2.5.6c2.7 3.8 6.7 7.2 9.8 10.7z"/><path class="st3" d="M381.7 166.4c-2.3 2-5.8 4.1-7.5 6.7l-4.4 2.5-5.9 2.8 17.5-14.8c-.1 1.1-.2 1.8.3 2.8z"/><path class="st4" d="m375.6 574.4 14.7 15.1c2.5 2.5 5.6 5 7.5 7.9-2.8-1.2-5.1-3.4-7.4-5.3l-12.7-12c-2.5-2.5-5.7-5.2-7.5-8.2l5.4 2.5z"/><path class="st2" d="m225.2 641.2-1.2.5 12.7 15.5c-3.5-1.3-5.9-3.8-8.7-6.2l-11.2-9.6c-1-.8-2.5-1.4-3.3-2.2l11.7 2z"/><path class="st3" d="m325.2 166.2-1 3.5c-5 4.3-8.3 10.2-13.1 14.6l-.4.2c-1.8 1.2-4.7 5-6.9 4.4l-.4-.2 11.6-13.3c2.2-2.5 4.4-5.2 6.9-7.4 1.7-.1 2.1-.7 3.3-1.8z"/><path class="st5" d="M718.8 554.4c-.8 2.7-2.4 5.1-3.7 7.6-6.5 12.7-13.6 25.1-22.4 36.3l-19.4 26.3c-.5-3.1 4.5-8.4 6.2-10.9l8.4-12.1 1.7-1.9 5.2-9.6-.5-.3c.2-.8.1-.6.5-1.2l7.3-12 .2-.1c1.8-2.8 3.3-5.8 5.3-8.4 1.7-2.3 4.1-4.2 5.6-6.6.5-.7.5-1.4.6-2.2.4-1.2 3.9-3.9 5-4.9z"/><linearGradient id="SVGID_1_" gradientUnits="userSpaceOnUse" x1="774.097" y1="432.733" x2="754.999" y2="432.069" gradientTransform="rotate(90 311.503 465.687) scale(.7585)"><stop offset="0" style="stop-color:#3a2017"/><stop offset="1" style="stop-color:#653228"/></linearGradient><path d="M535.1 727.4c-14.9 6.8-31 8.7-47.1 10.6-17.5 2-35.2 3.7-52.9 3.6l-22.5-1.1c-6.7-.4-13.4-.8-20.1-1.8-9.7-1.4-19.4-3.6-28.9-5.7l2.5-.3c-.7-.4-.4-.2-1.1-.7l-.5-.4c17.2 4.1 34.7 5.8 52.4 6.5 24.7 1.1 49.7.1 74.3-2.7 10.6-1.2 21.1-3.3 31.5-5.6 3.3-.7 6.9-2.2 10.2-2.6.7-.1 1.5.1 2.2.2z" style="fill:url(#SVGID_1_)"/><path class="st7" d="M481.7 135.3c-1.5.2-3.7.5-5.2.1-1.3-.4-3.4-2.2-4.7-3-5.5-3.5-11-7.1-17.5-8.7-5.8-1.6-11.1-.7-16.3 2.2l-47 33.3c-.5-.7-.9-1.3-1.2-2.1l46.8-37.8 11.4-.4c2.3-.2 5.2-.7 7.5-.3 1.9.3 4.4 2.1 6.1 3.1 6.8 4.2 13 9.6 19.9 13.4l.2.2z"/><linearGradient id="SVGID_00000109724203517809933650000007928119147071217538_" gradientUnits="userSpaceOnUse" x1="492.321" y1="933.237" x2="484.766" y2="905.781" gradientTransform="rotate(90 311.503 465.687) scale(.7585)"><stop offset="0" style="stop-color:#fb8d26"/><stop offset="1" style="stop-color:#c0712d"/></linearGradient><path style="fill:url(#SVGID_00000109724203517809933650000007928119147071217538_)" d="M57.4 476.9 78 501c2.1 2.3 4.3 4.3 6.6 6.4.8.7 2.7 2 3.2 2.8s-.9 4.8-1.1 5.9l-1.9 10.7c-2.5 18.1-1.1 35.4 2.7 53.2-1.8-1.2-3.8-9-4.4-11.3L80.8 554c-1-7-1.4-14.2-1.5-21.2 0-4.7.2-9.2.6-13.9.1-1.6 1-4.9.7-6.3-.1-.6-1.4-1.9-1.8-2.4l-7.9-10.4c-4.9-6.4-10.1-13-14-20 .1-1.1 0-1.3-.6-2.2-.3-.5-.5-.9-.8-1.4-.4-.7-.8-1.1-1-1.9.8 1.2 1.3 1.8 2.6 2.5l.3.1z"/><path class="st9" d="M553.5 527.1c-9.4 10.1-21.7 15.3-34.3 20.5-7.1 2.9-14.2 5.8-21.5 8.2-23.2 7.4-48.2 11.8-72.5 12.7-7 .3-15.6.8-22.4-.8 3-.8 6.1-.7 9.2-.8l10-.5 26.7-3c5.5-.7 11.1-1.3 16.5-2.5 23.3-5 45.2-12.8 66.7-22.8l12.1-6c2.9-1.6 5.7-3.8 8.8-4.9l.7-.1z"/><path class="st10" d="M150.6 507.7c-1.3-1.6-2.2-3.7-3.2-5.6l17.9 7.1 45.9 17.9 16.4 6.5c1.5.6 3.6 1.3 4.9 2.2 1.7 1.2 3.7 5.4 4.8 7.3-1.5-.2-2.9-.5-4.4-.9l-1-.2-.5-.1c-.7-.1-.4-.1-1.1-.1-1.4 0 .3.1-1.3-.3h-.6l-16.4-8.2-24.1-10.6c-10.6-4.7-21.5-9.6-32.6-12.9-1.5-1-3-1.9-4.7-2.1z"/><linearGradient id="SVGID_00000176762066699320759070000009386254544008911264_" gradientUnits="userSpaceOnUse" x1="10.48" y1="465.526" x2="-6.968" y2="470.152" gradientTransform="rotate(90 311.503 465.687) scale(.7585)"><stop offset="0" style="stop-color:#0b1420"/><stop offset="1" style="stop-color:#0b2b34"/></linearGradient><path style="fill:url(#SVGID_00000176762066699320759070000009386254544008911264_)" d="M475 136.2c-.8 1.5-.9 1.5-2.3 2.1-2.1.9-4.3 1.5-6.5 2.2l-16.5 6.1-21 9.1-21.9 8.1c-2.5.9-4.8 2.3-7.2 3.3l-9.7 3.5c-3.3 1.4-6.5 3.1-10 4.2-3.2 1-6.4 1.8-9.7 1l-.3-.1 4.4-2.5 17.8-7.5 41.6-18.1c8-3.4 16.2-7.1 24.6-9.2 5.4-1.4 11.1-1.7 16.7-2.2z"/><path class="st7" d="m322 168 34.9-38.5 64.9-4.1-5.1 3-19.2 2.8-27.6 5.1c-4.8 1-12 1.6-16.2 4.3-2.2 1.5-4.2 3.5-6.3 5.2-4.7 3.9-9.4 7.5-13.8 11.8-2.9 2.8-5.5 6-8.5 8.6-1.1 1.1-1.5 1.7-3.1 1.8z"/><linearGradient id="SVGID_00000052088458497796808880000000543898946535652775_" gradientUnits="userSpaceOnUse" x1="-151.637" y1="403.448" x2="-165.062" y2="400.141" gradientTransform="rotate(90 311.503 465.687) scale(.7585)"><stop offset="0" style="stop-color:#c87b30"/><stop offset="1" style="stop-color:#dd9e5a"/></linearGradient><path style="fill:url(#SVGID_00000052088458497796808880000000543898946535652775_)" d="M408.4 20.5h.5c6.7-.1 13.7.9 20.4 1.5 36.1 3.6 72 12.5 105.4 26.7l9.7 4.3c1.9.9 4 1.7 5.5 3.1L528.1 51c-3.3-2.7-9.7-4-13.8-5.4L486.1 36c-9.3-2.7-18.7-4.5-28.2-6.4-3.9-.8-8.9-2.3-12.8-2.2l-.1.1c-13.1-3.5-26.6-3.3-39.8-5.7-2.7-.2-10.2-.5-12.1-2.2l15.3.9z"/><path class="st5" d="M366.3 94.1c-1.2.8-2.6.5-4 .4l-9-.4-18.5.2c-1.3 0-3.4.2-4.3-.6-1.9-1.9-5.2-3.1-7.7-4.1-16.8-6.7-35.5-8.4-53.3-10.9L253.7 77l-33.6 1 12.5-2 6.3-.7c7.9.3 16-.5 23.8.4 9.3-.1 19 1 28.3 2.1 25.9 3.1 50.5 8.1 75.3 16.3z"/><path class="st13" d="M481.7 135.3c1.1.2 1.6.1 2.4.8h-.5c-2.3-.2-6.5-.7-8.6.1-5.6.5-11.2.8-16.7 2.1-8.5 2-16.7 5.8-24.6 9.2L392 165.6c-.6-.7-.4-.3-.5-1.2 7.1-4.6 14.7-8 22-12.1 7.4-4.2 14.6-9 21.6-13.8 6.6-4.5 13.7-9.3 19.4-14.9 6.4 1.7 11.9 5.2 17.5 8.7 1.3.8 3.3 2.6 4.7 3 1.3.5 3.5.2 5 0z"/><path class="st14" d="M454.5 123.6c-5.6 5.6-12.8 10.4-19.4 14.9-7 4.8-14.2 9.6-21.6 13.8-7.3 4.1-14.9 7.5-22 12.1.1 1-.1.6.5 1.2l-17.8 7.5c1.6-2.6 5.1-4.6 7.5-6.7-.5-1.1-.4-1.7-.2-2.8l8.3-6.5c.3.8.7 1.4 1.2 2.1l47.2-33.4c5.2-2.9 10.5-3.8 16.3-2.2z"/><path class="st15" d="m391 159.2-9.3 7.2c-.5-1.1-.4-1.7-.2-2.8l8.3-6.5c.3.8.7 1.4 1.2 2.1z"/><path class="st7" d="m221.3 330.5 11.1-8.6-27.6 48c-3.8 7-8.6 14.6-11.1 22.1 1.9 4.9 4.3 9.5 6.7 14.2l15 29.5-7.5-2.6c-2.1-5.3-5-10.2-7.6-15.3l-8.4-17.4c-1.4-3-2.9-6.1-3.9-9.3l33.3-60.6z"/><path class="st16" d="M506.6 51.5c1.2.1 2.4 0 3.5.4-1 .9-4.4.8-6 1.1l5.5.3-4.2.2c-.9 0-1.4 0-2.2.3 3 0 6.4-.3 9.4.4l.3.1-18.8.2c-4.3-.2-8.6.2-12.9.5-11.4.7-22.6 2.5-33.6 5.7-4.6 1.3-9.3 2.7-13.5 5.1l43.2 38.7 5.8-5.6c0 2.2-1.5 4-2 6.2s-.3 4.7-.7 7c-1.5.2-4-2.7-5.2-3.7l-14-13.5C448 83 433.6 72 418.7 62.4c21.5-7.3 45.2-10 67.8-10.7 5.3-.2 10.7-.7 16-.2h4.1z"/><path class="st3" d="M244.7 211.3c-2.1-.3-4.4-3.4-6-4.9-7.6-7.6-14.5-16.1-21.1-24.6l-6-7.6c-.7-.9-1.4-2.2-2.4-2.7-5.5 10.5-10 21.7-14.6 32.6l-2.8 6.9c-.4 1.1-1.2 2.5-1.3 3.6-.2 1.5.8 4.2 1.2 5.7l3.6 12.3 12.5 45.2c-1.1 1.8-2.7 5.3-4.5 6.3-1.2-6.6-20.7-69.1-20.6-69.7.6-2.7 2.9-6.2 4.1-8.7l14.4-27.7c2.1-4.1 4.6-8.2 6.2-12.6l.2-.5 37.1 46.4z"/><path class="st17" d="M619.5 471.9c-.3.8-.2.4-.3 1-.1.7-.2 1.5-.5 2.1-1.2 2.4-3.7 4.8-5.3 6.9L590 508.7c-2.2 2.3-4.4 5.1-7 7.1l-.4.3-16.8 17.2-11.2 10.6c-1.2 1.2-2.9 2.6-3.9 4-1.8-1.7-4.3-4.3-6.6-5.1l-.8-1c.3-1 1.1-1.2 2-1.8 13.9-8.7 24.3-22.4 35.6-34l31.7-39.5c2.5 1.3 5 3.4 6.9 5.4z"/><path class="st18" d="m246.5 673.9 26.3 20.9c13.7 9.7 28.2 18.2 43.6 25.1 37.5 16.8 78.5 24.1 119.4 25.4 21.5.7 42.5 0 63.8-3.7-1.8 1.1-4.5 1.4-6.6 2l-21.8 5.6-.7-.5 1.4-.2c-3.9-.3-7.3.5-11.2 1.1l-18 2.3-3.5-.2c1-.1 2.1-.3 3.1-.3.7 0 .3 0 .9-.2 3-.9 7-.1 9.9-1.4l.2-.6c-1-.6-4.1-1.2-5.3-.7l-1.2.7c-1 .5-2.3.7-3.4.9l-1.1.2c-1.1.3-2.3.2-3.5.3-3.5.2-7.4-.2-11-.2-17-.1-33.3-.9-49.9-4.7-20.9-4.9-41.3-13.8-60.5-23.5-24.9-12.6-49.4-27-70-46.1l-1.3-1.3.4-.9z"/><path class="st3" d="M214 519.3c2.2 2.7 5.1 6.7 6.4 9.9l-57-23.7c-2.1-.8-16.8-5.7-17.4-6.5-.3-.4-.6-1.5-.8-1.9-.8-2.1-.7-4.1-.4-6.3 1-8.6 3.7-17.1 5.6-25.6L159 427l1.7 3.4-8.3 60.4c2.8 2.9 7.7 4.7 11.3 6.4l27.9 12.3c7.5 3.1 14.8 6.9 22.4 9.8zM327.7 602.3l11.7 4-9.5 2c-1.5.3-3.7.5-5.1 1.1l-8.9 1.6-95.3 18.6-5.3-9.5 37.1-45.6.9.4c.1 1.9-.9 3.9-1.6 5.7-4.9 12.2-14.7 21.4-22.2 31.9-2.3 3.2-4.2 6.6-5.8 10.2l51.2-7.8c4.7-.7 8.2-2.2 12.1-4.8 6.6-.8 13.2-2.1 19.8-3.3 6.8-1.2 14.2-2.3 20.9-4.5zM244.9 570l.6.9-13.6 16.1v.1l-20.9 26-60.4-105.6c1.7.2 3.2 1.2 4.7 2 1.6 3.5 4.3 6.4 6.6 9.5 4.9 6.6 10 12.9 14.5 19.8l31.4 53.3c1.3 2 2.7 3.6 4.3 5.3 6.7-7.3 14.5-13.6 22.1-20 2.6-2.2 6.8-6.3 9.9-7.3l.8-.1z"/><path class="st16" d="M366.3 94.1c3 .8 8.4 2 10.9 3.9l.2.2c-31.7.5-63.7 6.6-93.6 16.9-2.5.8-6.9-.5-9.5-.9s-5.2-.6-7.8-.7l-17.9-.4c-3.8.1-7.9.6-11.7.2 25.2-7.1 51.3-13 77.2-16.7l20.8-2.1 18.5-.2 9 .4c1.3-.1 2.7.2 3.9-.6z"/><linearGradient id="SVGID_00000137095806826956629230000009531594863051062162_" gradientUnits="userSpaceOnUse" x1="44.339" y1="726.7" x2="-30.97" y2="594.229" gradientTransform="rotate(90 311.503 465.687) scale(.7585)"><stop offset="0" style="stop-color:#29878b"/><stop offset="1" style="stop-color:#48b6c5"/></linearGradient><path style="fill:url(#SVGID_00000137095806826956629230000009531594863051062162_)" d="m234.2 150.2 96.6-12.8-3.9 5.6c-2.4-.2-4.6-.2-6.9 0l-80.1 13.6c-.5.6-19.8 3.4-22.9 4.2l42.7 52.1c-1.2 1.1-2.5 2.5-4 3.3L206 153.9l21.4-3c1.9-.2 5.1-1.1 6.8-.7z"/><path class="st20" d="m444.7 27.7-.2.3c-15.6-1.7-32.3-.5-47.9 1.2-5.2.6-11.2 1-16 3 11.5 5.8 22.8 11.1 33.2 18.8 2.7 2 5.8 4.1 7.7 6.9l-6.2 2.4c-6.9-4.8-14.3-8.8-21.6-12.9-17.8-9.9-35.6-18.5-54.9-25 7.5-1.4 48.9-5.1 54-2.6 1.9 1.7 9.4 2 12.1 2.2 13.2 2.4 26.7 2.2 39.8 5.7z"/><linearGradient id="SVGID_00000062189766040255406770000005405722931510034331_" gradientUnits="userSpaceOnUse" x1="1.113" y1="568.985" x2="38.863" y2="555.875" gradientTransform="rotate(90 311.503 465.687) scale(.7585)"><stop offset="0" style="stop-color:#0d222c"/><stop offset="1" style="stop-color:#093a3f"/></linearGradient><path style="fill:url(#SVGID_00000062189766040255406770000005405722931510034331_)" d="M412.8 130.9c.8.3 2.3.2 2.6.6-1.8 3-4.9 5.2-7.6 7.4l-10.5 8.5-25.6 21.4c-5 4.2-9.7 8.7-15.2 12.2s-12.1 5.3-18.2 7.7L311 199l-15.2 6.1c-2.9 1.2-5.9 2.7-8.9 3.5l-.6.1c2-2.7 4.4-5.2 6.6-7.8.3-.4 1.7-2.1 2.1-2.2l8.5-9.9.4.2c2.2.7 5.1-3.2 6.9-4.4l.4-.2c3.5 0 6.9-2.8 9.6-4.7l.2.1v.5l-3.5 2.4 1 .2c.6.1 1.1.2 1.6.4l.6.2.8.2c1.2.6 0 .2 1.1.6.6.2 1 .4 1.5.6l1.7-.9.7.1c1-.6 2.1-1.2 3.2-1.6l7-3.3.7.3c1-.2 2.6-1.3 3.6-1.9l11.5-7.1 35.2-23.2c8.1-5.7 16.3-12 25.1-16.4z"/><path class="st3" d="m320.7 179.6.2.1v.5l-3.5 2.4 1 .2c.6.1 1.1.2 1.6.4l.6.2.8.2c1.2.6 0 .2 1.1.6.6.2 1 .4 1.5.6l1.7-.9.7.1c1-.6 2.1-1.2 3.2-1.6l7-3.3.7.3-42.5 19.4 8.5-9.9.4.2c2.2.7 5.1-3.2 6.9-4.4l.4-.2c3.6-.2 6.9-3 9.7-4.9z"/><path class="st13" d="m576.6 234 2.6 8.9 5.2 25.1c.9 4.4 3.2 11.3 2 15.7-7.4-8.5-15.1-16.8-23.4-24.6-4.3-4-8.9-8.4-13.9-11.4l20-51.6 1 .9c.1 1.4.3 2.7.6 4.1l2.7 21.8c.3 4.2 1.1 7.4 3.2 11.1z"/><path class="st10" d="m294.3 189.8.6.2c5.6-6.1 10.1-13.9 15-20.6 6.8-9.4 14.2-18 19.7-28.3.8-1.5 2.4-4 4.1-4.4 2.6-.6 6 .6 8.1 2.1l-28.2 34.1-18.5 21.9c-3.2 4-7.4 8.6-9.4 13.3-.9 2.1-9.9 5.7-12.3 6.9-3.3 1.7-6.7 3.4-9.3 6.1-9.9 10.1-19.1 21.6-27.8 32.7-10.6 13.5-21 27.6-30.2 42.1l-2.5-12c1.8-1 3.4-4.5 4.5-6.3l44.1-57.2-6.2-8.3c.7.1.3.1 1.1 0 2.1-.1 4.9 3.9 6.4 5.3 1.1.9 1.2 1.1 2.7 1 .5-1.1.3-1.2-.1-2.4 1.5-.8 2.7-2.2 4-3.3l11.2-6.1 11.2-5.6c1.8-.9 4.2-1.8 5.6-3.2 2.2-2 3.9-5.4 6.2-8z"/><path class="st20" d="m364.5 731.5.5.4c.7.6.4.4 1.1.7l-2.5.3c-15.7-3.2-30.5-9-45-15.8-25-11.8-47.4-26.4-67.6-45.3l-10.2-10.1c-1.3-1.4-3-2.8-4.2-4.4v-.1L224 641.8l1.2-.5c4.5 0 9.3-1.4 13.7-2.4.7-.1 3.5-1 4.1-.9.7.2 1.8 1.1 2.5 1.5l4.8 2.5 52 28.4h-.4c-3.5-.2-7.2-1.8-10.5-3-12-4.2-23.5-9.2-34.8-14.9-2.4-1.2-15.6-8.9-16.9-8.9 9.1 14.5 22.3 25.2 34.8 36.6h.1c4.4 4.6 10.1 8.2 15.1 12 13.6 10.2 28.1 20.2 43.3 27.6 10.1 4.9 20.8 8.7 31.5 11.7z"/><path class="st3" d="m145.4 356.3 3.7 12.8c.2.6.8 2.3.8 2.8-.1.5-.4 1-.6 1.4l-.3-.3c-.8-1.7-1.1-3.3-1.7-5.1-4.5-13.1-8.2-26.2-14.3-38.7-.5-1.1-1.5-3.8-2.4-4.5L96.5 387c9.1-.5 18.5-.9 27.6-.4 5.2.3 11.2 1.9 16.4 1.5-1 2.7-1.6 4.9-1.8 7.8l-.4.2c-2.1.7-5.3.5-7.5.6-11.6.7-22.7.9-34.2 0 .7 2.4 2.8 5.1 4 7.3l7.2 13.1 26 50.6c1.3 2.4 2.6 5.1 4.6 7l-2.1 6.5-49.7-88.6c3.6-9.4 9.9-18.4 14.9-27.1l14.8-26.9 13.4-24.6c1.6 1.7 2.5 5.5 3.5 7.7l7.6 20.9c0 1 .8 2.7 1.1 3.7l3.5 10zM484.1 658.9c-.7 1.7-1.9 5.4-3.3 6.6-.7.5-2 1-2.8 1.3-4.6 2-11.1 3.6-16.1 3.5-5.9-.1-12.3-1.9-18.1-3.1l-45.8-9.8-15.1-3.3c-2.5-.5-5.1-.8-7.6-1.6l52.1-12.2 14.3 5.1c8.4 3.2 16.7 6.8 25.3 9.5 2.9.9 5.7 1.7 8.7 2.3 2.8.4 5.6.7 8.4 1.7z"/><path class="st22" d="M475.6 664.8c-4 .9-8.4 1-12.5.6-11.9-1.1-23.9-4.3-35.7-6.4-10.1-1.8-21-2.6-30.8-5.6l3.7-.6 17.3-3.5c3-.6 6.2-1.5 9.3-1.7 5.2-.2 11.9 2.9 16.8 4.6l21.7 8c3.3 1.3 6.4 3.1 9.8 4.4l.4.2z"/><linearGradient id="SVGID_00000078755504606066122110000014648165540658079392_" gradientUnits="userSpaceOnUse" x1="-102.113" y1="245.147" x2="-37.69" y2="276.339" gradientTransform="rotate(90 311.503 465.687) scale(.7585)"><stop offset="0" style="stop-color:#de8f3b"/><stop offset="1" style="stop-color:#ffd74d"/></linearGradient><path style="fill:url(#SVGID_00000078755504606066122110000014648165540658079392_)" d="m551.6 57.7.9.3 1.8.5c5.5 1.8 11 5.1 16.2 7.9 22.5 12.3 43.2 27.4 62.4 44.2 7.4 6.5 14.8 13 21.6 20.2 3.9 4.1 9.2 9.2 11.7 14.2-5.5-5.8-11.7-11.1-17.9-16.1-7.7-6.2-15.4-12.2-23.9-17.2-29.4-17.4-65.9-26.8-100-27.7-12-.3-29.2 1.2-38.6 9.4l-.6.2.4-1.2c2.9-2.7 6.1-5 9.7-6.7 7.2-3.3 14.9-4.5 22.7-5.4 24.7-2.9 48.8 1.3 72.2 8.9l14.8 5.5c-1.2-1.4-3.1-2.5-4.6-3.7-10-7.9-21.4-14.6-33.3-19.2-13.7-5.4-26.9-10.3-41.5-13.1l-14.9-2.3-11.5-1.1c-1.3-.1-3.4 0-4.6-.7l-.5-.3 18.8-.2-.3-.1c-2.9-.7-6.4-.4-9.4-.4.8-.3 1.3-.3 2.2-.3l4.2-.2-5.5-.3c1.5-.3 4.9-.2 6-1.1-1.2-.4-2.3-.4-3.5-.4 1.9-1.2 4.7-.7 6.9-.3.8.1.4.2 1.1-.3-.6-.4-.5-.3-.9-.8l-.2-.3 14.5 1.2 21.8 5.1v.1l1.8 1.7z"/><path class="st0" d="m549.7 56.2 1.8 1.5-38.5-3.4-.3-.1c-2.9-.7-6.4-.4-9.4-.4.8-.3 1.3-.3 2.2-.3l4.2-.2-5.5-.3c1.5-.3 4.9-.2 6-1.1-1.2-.4-2.3-.4-3.5-.4 1.9-1.2 4.7-.7 6.9-.3.8.1.4.2 1.1-.3-.6-.4-.5-.3-.9-.8l-.2-.3 14.5 1.2 21.6 5.2z"/><path class="st14" d="m416.8 128.4-4 2.5c-8.8 4.4-16.9 10.7-25.1 16.3l-35.2 23.2-11.5 7.1c-1 .5-2.5 1.6-3.6 1.9l-.7-.3-7 3.3c-1.1.5-2.2 1-3.2 1.6l-.7-.1-1.7.9c-.5-.3-1-.5-1.5-.6-1.1-.3.1.1-1.1-.6l-.8-.2-.6-.2c-.6-.2-1.1-.3-1.6-.4l-1-.2 3.5-2.4v-.5l-.2-.1c-2.8 1.9-6.2 4.7-9.6 4.7 4.8-4.4 8.1-10.3 13.1-14.6l1-3.5c3-2.6 5.7-5.8 8.5-8.6 4.4-4.3 9.1-7.9 13.8-11.8 2.1-1.7 4.1-3.7 6.3-5.2 4.1-2.8 11.3-3.4 16.2-4.3l27.6-5.1 19.1-2.8z"/><path class="st22" d="M324.2 169.7c1.4-1.3 3.1-3.2 4.7-4 .5-.3 1.1-.4 1.6-.5.5 1.5-.2 4.4-1 5.8-1.9 3.5-6.1 5.7-8.9 8.5-2.8 1.9-6.2 4.7-9.6 4.7 4.9-4.2 8.2-10.2 13.2-14.5zM149.2 373.5c-3.4 4.4-5.4 10.1-8.7 14.7-5.2.5-11.2-1.2-16.4-1.5-9.1-.5-18.5-.1-27.6.4l34.1-62.3c.9.7 1.9 3.4 2.4 4.5 6.1 12.5 9.8 25.6 14.3 38.7.6 1.7.9 3.4 1.7 5.1l.2.4z"/><path class="st18" d="M334.8 94.4 314 96.5c-25.9 3.7-52.1 9.6-77.2 16.7-11.7 3.1-23.6 4.6-35.2 8.4-9.7 3.1-18.9 7.2-28.1 11.6-22.9 10.9-44.9 24.6-63.4 42-4 3.8-8.2 7.6-11.7 11.9 0-.7 0-1.1.3-1.7l7.2-12.1.6-.1c0 .9-.5 1.3-.9 2l-.3.6-.4.5c.7 1.2-.6 1.9-.8 3.3 1.2-.8 2.2-2.1 3.2-3.1l-.8-.6.5-1.4c2.8-.9 5.1-4.4 7.2-6.5l9.4-8.5c7.5-6.3 16.1-11.9 24.6-16.8 19.9-11.8 40-22 61.9-29.4l17.9-5.5c5.9-1.6 13.2-2.9 18.6-5.9 2.5-1.4 4.8-3.6 6.9-5.5 6.2-5.3 11.5-10.4 16-17.2l-.3-.6c17.8 2.5 36.5 4.2 53.3 10.9 2.5 1 5.8 2.2 7.7 4.1 1.2 1 3.4.7 4.6.8z"/><path class="st22" d="M160.6 430.2c2 2.7 3.5 5.9 5.2 8.7l14.6 23.6 33.5 56.8c-7.6-2.9-15-6.6-22.4-9.9l-27.9-12.3c-3.6-1.7-8.5-3.5-11.3-6.4l8.3-60.5zM138.7 395.9c2.9 5.9 6.6 11.5 10.2 17.1 1.2 1.9 3.9 5 4.5 7.1.1.4-.1 1.4-.1 1.9l-14.8 52.6c-1.9-1.9-3.3-4.6-4.6-7l-26-50.6-7.2-13.1c-1.3-2.2-3.4-4.9-4-7.3 11.5 1 22.7.7 34.2 0 2.2-.1 5.4.1 7.5-.6l.3-.1z"/><path class="st18" d="m444.7 27.7.1-.1c3.9-.2 9 1.4 12.8 2.2 9.5 1.9 18.9 3.7 28.2 6.4l28.2 9.6c4.1 1.4 10.5 2.7 13.8 5.4L513.3 50c-6.4-.6-13-.4-19.4-.4-19.1 0-37.6.5-56.4 4.4-5.3 1.1-11 2.2-16.1 4-1.8-2.8-5-4.9-7.7-6.9-10.4-7.7-21.7-13-33.2-18.8 4.8-2 10.8-2.4 16-3 15.6-1.7 32.3-2.8 47.9-1.2l.3-.4z"/><path class="st22" d="m253.4 574.9 25.7 8.1 30.8 12c5.9 2.4 12.1 4.4 17.8 7.2-6.6 2.1-14 3.3-20.9 4.6-6.5 1.2-13.2 2.6-19.8 3.3-3.9 2.6-7.4 4.1-12.1 4.8l-51.2 7.8c1.7-3.6 3.5-7 5.8-10.2 7.6-10.5 17.3-19.7 22.2-31.9.8-1.7 1.7-3.7 1.7-5.7z"/><path class="st0" d="M274.9 615c-1.3 0-2.8.2-4-.3-2.6-2.5-4.2-5.3-5.9-8.4-2.8-5-5.6-10.9-6.4-16.6-.1-.9 0-.8.5-1.4 1.4-.7 2.6-1.2 4.2-1.3 7.1-.5 17.9 3.5 23.2 8.2 2.9 2.6 3.6 5.4 3.7 9.2.1 2.4-1.7 4.1-3.3 5.8-3.8 2.6-7.3 4.1-12 4.8z"/><path class="st13" d="M287 606.2c-4.2 4.2-8.1 6.2-14 6.9-2.9-5.7-6.9-11.4-8.9-17.5-.5-1.4-.9-2.7-.5-4.1l.1-.2c.1.6.1 1.4.4 2l.3.5c1.4 2.5 2.8 4.1 4.9 6l.9 1.2c3.2 3.4 12.2 4.7 16.8 5.2z"/><path class="st7" d="m287.1 598.3 1 2.1c.6 1.6.4 2.9-.3 4.4l-.9 1.4c-4.6-.5-13.6-1.8-16.8-5.3l-.9-1.2c-2.1-1.9-3.5-3.5-4.9-6l-.3-.5c-.3-.6-.3-1.4-.4-2l.5-1c1-.8 1.9-1 3.1-1.2l3.7.9h.5c6 .8 12.3 3.6 15.7 8.4z"/><path class="st24" d="m287.1 598.3 1 2.1c.6 1.6.4 2.9-.3 4.4h-1.4c-1.7-1.9-2.6-4.8-3.6-7.1.9.3 1.9.7 2.7 1.1l.5.3 1.1-.8z"/><path class="st25" d="M267.4 588.9c.3 3.2.8 6 2.1 9 .3.7.1.9-.1 1.7-2.1-1.9-3.5-3.5-4.9-6l-.3-.5c-.3-.6-.3-1.4-.4-2l.5-1c1-.8 1.8-.9 3.1-1.2zM271.1 589.8h.5c5.8.8 12.1 3.7 15.6 8.5l-1.1.8-.5-.3c-.9-.5-1.8-.8-2.7-1.1-2.4-2.2-5.3-3.8-8.1-5.4-.6-.3-3.2-1.4-3.5-1.8-.2-.2-.2-.5-.2-.7z"/><path class="st3" d="M347.2 612.7c.7-.1 1.2-.1 1.9.1 17.1 4.7 34 11.5 50.7 17.4l9.7 3.4c.7.3 2.4.7 3 1.2.3.3.4.7.6 1l-4.5 1-31.5 7.6c-5.5 1.4-11.1 2.4-16.4 4.5l-79.7-18c1.3-.9 3.5-1.1 5-1.5l9.4-2.5 28.3-8 23.5-6.2z"/><path class="st22" d="m405.2 634.8-.1.1c-10.2.9-20 3-30 5-5.3 1.1-10.8 2.5-16.2 2.8-3.4.2-7.4-1-10.7-1.6l-30.8-6-17.6-2.9c-1.8-.3-4.1-.1-5.8-.8l1.7-.6 18.1-4.2 21.1-4.7c6.6-1.3 13-2.4 19.7-1.3 10.8 1.7 21.3 6.2 31.7 9.6 4.2 1.4 8.6 2.9 13 3.9 1.9.2 4 0 5.9.7z"/><path class="st3" d="m221.3 330.5-33.2 60.7c1 3.2 2.5 6.3 3.9 9.3l8.4 17.4c2.6 5 5.5 10 7.6 15.3-5.5-2.2-11.6-3-17.4-3.7-6-.7-11.8-1.4-17.9-1.6l-20.8-34.6 13.5-22.3 6.4-10.9c.9-1.5 1.9-3.5 3.1-4.7 1.4-1.4 4-2.4 5.8-3.3l14.6-6.8c9-4.4 17.2-10.2 26-14.8z"/><path class="st22" d="m228.4 541.4 16.5 28.7-.8.2c-3.2 1-7.3 5.1-9.9 7.3-7.5 6.3-15.4 12.7-22.1 20-1.6-1.7-3-3.3-4.3-5.3L176.4 539c-4.5-6.8-9.6-13.2-14.5-19.8-2.3-3.1-5-6-6.6-9.5 11.2 3.3 22 8.2 32.6 12.9l24.1 10.6 16.4 8.2z"/><path class="st10" d="M459.5 671.3c-2.9.9-5.8 1-8.7 1.2l-13 .8-61.2.9-42.2-3.2-27.2-2.8c-3.1-.4-6.1-2.7-8.7-4.4l-8.6-5.1-15.7-9c-5.6-3.2-11.2-6.4-17.1-9-1.9-.8-7.6-2.5-8.5-3.7l16.7-2.7c3.9-.6 7.9-1.2 11.8-.2l87.6 20.2 41.1 8.8c17.8 3.7 35.6 7.3 53.7 8.2z"/><path class="st22" d="m245.7 212.2 6.2 8.3-44.1 57.2-12.5-45.2-3.6-12.3c-.4-1.5-1.4-4.2-1.2-5.7.2-1.1.9-2.5 1.3-3.6l2.8-6.9c4.6-10.9 9-22.1 14.6-32.6.9.6 1.7 1.9 2.4 2.7l6 7.6c6.6 8.4 13.6 17 21.1 24.6 1.6 1.6 3.9 4.6 6 4.9l1 1z"/><path class="st18" d="m494.2 54.5.5.3c1.1.7 3.2.6 4.6.7l11.5 1.1 14.9 2.3c14.5 2.8 27.8 7.7 41.5 13.1 11.9 4.7 23.3 11.4 33.3 19.2 1.5 1.2 3.4 2.3 4.6 3.7l-14.8-5.5c-23.5-7.6-47.5-11.8-72.2-8.9-7.8.9-15.5 2.1-22.7 5.4-3.6 1.6-6.8 4-9.7 6.7l-.4 1.2.6-.2c2.3.4 4.7-2.6 7.2-2.7-1.1 1-2.5 1.6-3.8 2.4-2.4 1.6-4.2 3.5-6 5.7l-5.8 5.6-43.2-38.7c4.2-2.4 8.9-3.7 13.5-5.1 11-3.2 22.1-4.9 33.6-5.7 4.1-.4 8.5-.8 12.8-.6z"/><path class="st10" d="M684.8 416.1c-.4 4.1-1.7 8.3-2.6 12.4-5 22.8-12.1 45.3-22 66.5-9.3 19.6-19.7 39-32.5 56.5-6.5 8.8-13.8 16.5-21.2 24.5-26.3 28.4-55 53.6-90 70.8-9.4 4.6-19.4 7.9-29.2 11.5l.3-2.1c.3-2.3.3-4.6.2-7 0-.1-.1-.3 0-.4.8-.8 4.4-1.9 5.6-2.5l12.4-6.4 26.8-14.9 22.4-12c7.2-3.8 15.3-7.8 21.6-13.1 4.3-3.6 7.2-7.9 10.4-12.5 6.7-9.6 12.2-19.7 18.1-29.8l48.4-83.9c10.3-19.2 19.1-39.4 31.3-57.6z"/><path class="st26" d="m269.4 78.8.3.6c-4.6 6.8-9.8 11.9-16 17.2-2.1 1.8-4.4 4.1-6.9 5.5-5.4 3-12.7 4.2-18.6 5.9l-17.9 5.5c-21.9 7.4-42 17.6-61.9 29.4-8.4 5-17.1 10.5-24.6 16.8l-9.4 8.5c-2.1 2.1-4.4 5.6-7.2 6.5l-.5 1.4.8.6c-1 1-2 2.3-3.2 3.1.2-1.4 1.5-2.1.8-3.3l.4-.5.3-.6c.4-.8.8-1.1.9-2l-.6.1c1.7-3.7 4.4-7.3 6.8-10.6 11.7-16.6 25.9-32.1 40.9-45.9 10.2-9.4 21.5-18.1 33.1-25.8 5.6-3.7 11.7-7.8 18-10.2 3.2-1.2 6.6-1.7 9.9-2.2 1.8-.3 3.7-.8 5.5-.7l33.6-1 15.5 1.7z"/><path class="st22" d="m326.9 143-32.7 46.8c-2.2 2.6-4 5.9-6.5 8.2-1.4 1.5-3.8 2.3-5.6 3.2l-11.2 5.6-11.2 6.1-42.7-52.1c3.1-.8 22.4-3.6 22.9-4.2L320 143c2.3-.1 4.6-.1 6.9 0z"/><path class="st3" d="m326.9 143-32.7 46.8c-2.2 2.6-4 5.9-6.5 8.2.1-2.1 2.9-5 3.9-6.9l20.1-32.9 6.4-9.8c1-1.5 1.9-3.3 3.1-4.7l.4-.4-1.6-.3c2.3-.1 4.6-.1 6.9 0zM637.3 495.2l-14 24.9-25.6 44.1-12.1 19.8c-2.4 3.7-4.7 7.7-7.5 11-.2-.6-.6-1-.3-1.7-.5-2.7-1.6-4.5-2.5-7l-14.8-25c-2.9-4.6-5.9-9.6-9.7-13.4.9-1.4 2.7-2.8 3.9-4l11.2-10.6 16.8-17.2.4-.3c2.5-2 4.7-4.8 7-7.1l23.3-26.8c1.6-2.1 4.2-4.5 5.3-6.9.3-.6.4-1.4.5-2.1.1-.6 0-.2.3-1 4.3 3.5 8.5 8.2 11.8 12.6l.2.6 5.8 10.1z"/><path class="st0" d="M594.9 549.7c.1.5.1 1 .2 1.5-1.3 3.3-3.7 6.1-5.8 8.8-.9 1.2-2.1 2.9-3.4 3.7-1 .6-1.5.4-2.6.2-1.5-1.1-2.3-2.5-3.2-4-1.2-2.3-3.1-5.4-2.7-8.1.2-1.1 1.4-3 2.5-3.5 1-.5 2.6-.1 3.7-.1 3.8.1 7.8-.4 11.3 1.5z"/><path class="st14" d="M591.9 551.2c-.5 1.3-1.3 2.3-2.1 3.4-1.5 2-3.3 3.2-4.8 5-.5.6-.2.4-.9.6l-.2-.7 1-.6c-.3-.8-.2-.6-.7-1.2-1-1.2-2.2-2.4-3-3.9-.5-.9-.4-1.4-.2-2.4l1.1-.4c2-.5 8.1-.7 9.8.2z"/><path class="st15" d="M591.9 551.2c-.5 1.3-1.3 2.3-2.1 3.4l-7.4-3.3 9.5-.1z"/><path class="st7" d="m637.3 495.2-14 24.9-25.6 44.1-12.1 19.8c-2.4 3.7-4.7 7.7-7.5 11-.2-.6-.6-1-.3-1.7-.5-2.7-1.6-4.5-2.5-7 3.9-4.4 6.9-10 10.2-14.9l19.9-30.8 15-26.1 7.6-12.4c1.3-2.1 3-4.5 4-6.8 1-2.5-.3-5.7-1.2-8-3.4-5.2-7.6-9.7-11.7-14.4.1-.6 0-.2.3-1 4.3 3.5 8.5 8.2 11.8 12.6l.2.6 5.9 10.1z"/><linearGradient id="SVGID_00000048489946099377875650000006492053578364425867_" gradientUnits="userSpaceOnUse" x1="52.974" y1="742.761" x2="-15.988" y2="826.509" gradientTransform="rotate(90 311.503 465.687) scale(.7585)"><stop offset="0" style="stop-color:#64320b"/><stop offset="1" style="stop-color:#79553f"/></linearGradient><path style="fill:url(#SVGID_00000048489946099377875650000006492053578364425867_)" d="M190.7 128.5c17-7 34.7-11.6 53.1-13 12.3-.9 24.9-.2 37.2.8-3.2 1.7-6.9 2.8-10.3 4.3-10.4 4.9-19.9 10-29.3 16.6-1.8 1.3-4.4 3.7-6.5 4.4-3 1.1-7.4 1.3-10.6 1.7-10.9 3.9-21.8 5.3-33.1 7.1-2.1.3-5 1.3-7 1.1-3.4 1.9-5.7 7.8-7.7 11.2-3 5-24.2 43.6-25.9 44.4-1.5.7-4.6.7-6.4 1.1-3.7.8-7.4 1.9-11 3l-.6-1.2.5-.4c-1-.5-1.5-.3-2.5-.1l-1.6.2c-15.2 1.4-27.6 8.3-41.2 14.3 1.9-5.5 5.4-11.1 8.5-15.9 8.6-13.3 19.4-23.8 31.4-34.1 17.9-15.3 37.7-28.4 57-41.8 1.9-1.3 3.9-2.3 5.7-3.6l.3-.1z"/><path class="st28" d="M184.8 149.4c.3-1.3 1.5-2.1 2.4-3 12.8-12.7 32.3-22.5 50-26 7.6-1.5 15.1-1.8 22.9-1.8-9.2 5.2-18.4 9.7-27.4 15.5-2.6 1.7-6.2 3.7-8.1 6.2l-.4.5c-1.4 1.3-2.1 1.7-3.9 2l-35.5 6.6z"/><path class="st20" d="M224.2 143.3c-10.9 3.9-21.8 5.3-33.1 7.1-2.1.3-5 1.3-7 1.1-3.4 1.9-5.7 7.8-7.7 11.2-3 5-24.2 43.6-25.9 44.4-1.5.7-4.6.7-6.4 1.1-3.7.8-7.4 1.9-11 3l-.6-1.2.5-.4c1.2-.1 4.5-.5 5.4-1.2.3-.2.9-1.6 1.1-2l4-7.2 16.8-28.7 6.7-11.9c.3-.6 1.5-3.2 2-3.5 1.2-.7 3.3-1.2 4.6-1.7l9.1-3.3 2.2-.9 35.4-6.6c1.9-.3 2.5-.7 3.9-2-.2 1.1-.2 1.8 0 2.7zM119.7 218.4l30.2-10-62.8 116.5-22.7 41.6c-3 5.7-6.9 11.2-9.2 17.2-1.5 3.6-1.9 7.6-.9 11.4s3.1 7.3 4.9 10.8l9.5 17.9L90 463.5l8.1 15.2c.3.6 1.1 1.8.7 2.5-4.1 7.8-6 16.6-9.6 24.6-.4-.4-.6-.4-.7-.9.6-6-2.6-12.3-5-17.8l-6.9-14.6-27.4-51c-3.3-5.8-8.2-11.8-10.5-18-1-2.7-.8-6.5-.2-9.2 2.2-10 6.9-18.9 11.2-28 1.7-3.6 3.1-7.4 5.1-10.8 1.1 2.7 2.1 5.7 3.8 8.1 1.2 1.7 2.9 3.1 4.4 4.5-2.6-5.6-4.7-11.1-6-17.2l.1-.3c1.1-.4 1.3-1.1 1.9-2.1 4-6.1 7.1-12.8 10.6-19.1l7.8-13.8c1.2-2.2 2.9-4.5 3.7-6.9-.1-.6-.1-1 .2-1.6l4.9-10.3 13.2-30.5 10.7-25.3c2.3-5 4.9-9.7 7.8-14.4 1.5-2 2.8-4.3 3.7-6.6l-.5-.2-1.4-1.4z"/><path class="st29" d="m121.7 219.9 1.6-1.3.5.4-42.6 89.6c-.1-.6-.1-1 .2-1.6l4.9-10.3 13.2-30.5 10.7-25.3c2.3-5 4.9-9.7 7.8-14.4 1.5-1.9 2.8-4.3 3.7-6.6z"/><path class="st18" d="m751.1 447.1 3.8-8.1c-3.5 29.5-10.1 59.5-22.3 86.7l-7.1 15.6c-1 2.2-1.9 4.7-3.3 6.7-1 1.4-2.4 2.7-3.7 3.9l.1.1.6.4c-.4.8-.4 1-.4 2-1.1 1.1-4.6 3.7-5.1 4.9-.1.8-.1 1.5-.6 2.2-1.5 2.4-3.9 4.3-5.6 6.6-2 2.6-3.5 5.6-5.3 8.4l-.2.1c-5.8 4.8-11.1 7.7-18.5 9.5-3.7.9-10.7 2-14.3.7l6.6-2.3c-.9-.6-2-1.1-2.8-1.9l.4-.3c-2.4-1.7-12.6-41.5-14.5-47.4l.2-.6 9.1-5c25-12.6 47-32.8 64.2-54.6 7.1-8.7 13.4-17.5 18.7-27.6z"/><path class="st29" d="M707.3 547.8c-9.1 6.6-19.1 11.9-29.7 15.7l-.1-.5 28.4-16.1 1.4.9z"/><path class="st0" d="m718.5 552 .7.4c-.4.8-.4 1-.4 2-1.1 1.1-4.6 3.7-5.1 4.9-4.2 3.9-8.2 8.1-12.7 11.5-7.7 5.9-16.2 9.9-25.1 13.8-.9-.6-2-1.1-2.8-1.9l.4-.3c6.1-2.9 12.3-5.9 18.1-9.5 9.6-6 18.1-13.7 26.9-20.9z"/><path class="st30" d="M713.7 559.3c-.1.8-.1 1.5-.6 2.2-1.5 2.4-3.9 4.3-5.6 6.6-2 2.6-3.5 5.6-5.3 8.4l-.2.1c-5.8 4.8-11.1 7.7-18.5 9.5-3.7.9-10.7 2-14.3.7l6.6-2.3c8.9-3.8 17.4-7.8 25.1-13.8 4.5-3.3 8.6-7.5 12.8-11.4z"/><linearGradient id="SVGID_00000021088514911898955530000001558938153213742985_" gradientUnits="userSpaceOnUse" x1="456.196" y1="42.383" x2="445.697" y2="63.807" gradientTransform="rotate(90 311.503 465.687) scale(.7585)"><stop offset="0" style="stop-color:#f7b558"/><stop offset="1" style="stop-color:#f5d16a"/></linearGradient><path style="fill:url(#SVGID_00000021088514911898955530000001558938153213742985_)" d="m751.1 447.1 3.8-8.1c-3.5 29.5-10.1 59.5-22.3 86.7-3.7 1.1-7.2 6.2-10 9l-8.3 7.5-6.9 5.6-1.4-.9 9.6-8.2c.1-.5 3.7-3.7 4.4-4.5 3.5-3.7 6.8-7.2 9-11.9 4.4-9.3 6.8-19.7 9.6-29.5l7.2-27c.8-.5 3.3-8.3 3.7-9.6.3-1.2.8-2.4 1.1-3.6l.1-.5c.6-1.6.4-3.2.4-5z"/><linearGradient id="SVGID_00000021095058679855515580000017513516951463479202_" gradientUnits="userSpaceOnUse" x1="454.985" y1="79.069" x2="434.698" y2="93.773" gradientTransform="rotate(90 311.503 465.687) scale(.7585)"><stop offset="0" style="stop-color:#f99a33"/><stop offset="1" style="stop-color:#f4b040"/></linearGradient><path style="fill:url(#SVGID_00000021095058679855515580000017513516951463479202_)" d="M751.1 447.1c0 1.8.2 3.3-.4 5l-.1.5c-.2 1.2-.8 2.4-1.1 3.6-.4 1.4-2.9 9.1-3.7 9.6l-.2.3c-1.8 2-3.1 4.5-4.6 6.7-2.4 3.5-5.1 6.8-7.9 10-6.8 7.6-14.5 14.5-22.3 21.1-9.4 7.9-19.1 15.5-29.7 21.6-3.6 2.1-7.9 4.6-11.9 5.5l-1-.4.1-.5v-.5c25-12.6 47-32.8 64.2-54.6 7-9 13.3-17.8 18.6-27.9z"/><path class="st7" d="M277.8 222.3h-2.3c-1.5 0-3.5.1-4.5-1 2.6-2.1 6.1-3.5 9.2-4.9l22-9.3 65.6-25.3 32.5-11.7 72.3-28.4c2.3-.8 6.6-2.6 9-2.5 1.4.1 3.5 1 4.8 1.6l8.6 3.7 43.1 19.8 33.5 15.7c3.1 1.6 5.9 8 7.8 11l18 28.5 71.6 125 14.2 25.6c3.2 5.8 7.3 11.6 9.2 18 .9 3 1 6.2 0 9.3-.9 3-2.7 5.5-4.3 8.2l-7.2 12.2-13.7 24.7c0-.6-.1-1 .1-1.5l9.9-24.5-.1-.5c-1-3.3-.5-6.7-.7-10.1-.2-3.5-1.1-7.3-1.9-10.7-3.4-14.8-9.5-29-16.1-42.6-3.7-7.5-7.5-15-12.3-21.9-2.8-4-6.3-7.5-9.4-11.3 1.1-3.9.4-7.1-1.5-10.5-1.8-3.3-4.5-5.5-7.8-7.2-1.9-4-3.2-8.3-5.1-12.4-5.9-13.1-14.1-27.4-24.2-37.6-2.5-2.5-5-4.8-7.8-7s-7.1-4.2-9.1-7.1c-1.4-1.2-3-2.1-4.3-3.4-2.2-3.7-3-6.9-3.1-11.2l-2.7-21.8c-.3-1.4-.5-2.7-.6-4.1l-1-.9c.7-2.2 1.7-4.2 2.1-6.5l-.6-.9.4-1.6-.6-1.1c-1.4-2.5-8.1-4.4-10.8-5.6l-9-4.1-69.3-33.1-93.7 37.3c-9.4 2.1-18.9 6.9-28 10.3L296.8 215l-12.5 4.7c-2 .7-4.7 1.4-6.5 2.6z"/><linearGradient id="SVGID_00000065040567332935939130000004505141020511345057_" gradientUnits="userSpaceOnUse" x1="233.639" y1="240.881" x2="154.507" y2="162.099" gradientTransform="rotate(90 311.503 465.687) scale(.7585)"><stop offset="0" style="stop-color:#4a9692"/><stop offset="1" style="stop-color:#60a7b9"/></linearGradient><path style="fill:url(#SVGID_00000065040567332935939130000004505141020511345057_)" d="M571.1 187.1c2.2 2.4 3.9 5.5 5.6 8.2l10.2 16.1 50.4 86.4 12.7 21.7 16.5 30.9 10.3 18.3c2.2 3.8 4.5 7.6 6.1 11.6l3.4 8.9c.4 1.2 1.3 3.3 1.4 4.5 0 .2-.5 1.3-.6 1.5-1.2 2.8-3 5.3-4.4 8-2.1 4.2-3.8 8.8-5.7 13.1l-.1-.5c-1-3.3-.5-6.7-.7-10.1-.2-3.5-1.1-7.3-1.9-10.7-3.4-14.8-9.5-29-16.1-42.6-3.7-7.5-7.5-15-12.3-21.9-2.8-4-6.3-7.5-9.4-11.3 1.1-3.9.4-7.1-1.5-10.5-1.8-3.3-4.5-5.5-7.8-7.2-1.9-4-3.2-8.3-5.1-12.4-5.9-13.1-14.1-27.4-24.2-37.6-2.5-2.5-5-4.8-7.8-7s-7.1-4.2-9.1-7.1c-1.4-1.2-3-2.1-4.3-3.4-2.2-3.7-3-6.9-3.1-11.2l-2.7-21.8c-.3-1.4-.5-2.7-.6-4.1l-1-.9c.7-2.2 1.7-4.2 2.1-6.5l-.6-.9.3-1.5z"/><path class="st3" d="m570.8 201.1.1-4.2.3-.3c2.3 3.8 3.2 9.4 4.8 13.6.5 1.3 1 3 1.9 4 1.2 1.4 2.9 2.2 4.1 3.7l.5.6c-2-.4-4.3-1.1-6.2.1-1.4.9-2.2 2.8-2.9 4.2l-2.6-21.7z"/><path class="st0" d="M582.6 218.5c3.7 3 5.2 6.2 6.2 10.7-.8 2.8-1.7 5.7-4.4 7.3-1 .6-2.4.7-3.5.9-1.4-1.2-3-2.1-4.3-3.4-2.2-3.7-3-6.9-3.1-11.2.7-1.4 1.5-3.3 2.9-4.2 1.9-1.3 4.2-.5 6.2-.1z"/><path class="st14" d="M583.7 232.8c-.9.4-1.8.7-2.8.4-1.9-.6-3.1-2.2-3.9-4-.7-1.7-1.4-4.5-.8-6.3.4-1.1.8-1.3 1.7-1.9 0 1.3-.5 3.8-.1 5 .9 1.8 4.2 6.2 5.9 6.8z"/><path class="st13" d="m578 221 .9-.3c1.8.3 3 .8 4.3 2.2 1.5 1.6 2.7 3.9 2.5 6.1-.2 1.7-.7 2.7-2 3.8-1.7-.6-5.1-5-5.8-6.8-.4-1.2.1-3.6.1-5z"/><path class="st26" d="M553.2 719.9c-5.8 2.9-11.9 5.7-18.2 7.5-.7-.2-1.4-.3-2.1-.2-3.3.4-6.9 1.9-10.2 2.6-10.4 2.3-20.9 4.4-31.5 5.6-24.6 2.8-49.6 3.7-74.3 2.7-17.7-.8-35.2-2.4-52.4-6.5-10.8-3-21.4-6.8-31.5-11.7-15.3-7.5-29.8-17.4-43.3-27.6-5.1-3.8-10.7-7.4-15.1-12 5.3.2 10.7 2.6 15.8 3.9.9.2 1.5.5 2.4.9l-.6.3.2.5c3.8 1.9 8.8 2.4 13 3.2 23.6 4.6 47.7 6.5 71.7 5.1 1.2.3 3.4-.1 4.6-.1l11.5-.7c1.6-.1 3.4-.4 4.8.3 5.1 2.2 9.8 5.2 14.8 7.7l23 10.7c10.6 4.5 21.7 7.4 32.9 9.6 21.4 4.2 42.6 5.1 64.2 2.1 5.4-.7 10.6-2.2 15.9-3.3 1 0 2-.5 3-.8l1.4.2z"/><path class="st28" d="M374.7 727.4c-1.4.5-2.4.4-3.8-.3-2.9-1.5-5.2-6-6.7-8.8l1 .5.5-1.1c.4.2 1.1 1.3 1.4 1.7l3.9 5c1.2 1.3 2.3 2.1 3.7 3z"/><path class="st5" d="m363.9 700.8-.6 1.6-.3.9c-1.3 4.5.8 10.5 2.8 14.5l-.5 1.1-1-.5c-1.9-4.5-3.3-8.9-3.2-13.9 0-1.1-.1-2.4.4-3.4l.2-.5c.8-.1 1.4-.1 2.2.2z"/><path class="st0" d="M363.9 700.8c.7.3 2.1-.3 3-.3 2.3-.1 5-.3 7.3.2 4.2.9 10.2 2.2 13.5 5 1.2 1 1.6 2.2 1.6 3.7s-1.1 3-1.9 4.3c-2.5 4-5.5 8.5-8.8 11.8-1.3 1.3-2.2 1.9-4 1.9-1.4-.9-2.5-1.8-3.6-3l-3.9-5c-.3-.4-1-1.5-1.4-1.7-2-4-4.1-9.9-2.8-14.5l.3-.9.7-1.5z"/><path class="st16" d="M369 706.6c.9 3 .7 6.3 1.5 9.4.8 2.8 2.7 5.1 3.4 8-3-1.1-5.6-5.8-6.9-8.7-1.2-2.5-2.3-7.8-1.2-10.4.3-.6.5-1.1 1.1-1.3 1.1-.5 2.4-.2 3.6.1l-3.2.4c-.2 1-.1.9.3 1.7.5.2 1 .6 1.4.8z"/><path class="st18" d="m382.8 708.2 1.2.8c-.7 2.4-7.9 13.6-9.5 14.7l-.4.2c-.7-2.8-2.6-5.2-3.4-8-.8-3-.6-6.4-1.5-9.4-.5-.2-.9-.6-1.4-.9-.4-.8-.5-.7-.3-1.7l3.2-.4c.4.4 1.6.6 2.2.8l6.1 2.1 3.8 1.8z"/><path class="st29" d="M382.8 708.2c-.5.7-.8 1.1-1.6 1.5l-6.6-2.5c1.4-.4 2.8-.6 4.2-.8l4 1.8z"/><path class="st5" d="M370.5 703.6c.4.4 1.6.6 2.2.8l6.1 2.1c-1.4.2-2.9.4-4.2.8l-4.3-1.3c-.4.2-.9.4-1.3.6-.5-.2-.9-.6-1.4-.9-.4-.8-.5-.7-.3-1.7l3.2-.4z"/><path class="st3" d="m677.1 416.3-9.9 24.5c-.2.5-.1 1-.1 1.5-3.1 7.4-7.7 14.7-11.6 21.8l-12.6 22.3c-1.7 2.9-3.4 6.3-5.6 8.8l-5.8-10.1-.2-.6c0-1.4-.9-2.3-1.8-3.4-2.8-3.5-6.1-6.8-9.3-9.9-1.6-1.6-3.3-2.9-5.3-4-.6-.4-1.1-.8-1.5-1.3l.4-.6 1 .3-.1-.6-.1-.5c-.1-.6.1-.7.5-1.3 12.8-19.2 25.8-38 37.2-58.1l3.2-5.7c.2-.4.8-1.2.9-1.6 0-.4-1-2.5-1.2-2.9-4.9-11.7-11.9-23.1-18.3-34.1l-30.5-50.5c-6.3-9.3-13.2-17.8-20-26.7 1.2-4.3-1.2-11.3-2-15.7l-5.2-25.1-2.6-8.9c1.3 1.3 2.9 2.2 4.3 3.4 2 2.9 6.3 4.9 9.1 7.1 2.8 2.2 5.3 4.5 7.8 7 10.2 10.2 18.3 24.5 24.2 37.6 1.8 4.1 3.2 8.4 5.1 12.4 3.3 1.8 6 3.9 7.8 7.2 1.9 3.5 2.6 6.7 1.5 10.5 3.1 3.8 6.6 7.2 9.4 11.3 4.8 6.8 8.6 14.4 12.3 21.9 6.7 13.6 12.7 27.8 16.1 42.6.8 3.4 1.7 7.2 1.9 10.7.2 3.4-.3 6.8.7 10.1l.3.6z"/><path class="st0" d="M627.2 301.5c3.3 1.8 6 3.9 7.8 7.2 1.9 3.5 2.6 6.7 1.5 10.5-1.4 1.7-3 3-5.3 3.2-2.5.2-4.1-.8-5.8-2.5-3-2.9-4-6.6-5.3-10.4.6-2.9.9-5.5 3.5-7.4 1.2-.9 2.2-.7 3.6-.6z"/><path class="st4" d="m627 305-.8.7c-.1 1.8-.2 3.9.2 5.6.5 2 1.2 3.1 1.1 5.2-2.5-2.4-4.4-4.9-4.5-8.5 0-1.2.3-1.9 1-2.9 1.2-.6 1.4-.6 2.8-.3l.2.2z"/><path class="st13" d="M627 305c1.3.3 2.3.8 3.2 1.7 2.1 1.9 4.3 5.5 4.4 8.4 0 1.7-.9 2.7-2.1 3.9H629l-.4-.5c.7 0 1.1 0 1.8.2l.4.2c.8-.3 1.3-.5 2-1.1-2.1.4-3.5-.4-5.3-1.2.1-2.2-.6-3.2-1.1-5.2-.5-1.7-.3-3.9-.2-5.6l.8-.8z"/><path class="st18" d="M718 221.9c3.5 2.7 5.8 9.8 7.6 13.9 14.2 31.7 23.8 65.7 28.1 100.2.7 5.6 2 12.1 1.5 17.7-4.7-11.6-11.4-22-18.8-32.1-11.2-15.2-23.8-28.9-38.6-40.6-6.1-3.5-11.6-7.7-17.8-11-1.8-1-3.8-2.1-5.8-2.7l-.2-.4c-10.9-26.5-29.7-50.6-48-72.3-5.8-6.8-12.4-13.3-17.8-20.4 20.4 2.6 38.6 9.2 57.4 17.3 4.3 1.9 9.3 3.5 13.3 5.9 7.4 2.5 14.2 8 21.3 11.3l17.8 13.2z"/><path class="st5" d="M714.9 250.8c.3 2.9-.7 6.4-2.4 8.8-2.4 3.6-6.7 5.6-10.8 6.3-4 .7-6.6-.2-9.9-2.7-3.9-2.9-5.3-6.6-6-11.2.3-2.7.7-5.3 1.7-7.8 1-2.6 3.4-6.3 6.1-7.4l.5-.2c.8-.3 1.6-.6 2.5-.8 4-.8 9 .7 12.2 3 3.8 2.6 5.3 7.7 6.1 12z"/><path class="st0" d="M710.4 249c.1 2.1.1 3.9-.6 5.9-1 2.6-3 4.7-5.6 5.8-2.7 1.1-5.6.9-8.2-.3-3.6-1.6-5.4-3.7-6.8-7.2-.1-2.2-.1-3.9.8-6 1.1-2.7 3.4-4.9 6.2-5.9 2.7-1 6-.7 8.6.5 3.1 1.5 4.4 4.1 5.6 7.2z"/><path class="st5" d="M706.5 247.5c1.1 2.2 1.7 4.4.9 6.8-.5 1.7-2 3.5-3.6 4.2l-2.3.8c-.6-.3-1.1-.5-1.7-.9l.4-.9 1.6-.3v-.4c.8-.2 1.9-.3 2.6-.7 1.1-.6 1.7-1.6 2-2.8.4-1.7.5-4.1-.4-5.6l.5-.2z"/><path class="st28" d="M706 247.7c1 1.5.8 3.9.4 5.6-.3 1.2-.9 2.2-2 2.8-.8.4-1.8.5-2.6.7v.4l-1.6.3-.4.9c.6.4 1.1.6 1.7.9h-3c-2.5-.3-4.9-2-6.3-4-1.1-1.6-1.5-3.6-1.1-5.6.5-2.4 2.2-4.7 4.3-6 1.9-1.2 4.5-1.4 6.7-.8 2.5.8 3.3 2.2 4.4 4.4l-.5.4z"/><path class="st34" d="M706 247.7c1 1.5.8 3.9.4 5.6-.3 1.2-.9 2.2-2 2.8-.8.4-1.8.5-2.6.7l-2.7-.9c-1.4-.6-2.7-2-3.2-3.4-.4-1.3-.4-3.1.4-4.3.9-1.3 2.3-2.4 3.8-2.6 2.8-.2 3.8.5 5.9 2.1z"/><path class="st29" d="M718 221.9c3.5 2.7 5.8 9.8 7.6 13.9 14.2 31.7 23.8 65.7 28.1 100.2.7 5.6 2 12.1 1.5 17.7-4.7-11.6-11.4-22-18.8-32.1-11.2-15.2-23.8-28.9-38.6-40.6l.6-.4c.5.5.4.6 1.1.6.4.4.5.6 1.1.6l.4-1.1c-.6-.7-1-1.2-1.8-1.7-1.7-1.1-2.8-4.3-4.1-6.1 13.3 9.8 26.7 21.3 36.4 34.8 6.9 9.6 12.6 20.1 19.2 29.9l-.1-.4c-.9-3.3-1.2-6.8-1.8-10.2l-4.1-21.1c-4.4-19.6-10.7-38.5-19.5-56.6-4.2-8.6-8.9-17.1-14.8-24.6-7.5-9.3-18.1-18.6-28.5-24.6-1.1-.6-2.9-1.3-3.2-2.6 7.4 2.5 14.2 8 21.3 11.3l18 13.1z"/><path class="st35" d="M680.8 354.5c.2 1.4.4 2.7.1 4-2.8-4-4.8-9.1-7-13.5l-10.6-19.9-38-66.2-37.9-63.4-8.1-12.3c-1.6-2.4-3.3-5.5-5.8-6.9l-.5-.3-20.8-9.9-53.1-25c-10.1-5.1-19.3-11.7-28.9-17.6-6.8-4.1-12.2-8.6-20.4-9.3-4.3-.4-11.3-.4-15.2 1.6-2 1-3.8 2.6-5.5 4-.6.5-1.6 1.5-2.4 1.7-3.6.5-7.9.1-11.6.2l-36 1.1-16.5 1.5c-2.6.3-6 .2-8.3 1.5-3.4 1.9-6.1 6-9 8.6 0 0-.8.7-.8.6-.3 0-1.5-.8-1.9-1-2.3-1.3-5.2-3.1-7.8-3.2-4.1-.1-8.4.6-12.5 1l-21.7 2.1c-19.5 1.9-39.5 2.9-58.8 6.6l3.5-2.3c6.5-3.9 13.1-7.8 20-11 28.6-13.4 59.2-20.5 90.4-24.2 25.5-3 52.2-3 77.6 1.4 53.1 9.1 102.7 35.8 144.5 69.1 13.1 10.4 25 22.3 36 34.8 5.6 6.4 11.3 12.8 16.4 19.6 19 25.4 32.3 52.8 41.3 83.2 4.3 14.2 7.7 28.7 9.3 43.4z"/><path class="st20" d="m442.6 751.8 18-2.3c3.8-.5 7.2-1.4 11.2-1.1l-1.4.2.7.5c-2.2 1.2-5.7 1.4-8.2 1.9l-15.8 3.1c-21.3 4.1-42.4 5.8-64 5.8-11.6 0-23.1-.3-34.6-1.5-25.2-2.7-50.9-8.6-75.1-16.1-2.8-.9-4.5-2.7-6.8-4.4l-12.1-9.1c-18.4-14.7-36.3-31.2-51.1-49.5l-18.3-23.8-8.1-12c-5-7-10.4-13.7-14.9-21.1l-3.7-6.3c-.9-1.7-1.7-3.8-3.4-4.8 4.8 10.4 10.7 20.4 16.7 30.2 5.9 9.7 11.9 19.4 18.7 28.5 7.3 9.9 15.6 19.3 24.1 28.3 1 .3 3.3 3.1 4.2 4l14.5 14.2c-2.6 0-12.7-8.1-15.5-10l-35.1-25.9-19-15.6c-9-7.3-18.3-14.1-26.5-22.2l-26.8-28.7c-2.4-2.7-5.6-5.7-7.5-8.8-1.4-1-2.3-1.7-3.3-3.1-.7-.9-1.4-1.4-2-2.4l-.4-.6c-.7-1-.2-.2-.6-1.2-.6-1.6-1.9-5.1-3-6.3l-2.8-8c-2.9-10.1-3.8-21.1-4.2-31.6-.2-5.9-.5-12 .2-17.8 1.1-9 3.5-17.8 6-26.6 2.2-7.8 4.6-15.7 8.5-22.8l72.9 130.7c2.6 4.5 5 9.3 7.9 13.6.6.9 1.6 2.7 2.4 3.3.8.6 3.2 1.1 4.3 1.4 7.5 2.2 15.3 3.2 22.8 5.3 2.4 1.4 4.3 3.5 6.3 5.4l12.1 12.3 11.3 11c1.8 1.8 3.9 3.5 5.1 5.7l.3.2-.4.7 1.3 1.3c20.5 19.1 45.1 33.6 70 46.1 19.1 9.7 39.5 18.6 60.5 23.5 16.6 3.9 32.9 4.7 49.9 4.7 3.5 0 7.5.4 11 .2 1.2-.1 2.4 0 3.5-.3l1.1-.2c1.1-.2 2.4-.4 3.4-.9l1.2-.7c1.2-.4 4.3.1 5.3.7l-.2.6c-2.8 1.2-6.9.5-9.9 1.4-.6.2-.3.2-.9.2-1.1 0-2.1.2-3.1.3l3.3.4z"/><path class="st30" d="M94.7 519c.1-.5.4-1.1.5-1.6 1.9 2.3 3.4 5.2 5 7.7l10.6 16 19 27.9c4.1 6 8.3 11.7 11.8 18l-1.2.4c-1.7-3.4-3.5-7.3-6-10.2-2.2-2.4-4.7-4.6-6.6-7.2l-13.5-19.7c-7.2-10.3-14.2-19.8-19.6-31.3z"/><path class="st26" d="m246.5 673.9-.4.7 1.3 1.3c20.5 19.1 45.1 33.6 70 46.1 19.1 9.7 39.5 18.6 60.5 23.5 16.6 3.9 32.9 4.7 49.9 4.7 3.5 0 7.5.4 11 .2 1.2-.1 2.4 0 3.5-.3l1.1-.2c1.1-.2 2.4-.4 3.4-.9l1.2-.7c1.2-.4 4.3.1 5.3.7l-.2.6c-2.8 1.2-6.9.5-9.9 1.4-.6.2-.3.2-.9.2-1.1 0-2.1.2-3.1.3l3.5.2c-3.1.8-6.3.8-9.4 1-4.8.4-9.6.9-14.5.9-9.2 0-18.5-1-27.6-1.9l-37-4.3c-34.5-5.5-68.6-15.6-98.6-33.8-16.3-9.9-30.4-22.1-43.2-36-7.6-8.2-14.6-16.8-20.2-26.4-1.6-2.7-3.5-5.4-4.6-8.4 5.5 2 10.8 5.7 15.9 8.5l31.4 16.8c3.7 1.9 7.5 4.2 11.4 5.4l.2.4zM233 716.5c-2.6 0-12.7-8.1-15.5-10l-35.1-25.9-19-15.6c-9-7.3-18.3-14.1-26.5-22.2l-26.8-28.7c-2.4-2.7-5.6-5.7-7.5-8.8-3.8-13.6-5.9-27.6-8-41.5-1.1-7.8-2.6-15.6-2.7-23.5-.1-4.3.5-8.6 1.1-12.9.4-2.9.7-5.6 1.7-8.3 5.4 11.4 12.4 21 19.6 31.3l13.5 19.7c1.9 2.6 4.4 4.8 6.6 7.2 2.5 2.8 4.3 6.8 6 10.2l1.2-.4 13.4 24.4c4.8 10.4 10.7 20.4 16.7 30.2 5.9 9.7 11.9 19.4 18.7 28.5 7.3 9.9 15.6 19.3 24.1 28.3 1 .3 3.3 3.1 4.2 4l14.3 14z"/><path class="st0" d="M133.7 584.3c.1 2.4.3 4.8-.8 7.1-1.2 2.2-3.3 4.2-5.7 5-3 1-6 .8-8.8-.7-3.3-1.8-4.5-4.4-5.5-7.8-.2-2.7-.2-5.6.9-8.1 1-2.3 2.8-4.1 5.2-4.9 2.9-.9 6.8-.5 9.4 1 3.3 2 4.5 4.8 5.3 8.4z"/><path class="st5" d="M129.6 579.2c2.2 2.9 3.1 5.8 2.5 9.4-.3 1.7-1.3 3.4-2.8 4.3-1.7 1.1-4.4.7-6.3.3-1.8-.4-4.2-1.8-5-3.5-1-2.1-.9-6.6 0-8.8.4-1 1.2-1.9 1.8-2.7l.3-.4c1-.8 2.1-1.3 3.4-1.3 2.7-.1 4.1 1 6.1 2.7z"/><path class="st34" d="M128.6 579.8c1.5 2 1.8 3 1.7 5.5-.9.8-4 1.5-5.2 1.4-.5 0-.6-.1-1-.3-1.4-.5-1.8-.5-2.9-1.7-.3-1.5-.4-2.4 0-3.8l.8-1c.8-.8 1.6-1 2.7-1.4l.8.1c1.4.2 2 .4 3.1 1.2z"/><path d="M122.1 579.9c1.1.2 2 .3 3 .9.2 1.7 1 3.7.8 5.4l-1.8.2c-1.4-.5-1.8-.5-2.9-1.7-.3-1.5-.4-2.4 0-3.8l.9-1z" style="fill:#fff747"/><path class="st5" d="m214.3 698.3-.7.3-3.6-3.5-.8.1-.2.8.4.1c1.4.6 2.7 2.5 3.6 3.7-3.2-2-5.9-4.9-8.6-7.5-10.3-10.2-17.9-21.2-25.8-33.3-11.5-17.8-21.7-36.4-30.9-55.6-2.5-5.2-5.5-10.5-7.4-15.9l1.2-.4 13.4 24.4c4.8 10.4 10.7 20.4 16.7 30.2 5.9 9.7 11.9 19.4 18.7 28.5 7.3 9.8 15.5 19.2 24 28.1z"/><linearGradient id="SVGID_00000181791457650853477220000016397532741977141401_" gradientUnits="userSpaceOnUse" x1="167.798" y1="339.235" x2="95.331" y2="761.422" gradientTransform="rotate(90 311.503 465.687) scale(.7585)"><stop offset="0" style="stop-color:#367f8a"/><stop offset="1" style="stop-color:#7eb1b6"/></linearGradient><path style="fill:url(#SVGID_00000181791457650853477220000016397532741977141401_)" d="m550.6 176.4 9 4.1c2.7 1.2 9.4 3.1 10.8 5.6l-23 60.7-18.9-9.6-.4-.2-28-11.8c-38.6-14.1-80-20.2-120.7-11.9-10.2 2.1-20.3 4.3-30.2 7.3l-9.4 3c-1.3.4-3 1.4-4.3 1.4l-25.8 11.6c-7.1 3.7-14 7.6-20.3 12.5-11.7 9-21.6 20.5-30.4 32.4l-14.4 21.1c-2.2 3.5-4.5 8.2-7.3 11.1-1.4 1.5-3.4 2.7-5 3.9-1.5 1.1-2.9 2.5-4.5 3.3l-6.5 4.5c-1 .6-2.2 1.7-3.3 2-4.4 3.3-9.3 5.9-13.9 9-6.2 4.1-12.7 9.2-19.4 12.4-.3.5-1.5 1-2 1.3l-7.2 3.9 41-66.4c14.1-20.1 28.8-39.2 45.3-57.5.7-.7 4-4.9 4.5-5 .4-.1 1.9.2 2.5.2l6.5.3h16.2c8.2-.2 16.2-.6 24.3-1.7l21.7-3.8c.8-.1.5.1 1-.6l-19 2.5c-10.3 1-20.9 1-31.2.7-3.3-.1-7.3.2-10.5-.4 1.8-1.2 4.5-1.9 6.6-2.7l12.5-4.7 63.2-24.1c9-3.4 18.6-8.2 28-10.3l93.3-37.3 69.2 33.2z"/><path class="st7" d="m227.8 320.9-6.5 4.5c-1 .6-2.2 1.7-3.3 2-4.4 3.3-9.3 5.9-13.9 9-6.2 4.1-12.7 9.2-19.4 12.4l-.3-.4c3.7-3.5 8.8-6.3 13.1-9.2l17.2-11.8 11.6-8.6 1.5 2.1z"/><path class="st17" d="m335.6 225-25.8 11.6c-1.1-1.3-2.5-2-3.6-3.3v-.1c5.1-2.9 11.6-5.7 17.3-7.2 2.8-.7 5.6-1 8.3-1.6.7-.2 1.3-.2 2-.3v.6c.7.1 1.1.2 1.8.3z"/><path class="st7" d="M306.2 233.3c1 1.3 2.5 2 3.6 3.3-7.1 3.7-14 7.6-20.3 12.5-11.7 9-21.6 20.5-30.4 32.4l-14.4 21.1c-2.2 3.5-4.5 8.2-7.3 11.1-1.4 1.5-3.4 2.7-5 3.9-1.5 1.1-2.9 2.5-4.5 3.3l-1.5-2c2.4-2.3 4-5.3 5.8-8.1l8.6-12.9c12.8-18.7 26.6-37.6 44.6-51.7 6.4-4.9 13.6-9.1 20.8-12.9z"/><path class="st13" d="m550.6 176.4-.5.3c-2.2.4-4.1 1.9-6.2 2.2-1.9-.1-3.4.6-5.2 1.1-5.4-4-12.9-6.7-18.9-9.6-8.2-4.1-16.7-9.6-25.5-12.2-2.9-.9-6-1-9-.6-8.7 1.3-16.8 4.4-25 7.4l-20.4 8-13.3 6.3c-1.9.9-4.3 2.2-6.4 2.4 3.2-2.2 7.5-3.8 10.9-5.7 9.1-5.1 18.1-11.1 27.6-15.4 7.2-3.3 14.9-5.5 22.1-8.8-13 .8-22.7 6.1-33.6 12.7-4.1 2.5-8.5 5.5-13.1 7-1.3.4-2.3 1.2-3.7 1.6-1.1.3-2.1.9-3.2 1.2s-2.1.9-3.2 1.2l-3 1-3.5 1-2.1.6-2.8.8-5.6 1.6c-2.7 1-5.7 1.7-8.5 2.4l-.6.2c-1.3.4-1.7.4-2.8 1.4l-5.8-2.8c-.6-.4-.8-.6-1.2-1.1l93.3-37.3 69.2 33.1z"/><path class="st0" d="M538.8 180c1.8-.5 3.3-1.2 5.2-1.1l-54.5 22.5c-1.7.5-3.2 1.3-4.8 1.9-7.2 3.1-13.8 4.3-21.3 1.2-5.2-2.1-8.7-6.1-10.8-11.3-2.1-5.2-1.9-10.9.4-16 1.7-3.8 4.7-7.9 8.7-9.4 6-2.2 13.4-1.7 19.2 1.1 5 2.4 8.9 6.5 10.7 11.8 2 5.8.8 10.9-1.9 16.1l49.1-16.8z"/><path class="st3" d="M488.9 190c-1.3 4.3-2.9 7.3-7 9.5-4.4 2.3-10.1 3.6-15 2-4.4-1.4-8.2-4.7-10.2-8.9-2.2-4.5-2.7-9.3-.9-14.1 1.2-3.3 3.9-6.2 7.2-7.5 2.1-.9 4.6-1.3 6.9-1.2 3.7-.1 6.7.3 9.9 2.2-1.2.1-2.3 0-3.5-.1-2-.2-4.4-.1-6.4.4-3 1.1-5.3 2.4-6.9 5.4-.9 1.8-1 5.2-.4 7.1 1.2 3.9 4.1 7.4 7.8 9.3 4.4 2.2 9 1.5 13.5.1 1.5-.9 2.4-1.7 3.4-3.2l1.6-1z"/><path class="st15" d="M479.7 172c.9.3 2.1 1.1 2.9 1.7 3 2.1 5.7 5.7 6.3 9.3l.1.6c.4 2.3.2 4.2-.2 6.5l-1.5.8c-1 1.5-1.9 2.3-3.4 3.2-4.5 1.4-9.1 2.1-13.5-.1-3.7-1.8-6.6-5.4-7.8-9.3-.6-1.9-.5-5.3.4-7.1 1.6-2.9 3.8-4.3 6.9-5.4 2-.4 4.4-.6 6.4-.4 1.1.2 2.2.2 3.4.2z"/><path class="st7" d="M487.9 184.8c.7.9.4 2.1.3 3.1s-.5 1.9-.8 2.9c-1 1.5-1.9 2.3-3.4 3.2l-1.9-1.3-4-.7 3.4-1.9c2.2-1.4 2.6-3.1 3-5.5l.1.7c.1 1 .1 1.8.2 2.8l3.1-2.8v-.5z"/><path class="st24" d="M480 175.2c1.3.2 2.4.5 3.4 1.3 2.8 2.1 3.9 5.1 4.4 8.4l-.1.5-3.1 2.8c-.2-1-.2-1.8-.2-2.8l-.1-.7c-1.2-3.1-2.5-5.9-4.4-8.6l.1-.9z"/><path class="st7" d="M484.4 184.6c-.4 2.4-.9 4.1-3 5.5L478 192c-1.5-.4-2.9-1.1-4-2.2-1.8-1.7-3.2-4-3.2-6.6 0-2.2.7-4.5 2.4-6 2-1.8 4.2-2.3 6.8-2.1v.8c1.9 2.9 3.2 5.7 4.4 8.7z"/><path class="st13" d="m395 184.5 48.6 16.9-.6.3c-.3.2-.5.6-.8.7-.2.1-1.4-.1-1.7-.1l-6.1-.2-15.4.7c-15.2 1.3-31 4.5-45.8 8.2l-22.4 6.3c-3.3.8-6.6 1.1-9.9 1.7l-.6.1c-.7.1-1.2.3-1.8.6l-19 2.5c-10.3 1-20.9 1-31.2.7-3.3-.1-7.3.2-10.5-.4 1.8-1.2 4.5-1.9 6.6-2.7l12.5-4.7 63.2-24.1c9-3.4 18.6-8.2 28-10.3.4.5.6.7 1.2 1.1l5.7 2.7z"/><path class="st0" d="m395 184.5 48.6 16.9-.6.3-35.5-10.8c-5.7-2-14.3-4.4-18.2-9.3l5.7 2.9z"/><path class="st13" d="m550.6 176.4 9 4.1c2.7 1.2 9.4 3.1 10.8 5.6l-23 60.7-18.9-9.6c-1.7-2.8-7.1-4.6-10-6l-24.9-11.9c-3-1.4-6.3-2.5-9.2-4.4l-6.1-3c3.1-4.1 8.4-5.1 10.9-10l.2-.3 54.5-22.5c2.1-.4 4-1.8 6.2-2.2l.5-.5z"/><path class="st17" d="M550.1 176.7c.9.5 1.6.7 2 1.6-.8 1-2 1.4-3.1 1.9l-7.5 3.7-38.1 18.9c-4.9 2.5-10.4 4.8-14.9 8-1.6 1.1-2.8 2.4-4.1 3.9l-6.1-3c3.1-4.1 8.4-5.1 10.9-10l.2-.3 54.5-22.5c2.1-.4 4-1.8 6.2-2.2z"/><path class="st3" d="M578.2 595c-1.3 1.2-2.5 2.4-4 3.4-5.3 4.1-11.6 7.2-17.5 10.4l-25.6 14-28 14.9c-6.1 3.2-12.5 6.8-19 9.1-1.4.5-2.7.6-4.2.3-8.5-1.2-17.4-4.9-25.4-7.9L426 628.5l-61.5-22.9-77.9-32.6-16.8-6.5c-4-1.3-8.8-2.3-12.6-4.1-2.5-1.2-5.1-5.3-6.7-7.5l-77.6-126.5c1.4.2 7 .4 8 1.3l14.2 3.4 9.8 3 10.8 3.4c.6.2 2.4.6 2.9 1 .3.2.9 1.8 1.1 2.2l3.3 6.3c4.6 8.3 9.8 16.8 15.4 24.5 5.3 7.3 13.3 12.5 18 20.2 2.8 4.7 4.5 10 6.6 15 4.2 9.8 10.7 21.6 18.7 28.7 6 5.3 13.6 7.5 21.1 9.8l20.2 6.2 22.6 8.7c3.6 1.5 7.4 2.7 10.6 4.8 8.5 5.4 16 14.3 22.8 21.7.9.2 7.2 6.2 8.4 7.1 8.9 6.7 18.5 12.1 28 17.8l41.6 23.8 9.9 4.9c1.1.5 2.4 1.4 3.7 1.2l-72.9-46c-1.9-3-5-5.4-7.5-7.9l-14.7-15.1-5.5-2.4-4.8-3.8c16.3 2.7 32.1 5.1 48.7 5.4l12.9-.2 7.9-.6c1.9-.2 4-.8 5.7.1l.8-.8c9.3-1.1 18.7-2.2 27.9-4.1 25.4-5.1 50.3-13.9 73-26.4.9.2 1.3.4 2 .9 2.3.8 4.8 3.4 6.6 5.1 3.8 3.8 6.8 8.9 9.7 13.4l14.8 25c.9 2.5 2.1 4.3 2.5 7-.1.9.3 1.3.5 2z"/><path class="st24" d="m204.9 436.1-.8 1.3c-3.6-.6-7.1-1.8-10.7-2.8l1.7-1.5 9.8 3z"/><path class="st7" d="m195.1 433-1.7 1.5c-3.2-.9-10.5-2.3-12.5-4.9l14.2 3.4z"/><path class="st35" d="m489.8 598-.1 7.8-.1-.4c-.3-1.5-.4-2.9-.4-4.4-12.6-3.4-23.6-9.5-34.5-16.6l1.5-1.8c.8.1 2.1 1.1 2.8 1.5l9.6 5.3c6.9 3.5 14 6.1 21.2 8.6z"/><path class="st7" d="m456.3 582.5-1.5 1.8-1.1-.6-.8.3c-4.1-2.1-8.6-4.4-13.2-5.2-7.3-1.3-15.7-.1-23.2-.2-13.5-.2-27.6-1.5-40.8-4.2l-5.5-2.4-4.8-3.8c16.3 2.7 32.1 5.1 48.7 5.4l12.9-.2 7.9-.6c1.9-.2 4-.8 5.7.1l.8-.8c.9 1.9 5.9 4.6 7.8 5.8l7.1 4.6z"/><path class="st1" d="m456.3 582.5-1.5 1.8-1.1-.6-9.2-7.2c-1.2-1-3-2.3-3.9-3.6l.8-.8c.9 1.9 5.9 4.6 7.8 5.8l7.1 4.6z"/><linearGradient id="SVGID_00000010277891691686397790000000958437730813152688_" gradientUnits="userSpaceOnUse" x1="508.235" y1="347.404" x2="575.699" y2="353.518" gradientTransform="rotate(90 311.503 465.687) scale(.7585)"><stop offset="0" style="stop-color:#9ce4f7"/><stop offset="1" style="stop-color:#94feff"/></linearGradient><path style="fill:url(#SVGID_00000010277891691686397790000000958437730813152688_)" d="M578.2 595c-1.3 1.2-2.5 2.4-4 3.4l-2.9-7.6c-3.4-7.8-7.6-15.5-11.9-22.9-3.2-5.6-7-12.8-13.2-15.3-1.6-.6-3.3-.4-4.9-.1-5.9 1.1-11.9 4.1-17.5 6.2-7.7 2.8-15.7 5-23.6 7.2-12.5 3.5-24.6 6.4-37.5 8.1-3.2.4-8.7.4-11.5 1.9-.9.5-1.6 1.3-2.2 2.2-1.9-1.3-6.8-3.9-7.8-5.8 9.3-1.1 18.7-2.2 27.9-4.1 25.4-5.1 50.3-13.9 73-26.4.9.2 1.3.4 2 .9 2.3.8 4.8 3.4 6.6 5.1 3.8 3.8 6.8 8.9 9.7 13.4l14.8 25c.9 2.5 2.1 4.3 2.5 7-.1.7.3 1.1.5 1.8z"/><path class="st0" d="M575.3 586.3c.9 2.5 2.1 4.3 2.5 7-3.4-6.8-8.1-12.5-12.1-18.9-5.1-8.2-9.7-17-15.3-24.9-1.7-2.5-4.7-4.3-6.2-6.7 2.3.8 4.8 3.4 6.6 5.1 3.8 3.8 6.8 8.9 9.7 13.4l14.8 25zM489.8 598c2.1-7 5.9-11.8 12.4-15.2 6.1-3.3 12.4-4.1 19.1-2 5.2 1.6 9.6 4.8 12.1 9.7 2 4.1 2.3 8.7.8 13-2 5.9-6.8 10.7-12.4 13.3-6.4 2.9-14.1 3.1-20.7.7-4.1-1.5-8.3-4.4-10.3-8.4-.5-1-.8-2.2-1.1-3.3l.1-7.8z"/><path class="st3" d="M495.2 601.2c.1 1.8.7 3 1.5 4.6-.7.8-1.3 1.8-2.3 2.3-1.5-3.9-1.7-7.8-.6-11.9.8 1.6 1 3.3 1.4 5z"/><path class="st14" d="M525.9 610.3c-5.1 4.1-11.1 6.4-17.8 5.7-4.8-.5-9.6-2.2-12.7-6.1-.4-.5-.8-1.2-1.1-1.8 1-.6 1.6-1.5 2.3-2.3l.2.3c4 4.8 13.9 6 19.8 5.4 2.9-.3 5.9-1.5 8.8-1.3l.5.1z"/><path class="st15" d="m493.8 596.3.1-.2c.5-1.2.9-2.4 1.6-3.5 3-5 8.5-8.7 14.2-10 5.1-1.1 11.6.4 15.9 3.4 3.2 2.2 5.8 5.8 6.5 9.7s-1.2 8.1-3.3 11.2c-.8 1.3-1.8 2.4-2.8 3.5l-.4-.1c-2.9-.3-5.9 1-8.8 1.3-5.9.6-15.7-.6-19.8-5.4l-.2-.3c-.8-1.6-1.4-2.8-1.5-4.6-.5-1.8-.7-3.5-1.5-5z"/><path class="st13" d="M528.7 606.8c-.8 1.3-1.8 2.4-2.8 3.5l-.4-.1c-2.9-.3-5.9 1-8.8 1.3-5.9.6-15.7-.6-19.8-5.4l-.2-.3c-.8-1.6-1.4-2.8-1.5-4.6 4 2.3 6.7 5.3 11.4 6.5l.6.2c3.4.9 7.6.9 11 .4s6.6-1.2 9.7-2.8c.6-.3.3-.2.8-.2v1.5z"/><path class="st7" d="M527.3 591.5c.1 1.5 0 3.3-.7 4.6-1.1 2.1-3.6 3.6-5.8 4.2l-.5.1-1.8.5c-2.7.5-7.2.6-9.5-1.1-1.5-1.1-2-2.4-2.2-4.2l.4-2.4c.7-2.3 3-4.6 5-5.7 2.9-1.6 6.9-2.1 10.1-.9 2.5 1.1 3.8 2.5 5 4.9zM204.9 436.1l10.8 3.4c.6.2 2.4.6 2.9 1 .3.2.9 1.8 1.1 2.2l3.3 6.3c4.6 8.3 9.8 16.8 15.4 24.5 5.3 7.3 13.3 12.5 18 20.2 2.8 4.7 4.5 10 6.6 15 4.2 9.8 10.7 21.6 18.7 28.7 6 5.3 13.6 7.5 21.1 9.8l20.2 6.2 22.6 8.7c3.6 1.5 7.4 2.7 10.6 4.8 8.5 5.4 16 14.3 22.8 21.7-1.8 0-3.7-1.6-5.1-2.7l-9.8-7c-3.4-2.4-6.9-4.7-10.6-6.7-4.9-2.7-10-4.5-15.2-6.3-7-2.4-13.9-4.7-21.1-6.5-9.1-2.3-19.2-3.7-27.6-7.9-4.2-2.1-8.2-5.4-11.5-8.6-7.4-7-12.8-15.9-17.4-24.9l-3.2-6.4c-.4-.8-.9-2.3-1.5-3-.9-1-6.1-1.5-7.7-1.9-2.7-.8-5.5-1.8-8.1-2.9-4.5-2-8.9-5-12.4-8.5-5.4-5.7-8.6-12.7-11.8-19.7-4.4-9.8-8.2-19.9-10.1-30.5l.4-.7c-.7-1.8-1.9-4.2-2-6.1l.6-.3-.8-.4.8-1.5z"/><path class="st3" d="m255.2 505.2.3.7c-2.1.2-5.1-1.1-7-1.7-5.7-2-13.1-4.1-17.8-8l-2.3-2.3c-6.1-10.6-11.2-21.7-15.7-33-2.2-5.5-4-11.3-6.5-16.7-.7-1.8-1.9-4.2-2-6.1l.6-.3.3.4c1.2.1 3.7.1 4.7.8 1.3.9 2.6 3.3 3.5 4.7 3.2 4.9 5.8 10.1 8.6 15.2 3 5.5 6 10.9 9.4 16.1 2.7 4 5.6 7.7 9.1 11 6.8 6.3 12.1 9.7 14.8 19.2z"/><path class="st0" d="m255.2 505.2.3.7c-2.1.2-5.1-1.1-7-1.7-5.7-2-13.1-4.1-17.8-8l-2.3-2.3c-6.1-10.6-11.2-21.7-15.7-33-2.2-5.5-4-11.3-6.5-16.7-.7-1.8-1.9-4.2-2-6.1l.6-.3.3.4c1.7 5 5.1 9.9 7.5 14.7l13.9 28.7c1.8 3.6 3.8 8.6 6.3 11.7 2.3 2.7 8.1 4.8 11.2 6.4 3.8 1.7 7.4 4.3 11.2 5.5z"/><path class="st10" d="M237.3 543c3.1 5.3 6.4 10.4 10 15.3 1.9 2.7 4.1 5.7 6.7 7.7 3.3 2.5 9.6 3.4 13.6 4.5 4.1 1.2 8.3 2.5 12.2 4l82.7 34 77.9 28.5c12 4.2 24.2 9.6 36.5 12.6 2.7.7 4.9.8 7.7.5l.7-.1c-.3 3-.4 6-1.3 8.9-2.7-1-5.6-1.2-8.4-1.8-3-.5-5.8-1.4-8.7-2.3-8.6-2.7-16.9-6.3-25.3-9.5l-14.3-5.1c-1.1-.7-1.6-1.1-3-.8l-27.3 6.1c-5.8 1.2-11.9 1.9-17.6 3.5-2.7.7-5.1 2-7.7 2.8-2 .7-6.7-.8-8.7-1.3l47.6-12.3c1.2-.2 2.4-.5 3.6-.8v-1l-1.2-.5c-.2-.3-.3-.8-.6-1-.6-.5-2.2-.9-3-1.2l-9.7-3.4c-16.7-6-33.5-12.8-50.7-17.4-.7-.2-1.2-.2-1.9-.1-2.9-1.3-9.7 1.1-12.9 1.8l-40.1 10.3c-6.8 2-13.5 4.5-20.4 6.1-11.5 2.6-23.5 3.8-35.1 5.3-4.8.7-10 2.1-14.9 2.1-3.2 0-6.3-1-9.4-1.8l-8.8-1.9c-3.4-.7-6.7-1.5-10-2.5-.8-.3-2.3-.7-2.9-1.3-1.1-1.1-2.1-3.5-2.9-4.9l-7.2-12.9-24.8-44.9-15.1-26.3-56.2-103.7L69 406.3c-2.1-4-4.6-8.1-6.3-12.3-.9-2.3-.9-3.1.1-5.4l124.5-231 17.3-3.3c1.4 1.8 4.7 5.2 4.4 7.5l-1.5 2c-2.8 3.2-4.7 7.7-6.7 11.4-7.2 12.8-14.3 25.9-20.1 39.4l24.3 82.5-12.4 19.9-22.5 38.4-12.8 21.5c-3.2 5.3-7.4 10.7-9.3 16.6l84.1 141.1c-1.8-.9-10.9-4.6-11.7-5.6-1.3-3.2-4.2-7.2-6.4-9.9l-33.5-56.8-14.6-23.6c-1.8-2.8-3.2-6-5.2-8.7l-1.7-3.4c-.2-1 0-1.3-1-1.9-2 1.9-2.7 8-3.4 10.8l-5 21.5-7.8 35.8c-.7-1.9-1.3-3.7-2.2-5.5-.5-1.1-2.4-3.8-2.3-4.9.1-2.3 1.7-5.5 2.4-7.7l5.1-15.3 5.4-20.4 3.6-16.5c-.3-.5-.1-.3-.6-.6 0-.5.2-1.5.1-1.9-.6-2.1-3.3-5.2-4.5-7.1-3.6-5.6-7.3-11.2-10.2-17.1.2-2.9.8-5.1 1.8-7.8 3.3-4.6 5.3-10.3 8.7-14.7.2-.5.6-.9.6-1.4.1-.5-.6-2.3-.8-2.8l-3.7-12.8-3.3-10.2c-.3-1-1.1-2.7-1.1-3.7l-7.6-20.9c-1-2.3-1.9-6-3.5-7.7l.8-.5c-.4-.8-.7-1.3-1.3-2l-.3.2c-1.1.7-2.2 3.2-2.9 4.4l-8 13.9-23 42.4c-3.3 6.3-7.6 13.2-9.6 20 2.1 5.6 5.5 10.8 8.1 16.1l26.7 50.3 41.6 74.8 12.8 21.8 30.1 53.1c4.6 8 9.1 16.9 14.6 24.4 2.4.3 5.6-.6 8-1l24.7-5.4 65-13.8c2.7-.4 6.1-.9 8.5-2.1v-.4l-.9-.5c1.4-.6 3.6-.8 5.1-1.1l9.5-2-11.7-4c-5.7-2.8-11.9-4.8-17.8-7.2l-30.8-12-25.7-8.1-.9-.4-.4-.5c-1.3.6-2.3 1.9-3.3 2.9l-7.1 7.8-18.5 21.6c-3.2 3.8-6.6 7.6-9.3 11.8l-2.1-3.7c6.4-6.8 12.4-14.1 17.4-21.9.9-1.4 2.8-3.8 2.8-5.4v-.1l13.6-16.1-.6-.9-16.5-28.7h.6c1.6.4-.1.3 1.3.3.7 0 .5 0 1.1.1l.5.1 1 .2c1.6.3 3 .6 4.5.8z"/><path class="st1" d="m130.5 313.4.2.1c.5.9 1 1.7 1.2 2.7l.1.6.4.6-.2.8.8-.2c.7.7 1.5 1.3 2 2.2l.2.6.6 1.2.9 2.2.3.6.6 1.2.4.6c-.1.7 0 1 .3 1.6.3.7.3.4.5 1.2.1.5.2 1.1.4 1.6l2 6.1.4.4.7 2.8.1.4.4.4c.1.6.2 1.1.4 1.6l1.4 4.2.2.8c.5.9.4.8.4 1.8l.4.4c0 .7 0 1.2.2 1.9l.2.5-.4.4-.7-.7-.1.7.4.4v.8l.4.4-.3 1.9L142 346c-.3-1-1.1-2.7-1.1-3.7l-7.6-20.9c-1-2.3-1.9-6-3.5-7.7l.7-.3z"/><path class="st0" d="M133.2 321.6c4.2 2.9 5.6 11 7.2 15.8.5 1.7 1.2 3.5.4 5.1l-7.6-20.9z"/><path class="st14" d="m182.5 243.1 10.7 31.2c1.7 5.3 3.8 10.8 4.7 16.3.6 3.7-.2 5-2.3 7.9-.7-1.3-.6-2.3-.8-3.6-.3-1.9-.8-3.8-1.3-5.6l-7.9-23.7-3.6-11.1c-.5-1.7-.7-3.3-1.5-4.9.2-2.4.8-4.5 2-6.5z"/><path class="st22" d="m195.6 298.5-32.5 52.2-4.4 8.3c-1 2-1.9 4.8-3.7 6.2-.3 1-.6 1.7-1.2 2.6-.9-.6-.7-3-.8-4.2-.6-4.1-2.6-8.1-4-12L138.5 325l-7.5-18.8 38.9-71.5c.8-1.3 6.1-10 6.8-10.2.4 1.1.2 1.1-.2 2.1 1.3 2.7 2.2 5.7 3.2 8.5l2.9 7.9c-1.2 1.9-1.8 4.1-1.9 6.4.7 1.6 1 3.2 1.5 4.9l3.6 11.1 7.9 23.7c.5 1.8 1.1 3.7 1.3 5.6.1 1.6-.1 2.6.6 3.8z"/><path class="st0" d="M179.6 235.2c-2.5 2.8-4.5 7.9-6.5 11.3l-15.7 29.3-9.9 17.7-6.8 13 1.7 6.9c.6 1.9-.6 4.8-1.5 6.5-.2.4-.5.8-.8 1.1l13.5 38.3c2.1-9 2.9-18.4 4.7-27.5L164 307c3.9-17.7 8.3-35.4 14.4-52.5l.6-.1c.2.7.4 1.2.3 1.9l-7.7 40.8L166 331c-1 6-3.7 13.8-2.8 19.7l-4.4 8.3c-1 2-1.9 4.8-3.7 6.2-.3 1-.6 1.7-1.2 2.6-.9-.6-.7-3-.8-4.2-.6-4.1-2.6-8.1-4-12L138.5 325l-7.5-18.8 38.9-71.5c.8-1.3 6.1-10 6.8-10.2.4 1.1.2 1.1-.2 2.1 1.3 2.8 2.1 5.8 3.1 8.6z"/><path class="st3" d="M179 254.5c.2.7.4 1.2.3 1.9l-7.7 40.8L166 331c-1 6-3.7 13.8-2.8 19.7l-4.4 8.3c-1 2-1.9 4.8-3.7 6.2L179 254.5zM179.6 235.2c-2.5 2.8-4.5 7.9-6.5 11.3l-15.7 29.3-9.9 17.7-6.8 13 1.7 6.9c.6 1.9-.6 4.8-1.5 6.5-.2.4-.5.8-.8 1.1-1.7-5-3.9-9.6-6.4-14.3l42.5-79.6.2-.4c1.4 2.7 2.2 5.7 3.2 8.5z"/><linearGradient id="SVGID_00000103977634227766292200000011357499956499003268_" gradientUnits="userSpaceOnUse" x1="308.803" y1="998.458" x2="289.937" y2="390.457" gradientTransform="rotate(90 311.503 465.687) scale(.7585)"><stop offset="0" style="stop-color:#321d20"/><stop offset="1" style="stop-color:#5f3017"/></linearGradient><path style="fill:url(#SVGID_00000103977634227766292200000011357499956499003268_)" d="m467.2 103.9 12 9.4c-2-.9-3.9-1.8-6.1-2.4l-.4-.1c-8.7-3.4-17.9-5.4-27.1-7.3-20.5-4.1-41.8-6.3-62.8-5.8-.9 0-1.7 0-2.6-.3-2.8-1.1-5.6-2.8-8.5-4.1-6.6-3-13.4-5.6-20.3-7.8-9.1-2.9-18.2-5-27.4-7.2-22.4-5.1-45.1-8.4-68.1-8.3-9.8.1-19.5.5-29.1 2.4-4.3.8-9.8 1.6-13.6 3.7l16.2-1.4c1.2.3 2.1.6 3.2 1.2l-12.5 2c-1.8-.1-3.7.4-5.5.7-3.3.5-6.8 1-9.9 2.2-6.3 2.4-12.4 6.5-18 10.2-11.6 7.7-22.9 16.3-33.1 25.8-15 13.8-29.2 29.2-40.9 45.9-2.4 3.4-5.1 6.9-6.8 10.6l-7.2 12.1c-.3.6-.3 1-.3 1.7-.5 1-1.1 2-1.7 3 10.7-9.4 21.2-19.3 32.6-27.9 13.3-10 27.5-17.8 42.1-25.5l11.2-5.4c2.6-1.2 5.3-2.5 8.2-2.8l-.3.2c-1.8 1.3-3.9 2.3-5.7 3.6-19.3 13.4-39.2 26.5-57 41.8-12 10.3-22.8 20.7-31.4 34.1-3.2 4.9-6.7 10.4-8.5 15.9 13.7-5.9 26.1-12.9 41.2-14.3l1.6-.2c1-.2 1.5-.4 2.5.1l-.5.4.6 1.2c-8.8 2.5-17.2 6.3-25.5 10.1-13 5.9-25.4 11.9-37.2 20.1-2 1.4-4.9 2.9-6.3 4.8l55.7-27.9 1.4 1.3.5.2c-.9 2.3-2.2 4.6-3.7 6.6-2.9 4.7-5.5 9.4-7.8 14.4l-10.7 25.3-13.2 30.5-5.1 10.3c-.3.6-.3.9-.2 1.6-.8 2.4-2.4 4.7-3.7 6.9l-7.8 13.8c-3.5 6.3-6.6 13-10.6 19.1-.6 1-.8 1.7-1.9 2.1l-.1.3c1.2 6.1 3.4 11.6 6 17.2-1.5-1.4-3.2-2.8-4.4-4.5-1.7-2.4-2.7-5.4-3.8-8.1-2 3.4-3.4 7.2-5.1 10.8-4.3 9.2-9 18.1-11.2 28-.6 2.7-.8 6.6.2 9.2 2.3 6.1 7.2 12.2 10.5 18l27.4 51 6.9 14.6c2.4 5.4 5.6 11.7 5 17.8l-2-1.7c-3.1-3.5-7.2-6.9-9.9-10.7l-2.5-.6c-3.2-3.3-6.5-6.5-9.5-10-.6-.7-1.7-1.7-2-2.5-2-2-4.2-4.6-6.8-5.9l-.6.2 2.1 3.2-.3-.2c-1.2-.7-1.8-1.3-2.6-2.5.2.9.6 1.2 1 1.9.3.5.5.9.8 1.4.6.9.6 1.2.6 2.2 3.9 7 9.1 13.6 14 20l7.9 10.4c.4.5 1.6 1.9 1.8 2.4.3 1.4-.5 4.7-.7 6.3-.4 4.6-.6 9.2-.6 13.9 0 7 .5 14.2 1.5 21.2l2.3 14.6c.6 2.3 2.6 10.1 4.4 11.3.8.8 1.2 1.8 1.7 2.7.6.9 1.2 1.7 1.5 2.8.2.7.3 1.2.5 1.9.7 1.5 1.1 2.9 2 4.4 1.1 1.2 2.4 4.7 3 6.3.4 1-.1.2.6 1.2l.4.6c.6 1 1.4 1.5 2 2.4 1 1.4 1.9 2.1 3.3 3.1 1.8 3.1 5 6.1 7.5 8.8l26.8 28.7c8.2 8.1 17.5 15 26.5 22.2l19 15.6 35.1 25.9c2.8 2 12.9 10.1 15.5 10l23.9 19.2c-7.4-2.4-14.6-5.8-21.7-9-32.9-15-63-34.9-90.1-58.9-14.8-13.1-29.1-27.3-41.7-42.5-15.5-18.7-28.4-38.6-39.9-59.9-13.9-25.6-25.6-53-32.8-81.3-6-23.5-9.3-47.7-10.8-71.8-1.9-32 .5-64.6 6.8-96 5.1-25 13.2-49.4 23.2-72.8 10.3-24.1 22.4-47.1 37.4-68.7 6.9-10 13.9-19.6 22-28.7 13.8-15.4 28-30.2 43.8-43.6 35.8-30.5 77.6-52.5 122.5-66.4 11.1-3.4 22.4-6.3 33.8-8.6 6.2-1.3 12.6-2.6 19-2.9 6.6-.3 36.1 10.2 41.1 14.7 4.7 1.2 9.8 4.5 14.2 6.7 29.9 15.4 59.1 35.1 83.6 58.1z"/><path class="st2" d="m46.3 460.5.7.1.9 1.3c.4.6.5 1.2 1.1 1.6l.6.3-.2.6 1.6.8c1.9 3.8 5.7 7 8.7 10 1.3 1.3 2.1 2.6 2.9 4.2-2-2-4.2-4.6-6.8-5.9l-.6.2c-3.2-3.9-6.7-8.5-8.9-13.2z"/><path class="st0" d="m57.2 350.5-.1.3c-.7.1-.7 0-1.2.6-.8-1.6-1-4.5-1.4-6.3-1.8-9-3.8-18.6-4.5-27.8-.2-2.7-.1-5.4.1-8.2l2.5 18.3c.4 3 .3 7.1 1.5 9.9l.7 1.2c.3 1.3.1 1.7.9 3l.2.4 1.3 8.6z"/><path class="st28" d="m57.4 476.9-.3-.2c-1.2-.7-1.8-1.3-2.6-2.5.2.9.6 1.2 1 1.9.3.5.5.9.8 1.4.6.9.6 1.2.6 2.2-3.4-4.4-6.1-9.6-9.1-14.3-1-1.7-1.9-3.7-3.4-5.1-.5-.5-1.4-.7-2-1 .1-.8-.6-2.4-.8-3.2l-3.4-11.2 7.8 14.8.4.6c2.2 4.7 5.6 9.3 8.9 13.2l2.1 3.4z"/><path class="st0" d="M57.1 350.8c1.2 6.1 3.4 11.6 6 17.2-1.5-1.4-3.2-2.8-4.4-4.5-1.7-2.4-2.7-5.4-3.8-8.1-5.4-17-6.7-36.3-7.4-54.1.4 1.4.7 2.6.7 4.1 0 .8 0 1.3.1 2.1l6.3 42.6c.2.9.5 2.5 1.3 3v-1.7c.5-.6.5-.5 1.2-.6z"/><path class="st18" d="M87.7 224.1c13.7-5.9 26.1-12.9 41.2-14.3l1.6-.2c1-.2 1.5-.4 2.5.1l-.5.4c-9.4 1.7-18.8 5.5-27.8 8.8-5.7 2.1-13 4.2-17.9 7.7.2-1 .4-1.7.9-2.5zM121.7 219.9c-.9 2.3-2.2 4.6-3.7 6.6h-.7c-.9 0-.6.1-1.2-.2-4.7 2.1-8.7 4.6-13.2 7.1-7 4-13.7 8.3-20.2 13-7.1 5.1-13.7 10.4-18.8 17.7-1.5 2.2-3.2 4.5-4.1 7.1-1.1 2.8-1.5 5.7-2 8.7-2.6 14.3-1.2 29.4-.5 43.8.4 8.1.6 16.6 1.8 24.7-.6 1-.8 1.7-1.9 2.1l-1.3-8.7c-1.4-8.8-2.8-17.7-3.4-26.6-.5-7.5-.4-15.1-.3-22.6.1-5.6.1-11.2.6-16.7.5-5.6 1.7-11.1 2.7-16.7 10.6-8.1 21.5-15.5 33.1-22.2l32.6-17.4.5.3z"/><path class="st26" d="M56.9 479.9c3.9 7 9.1 13.6 14 20l7.9 10.4c.4.5 1.6 1.9 1.8 2.4.3 1.4-.5 4.7-.7 6.3-.4 4.6-.6 9.2-.6 13.9 0 7 .5 14.2 1.5 21.2l2.3 14.6c-2.9-3.1-4.8-7.9-6.8-11.6-13.6-25-22.5-51.4-29.4-79-1.5-6.2-3.4-12.3-4.5-18.6.7.3 1.5.5 2 1 1.5 1.3 2.4 3.4 3.4 5.1 3 4.7 5.8 9.8 9.1 14.3zM54.8 355.3c-2 3.4-3.4 7.2-5.1 10.8-4.3 9.2-9 18.1-11.2 28-.6 2.7-.8 6.6.2 9.2 2.3 6.1 7.2 12.2 10.5 18l27.4 51 6.9 14.6c2.4 5.4 5.6 11.7 5 17.8l-2-1.7c-3.1-3.5-7.2-6.9-9.9-10.7-4.5-5.9-9.2-11.8-13.3-18.1-4.4-6.9-8.1-14.2-11.9-21.4-3.6-6.8-7.3-13.7-10.2-20.8-9-22.7-9.5-48.2-6.3-72.1l11-71.4.5.1c.1 1.4.3 11.9.9 12.6.8 17.8 2.1 37.1 7.5 54.1zM118 226.6c-2.9 4.7-5.5 9.4-7.8 14.4l-10.7 25.3-13.2 30.5-4.9 10.2c-.3.6-.3.9-.2 1.6-.8 2.4-2.4 4.7-3.7 6.9l-7.8 13.8c-3.5 6.3-6.6 13-10.6 19.1-1.2-8.1-1.4-16.5-1.8-24.7-.7-14.4-2.1-29.5.5-43.8.5-2.9.9-5.9 2-8.7 1-2.5 2.6-4.8 4.1-7.1 5-7.3 11.7-12.6 18.8-17.7 6.5-4.7 13.2-9 20.2-13 4.5-2.5 8.5-5 13.2-7.1.6.2.3.2 1.2.2l.7.1zM467.2 103.9c-3.6.3-9.5-3.1-13.1-4.5-7.7-3-15.9-5.2-24-7-18.9-4.1-38.3-4.8-57.2-8.6-13.9-2.8-27.3-7.8-41.2-11-28.2-6.4-57.8-9.6-86.7-10.5 7.6-3.9 15.2-7.5 23.3-10.3 16.4-5.6 33.6-9.2 50.4-13.2 8.5-2 17.4-4.8 26.2-5.5 2.6-.2 4.8 0 7.3.7l17.3 5.1c4.7 1.2 9.8 4.5 14.2 6.7 29.8 15.4 59 35.1 83.5 58.1z"/><path class="st0" d="M371.5 58.2c.1 1.3.2 2.6-.2 3.9-.6 2-2.5 3.7-4.3 4.5-3.2 1.6-8 1.4-11.3.1-4.1-1.5-6.2-4.3-7.8-8.1-.4-1.6-.9-3.7-.2-5.4.6-1.5 1.7-2.5 3.1-3.1 3.9-1.7 9.6-1.3 13.4.2 3.9 1.6 5.8 4.2 7.3 7.9z"/><path class="st26" d="M352.8 51.1c2.7-.6 6.2-.5 8.9.4 2.5.8 5.1 2.6 6.1 5.1.7 1.7.6 2.4 0 4.1-.8 1.2-1.5 2.2-2.7 3-2.2 1.6-4.6 2-7.3 1.6-2.6-.4-5.1-2.8-6.4-4.9-1.1-1.7-2.3-4.9-1.9-6.9.1-.7.8-1.2 1.3-1.8l2-.6z"/><path class="st5" d="M365.8 56.7c1.2 1.2 1.5 2.3 2 3.9-.8 1.2-1.5 2.2-2.7 3l-.6-.9c-.2-2.8-1.8-5.8-2.9-8.4l1 .4c1 .6 1.7 1.2 2.8 1.7l.4.3z"/><path class="st16" d="M743 346.1c4.6 9 10.5 17.5 13.3 27.3 1 3.5.8 7.9.9 11.5.2 9 1.2 20-1.5 28.6-5 15.9-11.5 31.6-19.7 46.1-3.2 5.7-6.7 11.7-11.2 16.5l-1.2 1.2c-.9-1.6-1-4.2-1.3-6l-2.1-11.3c-1.9-8.5-5.1-17.5-8.8-25.4-.5-1-.9-1.8-1.9-2.2l5 13.6 6.3 24 1 8.8c-14.6 15.9-30.4 30.5-47.4 43.8-4.8 3.7-9.8 8-15.1 10.9l-.2 1-.2.6c1.9 5.9 12.1 45.7 14.5 47.4l-.4.3c.8.8 1.8 1.3 2.8 1.9l-6.6 2.3c3.6 1.3 10.6.2 14.3-.7 7.3-1.8 12.7-4.7 18.5-9.5l-7.3 12c-.4.6-.3.4-.5 1.2l.5.3-5.2 9.6-1.7 1.9-8.4 12.1c-1.8 2.5-6.7 7.8-6.2 10.9l-.8 1.4-.5.1-7.3-28.5-5.5-23.1-3.6-14.7c-.9-3.3-1.7-6.8-3.4-9.8l-.5.1 17.8 79c-1.2 1.9-3 3.6-4.5 5.3-16.9 21.4-38.6 39.6-60.5 55.6-4.6 3.4-9.6 7.5-14.7 9.9-5.2 4.2-12.7 8.7-19.3 10.1l-.4 1c-1.6 1.6-3.6 2.4-5.6 3.4l-11.1 5.5-1.5-.4c-1 .3-1.9.8-3 .8-5.3 1.1-10.5 2.6-15.9 3.3-21.6 3-42.8 2.1-64.2-2.1-11.3-2.2-22.4-5.1-32.9-9.6l-23-10.7c-4.9-2.5-9.7-5.5-14.8-7.7-1.4-.6-3.3-.3-4.8-.3l-11.5.7c-1.2.1-3.4.4-4.6.1-24.1 1.5-48.1-.4-71.7-5.1-4.2-.8-9.1-1.3-13-3.2l-.2-.5.6-.3c-.8-.4-1.5-.7-2.4-.9-5.1-1.3-10.5-3.7-15.8-3.9h-.1c-12.5-11.4-25.7-22.2-34.8-36.6 1.4 0 14.5 7.7 16.9 8.9 11.3 5.7 22.8 10.7 34.8 14.9 3.3 1.2 7 2.8 10.5 3h.4c7.9 2.5 17.2 3 25.5 4 23.1 2.8 46 4.5 69.3 3.9l39.8-2.5 21.3-1.7c4.2-.4 8.5-.8 12.5-1.9 4.1-1.1 10.1-2.9 12.6-6.5.7-1.1 1.2-3 1.9-3.9.3-.4 3.1-1 3.8-1.2l12.4-4.2c41.2-16.2 76.1-44.4 106.1-76.5 7.7-8.3 15.4-16.6 22.1-25.8 11-15 20.1-30.9 28.4-47.5 4.3-8.7 8.4-17.2 12-26.2 5.9-15 10.9-30.5 14.5-46.2l2.9-14c.4-2.6.6-5.4 1.4-7.9.5-1.7 2-3.3 3-4.7 1.6-2.1 3-4.4 4-6.8 2.2-5.4 1.9-12.7-.4-18l-.2-.5c-1.9-4.5-5.2-8.3-7-12.7-.3-.7-.2-1.6-.3-2.4l-.9-7.1-3.2-19.6c-4.4-23.1-11.4-45.9-21.2-67.3-20.2-44.2-52.8-80.4-91.3-109.5-19.2-14.6-40.2-27.7-62-38-9.2-4.3-18.6-7.9-28-11.5.1-4.4 3.2-9.9 6.1-13.1 9-10.1 22-12.5 35-13.2 22.3-1.1 45.1 4.4 66.2 11.3 11.2 3.6 22.2 7.7 32.5 13.4 16.9 9.5 32.4 22.1 46.6 35.1.4.7 1.6 1.6 2.2 2.1l5.2 5.3c2.6 2.8 5 5.8 7.2 8.9 0 .3.3.5.5.7 10.6 14.6 20.9 29.1 30.1 44.7 1.2 2 4.1 5.9 4.1 8.2-5.5-6.4-11.1-12.8-17.6-18.3-26.6-22.5-63.1-33.5-97-38.5l-13.3-1.3-.7.3c1.8.8 4.1 1 6 1.3l9.9 1.9c13.1 3.2 26.5 6.9 39.1 11.7 11.7 4.4 23.1 10.2 33.8 16.6 6.1 3.6 12.1 7.4 17.4 12.1 2 1.8 4.2 3.5 5.6 5.8-7.1-3.4-13.9-8.8-21.3-11.3-4-2.4-9-4.1-13.3-5.9-18.7-8.1-37-14.7-57.4-17.3 5.4 7.1 12.1 13.6 17.8 20.4 18.4 21.7 37.1 45.8 48 72.3l.2.4-2.4-.1c-.4 1 8.8 7.6 10.1 8.6 13.1 9.8 24.5 21.4 35.4 33.6 7.4 8.4 14.4 16.8 20.4 26.3 1.9 2.4 4.8 6.3 5.3 9.8z"/><path class="st2" d="m675.8 584.6-6.6 2.3-1.5.4v-.9c1.4-2 3.1-2.6 5.3-3.6.8.7 1.9 1.2 2.8 1.8z"/><path class="st5" d="m681.7 293.4-1.3-3.5.3-.1c4.1 1.6 8.5 3.3 12.3 5.6 9.2 5.6 16.8 14.2 24.3 21.8-.8.4-1.3.8-2.2.9l-.3.3c-3.6-2.7-6.6-6.4-9.9-9.5-5.2-4.8-11.7-10-17.5-14-.7-.5-1.2-1.1-1.7-1.7l-.1-.8-3.9-1.7c-.2 1.1-.2.3.2 1.4l.2.9-.4.4z"/><path class="st0" d="m570.4 710-.4 1c-1.6 1.6-3.6 2.4-5.6 3.4l-11.1 5.5-1.5-.4 1.7-1.4-.5-.5c-2 .1-4.4.4-6.4-.2l-10 2.2c-35.9 5-70.2-.9-103.8-14.1l-20.9-9.1c3.6-.2 8.6 2.7 11.9 4l11.2 4.2 22.8 7.4c16.4 4.5 35.2 7.5 52.2 7.4 9.5-.1 18.8-1.4 28.1-2.8 10.8-1.8 21.6-3.8 32.3-6.6z"/><linearGradient id="SVGID_00000019639792304747854710000016023331344846434209_" gradientUnits="userSpaceOnUse" x1="734.679" y1="287.321" x2="744.116" y2="290.935" gradientTransform="rotate(90 311.503 465.687) scale(.7585)"><stop offset="0" style="stop-color:#935127"/><stop offset="1" style="stop-color:#af6730"/></linearGradient><path style="fill:url(#SVGID_00000019639792304747854710000016023331344846434209_)" d="M569.9 711c-1.6 1.6-3.6 2.4-5.6 3.4l-11.1 5.5-1.5-.4 1.7-1.4-.5-.5c-2 .1-4.4.4-6.4-.2l23.4-6.4z"/><path class="st0" d="m625.5 577.5 1.8-2c-.6 2.2-2.4 4.3-3.5 6.3l-12 18.7-21.2 32.1-33.2 43.2c-7.4 8.9-14.8 17.4-23.4 25.2-4.4 4-9 7.9-14.2 10.8-4 2.2-8.1 3.7-12.6 4.5.9-.6 1.6-1.1 2.6-1.5 3.5-1.2 6.8-3.8 9.6-6.2l-3.9-.2-.1-.5 4.7-.2c26.4-21 48.5-48.4 67.9-75.8 3.3-4.7 7.3-9.2 10.1-14.2 2.4-2.4 4.3-5.7 6.1-8.5.8-.2 6.4-9.3 7.1-10.4l14.2-21.3z"/><path class="st26" d="m701.9 576.7-7.3 12c-.4.6-.3.4-.5 1.2l.5.3-5.2 9.6-1.7 1.9-.4-.4c-4 5.2-7.5 9.7-13.4 12.8l-5.4-20.5c-.3-1.3-1.5-4.4-1.2-5.4.2-.6.1-.3.2-.8l1.5-.4c3.6 1.3 10.6.2 14.3-.7 7.5-2 12.9-4.8 18.6-9.6z"/><path class="st5" d="M546.6 717.3c1.9.6 4.3.3 6.4.2l.5.5-1.7 1.4c-1 .3-1.9.8-3 .8-5.3 1.1-10.5 2.6-15.9 3.3-21.6 3-42.8 2.1-64.2-2.1-11.3-2.2-22.4-5.1-32.9-9.6l-23-10.7c-4.9-2.5-9.7-5.5-14.8-7.7-1.4-.6-3.3-.3-4.8-.3l-11.5.7c-1.2.1-3.4.4-4.6.1-24.1 1.5-48.1-.4-71.7-5.1-4.2-.8-9.1-1.3-13-3.2l-.2-.5.6-.3c6.1 1.8 12.5 2.8 18.7 3.8 19.5 3.2 39.3 3.7 59.1 3.2 9.7-.3 20-1.7 29.6-.7 3.9.7 7.8 3.7 11.6 5l20.9 9.1c33.6 13.2 67.9 19.1 103.8 14.1l10.1-2z"/><path class="st18" d="M546.6 717.3c1.9.6 4.3.3 6.4.2l.5.5-1.7 1.4c-1 .3-1.9.8-3 .8v-.6c-1.7-.2-3.3-.5-5-.2l-4.1.4c-1.2.1-2 0-3.2-.3l10.1-2.2z"/><linearGradient id="SVGID_00000059278817751257385520000013521096940604333758_" gradientUnits="userSpaceOnUse" x1="665.012" y1="308.409" x2="634.049" y2="327.92" gradientTransform="rotate(90 311.503 465.687) scale(.7585)"><stop offset="0" style="stop-color:#cc802c"/><stop offset="1" style="stop-color:#ff9e45"/></linearGradient><path style="fill:url(#SVGID_00000059278817751257385520000013521096940604333758_)" d="m625.5 577.5-14.1 21.3c-.7 1.1-6.3 10.2-7.1 10.4-1.8 0-2 .3-3.3 1.6-1.7 1.7-4.1 4-5.3 6.1-4.3 5.3-8.9 10.5-14 15-4.6 4.1-9.8 7.6-14.8 11.1-4 2.9-8 5.9-12.3 8.4-11.8 6.8-24.2 12.2-36.5 18-.3.4-.5.7-.9.9l-.3.2 1.1.8-14.9 5.4c-3.4 1.6-7.3 2.8-10.8 4l-28.4 8.2-21.1 5.3c-3 .6-6.3 1.5-9.3 1.2l-.7-.5c4.6-.6 9.4-2.1 13.9-3.3 14-3.7 27.7-8.2 41.1-13.8l21.2-9c29.3-13.9 56.5-31.2 80.5-53.1l23.5-23.6 6.6-8c1.3-1.6 3.8-5.9 5.9-6.6z"/><path class="st29" d="m518.1 671.4-14.9 5.4c.5-1 2.4-1.6 3.4-2.1l11.6-5.3c-.3.4-.5.7-.9.9l-.3.2 1.1.9z"/><linearGradient id="SVGID_00000027573920688608970180000007765482927157395893_" gradientUnits="userSpaceOnUse" x1="423.815" y1="73.939" x2="421.028" y2="151.661" gradientTransform="rotate(90 311.503 465.687) scale(.7585)"><stop offset="0" style="stop-color:#ae6521"/><stop offset="1" style="stop-color:#bd7d3b"/></linearGradient><path style="fill:url(#SVGID_00000027573920688608970180000007765482927157395893_)" d="m720.8 469.9 1 8.8c-14.6 15.9-30.4 30.5-47.4 43.8-4.8 3.7-9.8 8-15.1 10.9-.7-1.9 1.4-4.5 2.3-6.3l11.1-21.2c10.1-21.3 18.1-43.8 22.7-66.9 1.5-7.4 2.3-14.9 3.3-22.4.1-.8.2-1.1.7-1.7l9.7 16.8.4.6 5 13.6 6.3 24z"/><path class="st5" d="M703 434.2c3.9 8.9-4.7 31.8-8.1 40.6l-11.5 26.4c-.4.7-.8 1.1-1.3 1.7-.7-2.4 6.6-16.9 7.8-20.1l6.3-19.8c2.9-9.6 5.8-18.8 6.8-28.8z"/><path class="st18" d="m714.5 445.9 6.3 24c-6.8 3.8-10.5 11.4-15.9 16.7-4.2 4.1-9.8 7.4-14.8 10.6-2 1.2-4.5 3.5-6.7 4l11.5-26.4c3.4-8.8 12-31.7 8.1-40.6l.4-9.3c-1-2.2-1.5-4.5-3.1-6.4l-1.6-1.8c.1-.8.2-1.1.7-1.7l9.7 16.8.4.6 5 13.5z"/><path class="st29" d="m709.5 432.3 5 13.6-.5 1c-1.2-.4-1.6-1.4-2.2-2.5l-5.4-11.2c-1.2-2.6-2.6-5.5-3-8.4-1-2.2-1.5-4.5-3.1-6.4l-1.6-1.8c.1-.8.2-1.1.7-1.7l9.7 16.8.4.6z"/><path class="st18" d="m651.5 550.1 17.8 79c-1.2 1.9-3 3.6-4.5 5.3-.8-6.2-1.9-12.4-3.3-18.5-.3-1.4-.5-3.6-1.5-4.6-3.5 3.9-8 6.9-12.5 9.6-14.9 9.3-31.4 15.6-48.9 17.7-1.4.5-3.2.7-4.6.6l54.9-91.8c.1-.5.5-1.3.8-1.8.8.7 1 2.7 1.5 3.8l.3.7z"/><path class="st29" d="m651.5 550.1 17.8 79c-1.2 1.9-3 3.6-4.5 5.3-.8-6.2-1.9-12.4-3.3-18.5-.3-1.4-.5-3.6-1.5-4.6-3.5 3.9-8 6.9-12.5 9.6-14.9 9.3-31.4 15.6-48.9 17.7l-.9-.4c3.7-1.5 7.7-2.4 11.5-3.5 5.3-1.6 10.6-3.5 15.7-5.7 8.1-3.5 16.1-7.3 23.8-11.7 3.5-2 6.7-4.5 10.3-6.3l.3-.2.7-.8c-3.8-15-8-30.2-10.2-45.5-.6-3.9-.3-7.9-.4-11.8 0-1.7.2-3.9-.6-5.4.1-.5.5-1.3.8-1.8.8.7 1 2.7 1.5 3.8l.4.8z"/><path class="st18" d="M604.2 609.3c-1.9 2.8-3.8 6.1-6.1 8.5-2.9 4.9-6.8 9.5-10.1 14.2-19.4 27.4-41.5 54.8-67.9 75.8l-4.7.2-9.5.9c-2.3.5-5.2.2-7.6.1-11.2-.3-22.3-2.3-33.2-4.4l-19.6-4c-5.3-1.3-10.6-3.4-15.9-4.1l.2-.5c1.1-.3 2.1-.7 3.2-.7l.7.5c3 .3 6.3-.6 9.3-1.2l21.1-5.3 28.4-8.2c3.6-1.2 7.5-2.4 10.8-4l14.9-5.4-1.1-.8.3-.2c.4-.3.6-.5.9-.9 12.2-5.8 24.7-11.2 36.5-18 4.3-2.5 8.3-5.5 12.3-8.4 5-3.6 10.2-7.1 14.8-11.1 5.1-4.5 9.6-9.8 14-15 1.1-2.1 3.5-4.4 5.3-6.1 1.1-1.6 1.2-1.9 3-1.9z"/><linearGradient id="SVGID_00000038379239348343533690000001698303401838198162_" gradientUnits="userSpaceOnUse" x1="650.735" y1="303.509" x2="687.587" y2="278.119" gradientTransform="rotate(90 311.503 465.687) scale(.7585)"><stop offset="0" style="stop-color:#ffbd46"/><stop offset="1" style="stop-color:#e0a356"/></linearGradient><path style="fill:url(#SVGID_00000038379239348343533690000001698303401838198162_)" d="M604.2 609.3c-1.9 2.8-3.8 6.1-6.1 8.5-2.9 4.9-6.8 9.5-10.1 14.2-19.4 27.4-41.5 54.8-67.9 75.8l-4.7.2-9.5.9-.8-.4c4.5-2.5 9.1-4.4 13.4-7.2 10.7-6.9 19.8-15.6 28.5-24.9 4.8-5.2 9.5-10.3 13.8-15.9l15.6-20.9-19.7 13.2c-12.1 7.3-25.4 13.7-38.6 18.7l-1.1-.8.3-.2c.4-.3.6-.5.9-.9 12.2-5.8 24.7-11.2 36.5-18 4.3-2.5 8.3-5.5 12.3-8.4 5-3.6 10.2-7.1 14.8-11.1 5.1-4.5 9.6-9.8 14-15 1.1-2.1 3.5-4.4 5.3-6.1 1.2-1.4 1.3-1.7 3.1-1.7z"/><path class="st18" d="M664.8 634.4c-16.9 21.4-38.6 39.6-60.5 55.6-4.6 3.4-9.6 7.5-14.7 9.9-2.7-.4-5.6.7-8.1 1.5l-9.6 2.9-13 3.4c-9.3 2.2-20 4.7-29.5 5.1 4.4-2.6 9-5.3 13.1-8.4 16.3-12.5 28.4-29 39.4-46.1 4.1-6.3 7.8-12.9 12.1-19 1.5.1 3.3 0 4.6-.6 17.5-2.1 34-8.4 48.9-17.7 4.4-2.8 9-5.7 12.5-9.6 1 1 1.2 3.2 1.5 4.6 1.4 6 2.5 12.1 3.3 18.4zM682.1 163.8c0 .3.3.5.5.7 10.6 14.6 20.9 29.1 30.1 44.7 1.2 2 4.1 5.9 4.1 8.2-5.5-6.4-11.1-12.8-17.6-18.3-26.6-22.5-63.1-33.5-97-38.5l-13.3-1.3-.6-.1c-.7-.1-2.3 0-2.8-.2-1-.4-2.8-2.9-3.7-3.8-3.2-3-7-5.5-10-8.6-22.6-15.4-44.9-31.6-70-42.9 7.6-1.1 15.2-2.2 22.9-2.6 47.3-2.1 95.5 12.1 132.6 41.8l16.8 14.7c1.9 1.7 4.3 4.8 6.4 6.1.2 0 1.3 0 1.6.1z"/><path class="st0" d="M603.9 128.9c.2 3 .2 5.4-1.5 8-1.3 2-4 4.2-6.4 4.6l-.5.1c-2.4.4-4.6.3-6.8-.7-3.3-1.6-4.7-4.4-5.8-7.7-.3-2.6-.5-5.5.6-7.9 1.1-2.5 3.1-4.1 5.7-4.9 2.8-1 6.3-.3 8.9.9 3.4 1.5 4.6 4.3 5.8 7.6z"/><path class="st30" d="M587.1 123.7c1.8-1.7 3.5-2 6-1.9 2.6.1 4.9.8 6.6 2.8 1.7 1.9 2.5 4.4 2.4 6.9l-.4.1c-.6.2-.8.6-1.2 1.1l-.5-.4-.2-3.4-.3-.5c-.6-1.1-.2-.3-.7-1.4-.4-1-1.4-1.6-2.3-2.1-3.1-.2-4.4.1-7 1.8l-.5-2.2c1.8-1 3.2-1.1 5.1-1.6h.2c-1.9-.1-3.8-.4-5.6.6-.5.2-1 .2-1.6.2z"/><path class="st28" d="M602.1 131.5c-.2 2.5-.9 4.4-2.8 6.1-1.9 1.7-4.6 2.1-7.1 1.8-2.2-.2-4.1-1.4-5.5-3.1-1.8-2.3-2.4-5-1.9-7.9.2-1.7.9-3.7 2.3-4.7.6 0 1.1 0 1.6-.3 1.8-1 3.6-.7 5.6-.6h-.2c-1.9.5-3.3.7-5.1 1.6l.5 2.2c2.6-1.7 3.9-2.1 7-1.8.9.6 1.9 1.1 2.3 2.1.5 1.2.1.3.7 1.4l.3.5.2 3.4.5.4c.4-.5.6-.8 1.2-1.1h.4z"/><path class="st34" d="M599.8 128.9c-.3 2-.1 3.5-1.4 5l-1.1 1.1-1.4-.4c-1.9-.2-4.5-1-5.9-2.5-.9-1.1-1.1-2.2-1-3.6.1-.7.2-1.3.4-2 2.6-1.7 3.9-2.1 7-1.8.9.6 1.9 1.1 2.3 2.1.5 1.2.1.3.7 1.4l.4.7z"/><path class="st25" d="M595.9 134.7c.6-2.1.3-3.2-.4-5.2.3-1.1.3-1.5 1.2-2.4l.8.6c1 2.2.9 4 .9 6.3l-1.1 1.1-1.4-.4z"/><path class="st29" d="M682.1 163.8c0 .3.3.5.5.7 10.6 14.6 20.9 29.1 30.1 44.7 1.2 2 4.1 5.9 4.1 8.2-5.5-6.4-11.1-12.8-17.6-18.3-26.6-22.5-63.1-33.5-97-38.5.4-.3.7-.8 1.1-1 .3-.1 1.7-.1 2-.1 2.3-.1 4.6-.1 6.9 0 29 1.7 56.7 13.6 81.4 28.3-3.5-4.8-6.8-9.5-10.6-14-17.9-21.1-41-39.7-66.4-50.8-6.3-2.8-12.8-4.7-19.3-6.9l-13.7-4.8c-7.1-2.1-14.8-3.6-22.1-4.7-15.1-2.2-29.6-1.1-44.8-.2l18.1 10.2c11.9 7.3 23.5 15.8 34.6 24.3 2.5 1.9 5.2 4.2 6.2 7.4-.8-.1-.4.1-1.1-.4-.8-.6-1.7-.8-2.6-1.1-22.6-15.4-44.9-31.6-70-42.9 7.6-1.1 15.2-2.2 22.9-2.6 47.3-2.1 95.5 12.1 132.6 41.8l16.8 14.7c1.9 1.7 4.3 4.8 6.4 6.1.1-.2 1.2-.2 1.5-.1z"/><path class="st18" d="M743 346.1c4.6 9 10.5 17.5 13.3 27.3 1 3.5.8 7.9.9 11.5.2 9 1.2 20-1.5 28.6-5 15.9-11.5 31.6-19.7 46.1-3.2 5.7-6.7 11.7-11.2 16.5 0-1 .2-1.9.4-2.9-1.6-18.2-7-34.5-14.6-50.9l-4.3-8.6c-1-1.8-2.6-4.1-3.1-6.1-.6-2.5-.1-5.8 0-8.4l-.1-13.6c-.3-11.4-1.5-22.7-3.4-34-2.3-13.4-6.4-26.8-11.1-39.5-2.2-6-5.6-12.4-7-18.7l.4-.2-.2-.9c-.4-1.1-.4-.3-.2-1.4l3.9 1.7.1.8c.6.6 1 1.2 1.7 1.7 5.9 4 12.4 9.1 17.5 14 3.3 3.1 6.3 6.8 9.9 9.5l.3-.3c.9-.2 1.4-.5 2.2-.9l25.8 28.7z"/><path class="st5" d="m740.7 370.8.1.4c.4 3-.9 6.3-2.6 8.7-2 2.6-4.9 5.1-8.3 5.4-4.2.5-8.3.1-11.7-2.7-4-3.3-4.9-6.9-5.3-11.8.5-2.7.8-5.7 2-8.2 1.5-3.2 4.1-5.2 7.4-6.3 3.3-1 6.9-.2 9.9 1.3 5.5 2.9 6.8 7.5 8.5 13.2z"/><path class="st0" d="M736.3 368.5c.2 2.7-.1 5-1.5 7.3-1.5 2.5-3.2 3.4-5.9 4.1-3 .8-6 .3-8.7-1.4-2.6-1.6-3.5-3.8-4.2-6.7-.1-2.3-.3-4.5.7-6.6 1.1-2.2 2.9-3.8 5.2-4.6 2.9-1.1 6.1-.9 8.8.5 3.1 1.8 4.4 4.1 5.6 7.4z"/><path class="st28" d="M733.8 366.8c.7 2 .5 3.8.2 5.9-.4 1.8-1.1 3.1-2.7 4.2-2 1.4-5.1 1.9-7.5 1.4-2.1-.4-4-1.5-5.2-3.3-1.3-1.9-1.9-4.9-1.4-7.2.5-2.2 2.2-4.3 4.2-5.4 2.2-1.2 5-1.2 7.3-.3 2.2.9 4.1 2.6 5.1 4.7z"/><path class="st34" d="M733.8 366.8c.7 2 .5 3.8.2 5.9-2.2 1.9-3.9 3.4-6.9 3.6-1.6-.5-2.9-1.1-3.7-2.6-1-1.8-1.2-3.6-.5-5.5.4-1.3 1.8-2.8 3.1-3.3l.7-.2.4-.1c2.7-.6 4.5 1 6.7 2.2z"/><path class="st29" d="M743 346.1c4.6 9 10.5 17.5 13.3 27.3 1 3.5.8 7.9.9 11.5.2 9 1.2 20-1.5 28.6-5 15.9-11.5 31.6-19.7 46.1-3.2 5.7-6.7 11.7-11.2 16.5 0-1 .2-1.9.4-2.9 3.7-6.3 7.6-12.7 10.8-19.3 4.8-9.9 8.5-20.4 11.6-31 4.4-15.1 6.9-30.7 4.1-46.3-.8-4.5-3-8.9-5-13-3.9-8.2-8.4-16.4-13.7-23.8-5.5-7.7-11.8-14.5-18.2-21.4l.3-.3c.9-.2 1.4-.5 2.2-.9l25.7 28.9z"/><linearGradient id="SVGID_00000140697518804794299330000013283711760400487553_" gradientUnits="userSpaceOnUse" x1="86.486" y1="409.049" x2="544.456" y2="520.057" gradientTransform="rotate(90 311.503 465.687) scale(.7585)"><stop offset="0" style="stop-color:#2f4d65"/><stop offset="1" style="stop-color:#466682"/></linearGradient><path style="fill:url(#SVGID_00000140697518804794299330000013283711760400487553_)" d="M280 264.1c1.4-2.2 4-4.3 5.9-6.1 8.2-7.4 17.5-13.3 27.2-18.3 18.6-9.7 38.7-15.8 59.1-20.4 10.7-2.4 21.8-4.4 32.7-5 25.6-1.5 53.2 2 77.7 9.8 13.7 4.3 26.7 10.3 39.8 16.1 8.2 3.6 17.7 7.4 25.2 12.3 4.4 3 8.8 7.5 12.8 11.1 29.7 27.3 50.3 61.4 69.8 96.3l20.6 37.3c0 1.4-1.2 2.9-1.9 4.1l-7.7 13c-10.5 16.8-21.1 33.9-32.9 49.8l-25.6 32.1c-4.4 5.5-8.7 11.3-13.7 16.3-1.9 1.9-3.5 3.9-6.1 4.8l-9.5 9.8-.5.2c-3.1 1.1-5.9 3.3-8.8 4.9l-12.1 6c-21.5 10-43.5 17.8-66.7 22.8-5.5 1.2-11 1.7-16.5 2.5l-26.7 3-10 .5c-3.1.1-6.2-.1-9.2.8-12.8-.6-26-2.2-38.5-5.1-13.6-3.1-26.8-8.7-40-13.2-10.8-3.6-22.5-6.4-32.8-11.2-3.4-1.6-6.3-3.6-8.9-6.4-6.5-7.1-11.8-17.4-15.7-26.2-2.1-4.7-4-9.8-6.7-14.2-2.8-4.5-6.8-8.2-10.5-12-3.4-3.5-6.5-7.1-9.3-11.1-3.5-4.9-6.5-10.2-9.5-15.3l-16.1-28.8c-5.7-10.7-11.7-21.5-16.6-32.6l21.9-40.2 21.4-35.3c9.9-16.1 19.6-31.6 32.5-45.6 1.5-1.8 3.8-5.1 5.9-6.5z"/><path class="st9" d="M582.8 496.1c-4.4 5.5-8.7 11.3-13.7 16.3-1.9 1.9-3.5 3.9-6.1 4.8l19-24.3.1.9c-.4.9-.2.6-.8 1.3l-.5.5v.6l-1.5 1.3c-.4.6-.8 1-1.2 1.6-.9 1.4.4 0-.8 1.3l-.5.5v.6l-1.2 1v.6h.8c1.4-2.6 4-5.1 6-7.4l.4.4z"/><path class="st25" d="M383 235c-.3.6-7 1.9-8 2.1-16.5 3.9-33.7 8.7-48.8 16.6-17.1 8.9-30.7 21.1-44.1 34.7.2-1.9 3.9-5.7 5.1-7.1 3.6-4.3 7.9-8.2 12.1-11.8 16.8-14.4 35.6-23.3 56.8-29.1 8.9-2.5 17.8-4.6 26.9-5.4z"/><path class="st17" d="M363.1 545.7c-1.8.8-4.1-.2-6-.7l-15.9-5.1c-24.6-9.1-45.4-22.2-62-42.6-2.4-2.9-5.9-6.4-7.5-9.8l-.2-.5c1.7 1.7 3.8 4.4 6 5.3 4 5.2 9.1 10.1 14 14.6 20.4 18.6 45.4 30.6 71.6 38.8zM598.5 450.7l.1.8c0 .7-.8 2-1 2.7l-3.3 8.1c-3.8 9.3-8.7 19.1-15.2 26.8-2.2 2.6-5.6 4.8-8.2 6.9-8 6.4-16 12.7-24.7 18.2 2.9-3.4 6.4-6.4 9.7-9.5l12.9-12.6c12-12.4 20.7-26.6 29.7-41.4zM630 399.9c-9.7 14.9-21.3 30-34 42.5-1.8 1.8-4 4.4-6.4 5.4l34.1-47.8.4-.8c-.7-2.9-3.6-6.4-5.2-8.9l-14.5-22.2-11.3-18.3.2-.4 36.7 50.5z"/><path class="st9" d="M644 395.4c0 1.4.2.9.6 1.8.3.8 0 3.6 0 4.6l-.4.4v.6l-.5.3.9.9-.8 1.2-.4-.6c-.7.8-1.5 1.7-2.4 2.2-.9.4-.3.1-1.2.7 0 .8-.1.7-.6 1.2-.5 0-.8-.2-1.3-.5l-.4-.2-.3.5 1 .8-.8.8-.8-.4-2.2 4.2c-.2.3-1.1 1.5-1.1 1.7s.5 1.3.5 1.9c-.3.4-.6.7-.7 1.2-.2.6-.4 1.1-.7 1.6l-.7.2.3.8c-.8.7-.9.8-1 1.8l.6.4v.3l-.3.5-.3.8c-.3.5-.6.6-.7 1.2l-.1.4-1 1.6-.7.1.3.4c.5.9.2.5.7 1.1l.3.3-.6.6c-.8 0-.5-.1-1.1.5l.5.5-.2.6h-.6c-.4.5-.7.9-.9 1.5-.4.8-.4.6-1.2 1.1-.6.4-1.2.7-1.9.8l-.4.1.2.3-.3.4.5.5-.3.6-.4-.3-.4.3c-.5-.3-.2-.2-1.1-.3-.6.5-1 1.1-1.3 1.8-.5 1-.1.4-.7 1.2-1 1.3-2.2 3-3 4.5-.5 1-.1.4-.7 1.2l-.9 1.2-.4.6c-.5.7-.8 1.3-1.2 2l-.4.6-2 2.8-2 3-.5.7c-.6 1.1 0 .3-.7 1.2l-1.6 2.2-.3.3v.6l-1.2 1v.6l-1.1.9c-.3.5-.9 1.1-1.2 1.6-.7 1-1.4 2.3-2.3 3.1-.5.5-.3.4-1 .4 11.6-15.2 21.5-31.4 30.7-48.2 3.2-5.8 7.1-11.7 8.4-18.2-2.8-9.3-8.4-17.7-13.1-26.1-9.2-16.1-18.7-32.1-29.2-47.4-15.9-21.6-35.3-43.1-57.9-57.8l.2-.3c.9.3 1.5.7 2.2 1.2.5.3.8.6 1.4.9.7.4 1.2.6 1.8 1.1l1.6 1.3c.8.5 1.3 1.2 2 1.6.9.6 1.4.9 2.1 1.7h.6l1.3 1.5c1.1.7 1.8 1.7 2.8 2.4 1.1.7 1.7 1.2 2.6 2.2l.6.7c1.6 1 2.5 2.8 4 3.6 3.3 2 6.6 6.2 9.4 9 1.2 1.2 3.2 2.7 4.1 4.2 1 1.5 2.8 2.6 3.6 4 .9 1.5 2.5 2.3 3.2 3.6.6 1 1.5 1.5 2 2.4.7 1.1-.1.3.6 1.1 4.9 5 8.7 11.1 13 16.5l4 5.9c.6.9 1 1.8 1.6 2.6l1.2 1.8c.6.9 1 1.8 1.6 2.6l1.2 1.8 3.2 5.2c2 2.8 3.4 5.9 5.3 8.7l1.3 2.1c1 2 2.3 4.3 3.6 6.1l.7-.1 1 .8-.8.8c.3.8.1.5.6 1l.6-.6c.7.5.5.3 1.1.9l.4.4c.5-.4.2-.3.7-.3v.6h.6l.6.8c.8 0 .7.1 1.2.6l.1.7.5-.5.6.6v.6h.6l.8.8c.3.5.2.6.6.9l.6.3-.6.4 1.2.6v.6l.8.6v.6c.9 0 1 .4 1.6 1v.6c.9 0 .8.2 1.4.8l-.6.4c.8 0 .7.1 1.2.6l.1.7c.9-.1.9-.2 1.7.3l-.6.4c.9 0 .8.2 1.4.8l-.5.3.3.2.6.3-.4.2v.4c.2.3.5.6.6.9l.2.7.6.9c-.3.5-.2.2-.3 1l.4-.2.7.3v.6l.6.4.3.6.3.5c.2.6.2 1 .8 1.4l.6.3-.5.3.3.2.6.3-.5.3c1 1.2 1 1.2 1.1 2.1z"/><path class="st0" d="m499.5 263.4-.5-.8.2-.4c4 .8 8.2 3.2 11.8 5 34.6 17.6 63.4 47.9 75.5 85.3 11 34.1 7.1 71.3-9.2 102.9-4.6 8.9-9.9 17.9-16.1 25.8-14.7 18.7-36.5 35.9-59.3 43.1l2.9-2.1c11.4-6.1 22.3-12.8 32.2-21.1 22.2-18.5 38.3-43.8 46.6-71.4 9.8-32.9 5.3-68.1-11-98.2-15.7-28.8-43-54.8-73.1-68.1z"/><path class="st17" d="M499.5 263.4c30.1 13.3 57.4 39.3 73.1 68.1 16.3 30 20.8 65.3 11 98.2-8.3 27.7-24.4 52.9-46.6 71.4-9.9 8.3-20.8 15-32.2 21.1.5-1.5 2.2-2.3 3.5-3.2l9.1-6.7 10.9-9c8.8-7.8 17.5-15.8 24.8-25 12.1-15.2 22.3-34.4 27.1-53.2 7.4-28.5 4.1-59.2-8.6-85.7-12.7-26.4-33.6-50-58.8-65.1-3-1.8-6.5-4.4-9.7-5.7l-.4-.1-3.9-4.5.7-.6z"/><linearGradient id="SVGID_00000103955614121482081850000000080355997568610969_" gradientUnits="userSpaceOnUse" x1="416.836" y1="675.71" x2="234.513" y2="364.368" gradientTransform="rotate(90 311.503 465.687) scale(.7585)"><stop offset="0" style="stop-color:#1a2d47"/><stop offset="1" style="stop-color:#16384b"/></linearGradient><path style="fill:url(#SVGID_00000103955614121482081850000000080355997568610969_)" d="M449 235.5c-10.5 5.3-23.4 7.2-34.7 10.3l-52.1 14.3-31.4 8.3L318 272c-1.3.4-2.9.8-4 1.6-4.8 3.6-8.7 10-12.2 14.8L279.1 321c-10.3 15.3-20.6 31.1-29.4 47.3-2.7 5-5.8 10.3-7.7 15.7-.2.4-.6 1.6-.6 2.1.1 1 .9 2.7 1.3 3.7l3.9 8.2 35.1 62.2 17.4 28.7c3.5 5.6 7 11.5 11.1 16.7 1.8 2.3 4 4.1 6.4 5.8 7.8 5.5 19 8.5 28 11.5l25.3 8.4 31.4 10 17.4 4.5c2.7.8 6.1 1.5 8.4 3.1-10.5 2.5-21.8 2.8-32.5 1.8l-21.9-2.9-7.4-1.5c-.7-.2-1.7-.6-2.4-.4-26.2-8.2-51.2-20.2-71.7-38.8-4.9-4.4-10-9.3-14-14.6-1.3-3.1-3.7-6.2-5.5-9l-9.4-15.2c-10.7-17.6-20.4-36-28.7-54.9-2.6-5.9-6.5-14-6.7-20.5-.1-2.5.6-5.3 1.2-7.7 2.4-10 8.1-19.2 13-28.2 10.5-19.1 22-37.5 35.1-54.9 4.1-5.5 8.4-11.4 13.4-16.3 6.3-6.2 13.5-10.4 20.9-15 6.3-3.9 12.2-8.6 18.9-11.8 10.9-5.2 23.1-8.7 34.7-11.7 16.4-4.2 33.2-7.3 50-9.6 7.7-1.1 15.3-2.3 23.1-2.7 4.2-.3 7.8.5 11.8.5z"/><path class="st0" d="m502.8 268.4.2.4c1.7 3.3 4 6.5 6.1 9.6l9.4 14.6 36.2 57.3c4.2 7.2 9.2 15.1 11.5 23.1 1.7 5.9 1.7 12.9-.1 18.8-2.5 8-8 16-12.3 23.2L528.1 457l-29.9 47c-4.4 6.7-8.4 13.9-13.3 20.1-3.5 4.4-7.7 8.4-12.7 11.1-4.2 2.2-9.1 3.4-13.6 4.9-10.4 3.3-20.7 6.5-31.4 8.7-2.3-1.7-5.7-2.4-8.4-3.1l-17.4-4.5-31.4-10-25.3-8.4c-9-3-20.2-6-28-11.5-2.4-1.7-4.5-3.5-6.4-5.8-4.1-5.2-7.6-11.1-11.1-16.7l-17.4-28.7-35.1-62.2-3.9-8.2c-.4-1-1.3-2.6-1.3-3.7 0-.5.4-1.6.6-2.1 1.9-5.4 5-10.7 7.7-15.7 8.8-16.2 19.1-32 29.4-47.3l22.6-32.5c3.5-4.8 7.5-11.2 12.2-14.8 1.1-.8 2.7-1.2 4-1.6l12.8-3.6 31.4-8.3 52.1-14.3c11.3-3.1 24.2-5.1 34.7-10.3 4.5-1.1 9.6-1.7 14.3-1.5 18.2.8 24.5 18 35.2 29.6l.3.3 4 4.5z"/><path class="st25" d="m312 302.4 20.1-29.1c1.4-2 4.1-2.6 6.3-3.4 5.8-1.9 11.8-3.2 17.8-4.8l41.5-11.1 37.3-10.3c6.3-1.7 12.8-4 19.2-5 7-1.2 15.1-1 21 3.4 5.2 3.8 9.4 9.8 13.4 14.9l11.5 15 10.6 16.1 23.7 37.1c7.6 12.3 15.6 24.4 22.2 37.3 2.6 5.1 5.5 10.5 6.3 16.2l.1.8c.7 5.2-.4 10.3-2.4 15.2-3.4 8.2-9.2 16.1-13.8 23.8l-24.4 39.2-15 23.3v-.6c.2-2.6 3-6.4 4.3-8.6l9.8-16.8 21-37.8c4.5-8.2 11.2-17.4 13-26.7 1-5 .5-9.8-1-14.6-2.4-7.7-7-15.5-10.8-22.6L510 297.5l-18.1-26.3c-6.6-8.8-15-20.3-26.5-22.1-4.4-.7-8.9-.7-13.3-.1-6.6.9-13 2.6-19.4 4.2l-28.7 7.4c-18.3 4.8-37 8.2-54.9 14.8-6.4 2.3-13 4.8-18.5 9-4.8 3.6-8.8 8.5-12.9 12.9-1.6 1.3-4 4.6-5.7 5.1z"/><path class="st35" d="M436.3 542.5c-2.4.9-5.1 2-7.6 2.2-1.5.1-3.3-.5-4.8-.9l-9.9-2.7-47.8-15.7-26.6-8.9c-6.5-2.2-14-4.1-19.8-8-1.5-1-3.1-2.2-4.3-3.6-3.3-3.7-6.1-8.3-8.8-12.5l-12.8-20.5-48.6-85.3c2.7-6.2 6-12 9.2-17.9l31.6-51 17.1-25.6c4-5.7 8.1-11.3 13.3-16 4.2-2.5 8.6-3.2 13.4-4-4.9 7.6-11 14.6-16.3 21.9l-19.9 29.8-23.6 37.4c-3.8 6.8-7.8 13.9-10.1 21.4-.4 1.3-.8 2.9-.6 4.2.3 2.5 2.1 5.6 3.2 7.8l6.6 13.1 31.2 54.4 17.5 28.4c2.9 4.3 5.7 8.6 9.6 12 1.7 1.5 3.9 2.5 6 3.5 5.7 2.7 11.9 4.6 17.9 6.6l19.8 7.1 65.1 22.8z"/><path class="st46" d="M312 302.4c1.7-.5 4.1-3.8 5.5-5.2 4.1-4.4 8.2-9.2 12.9-12.9 5.5-4.2 12.1-6.6 18.5-9 17.9-6.6 36.5-10 54.9-14.8l28.7-7.4c6.4-1.6 12.8-3.4 19.4-4.2 4.4-.6 8.9-.6 13.3.1 11.6 1.8 19.9 13.3 26.5 22.1l18.1 26.3 33.7 55.8c3.8 7.1 8.5 14.9 10.8 22.6 1.5 4.8 2 9.7 1 14.6-1.9 9.3-8.5 18.4-13 26.7l-21 37.8-9.8 16.8c-1.3 2.2-4.1 6-4.3 8.6v.6l-15.7 24.7-7.2 11.4c-2.1 3.3-4.1 6.7-6.9 9.5-3.5 3.4-7.4 5.6-12.1 6.9l-27.6 8.5-.5-.3c-3.5-1.9-7.3-3-11-4.2l-13.6-4.6-46.9-17c-10.1-3.6-20.8-6.8-30.5-11.3-2.1-1-3.9-2.2-5.5-3.7-4.6-4.4-8.2-10-11.7-15.3L299.5 455l-24.8-43.5c-4.2-7.7-8.7-15.7-12.2-23.8l-.2-.6c-1-2.5.9-6.7 2-9.1 3.2-6.7 6.9-13.2 10.6-19.7 8.3-14.7 17.6-29.5 27.8-42.8 2.6-4.1 5.8-9.7 9.3-13.1z"/><path class="st35" d="m315.4 317.8.5-.4c1.4-1.1 2.4-2.7 3.6-3.9l5.2-5.8c.4-.5.2-.3.8-.6-.1 1.5-5.8 9.2-7 11.3l-13 22.7c-2.3 4.1-4.5 8.6-7.2 12.5-.3-.8 0-.9.2-1.7.2-.6.2-.8.6-1.4l1.6-2.6c.3-.5.6-.9.9-1.4l.7-1.4.6-.8c.3-.5.3-.8.6-1.4l.8-1.4.6-.8c.8-1.6-.3.3.5-1.1l8.2-14.7.4-.8c.7-1.1.8-1.4.9-2.8 0-.9.1-1.7.3-2.6l.2-.9z"/><path d="M303.3 325.2c1.1-1 2-3 2.8-4.3l4.1-6.7c3.5-5.3 7.3-10.2 11.7-14.8l.6.1c-.2 1-.1 1 .4 1.9-1 2.4-3.2 4.6-4.8 6.8-2.9 3.8-5.8 7.9-8.1 12l-.3.6-10.5 15.3c-1.5 2.2-3.5 6.3-5.7 7.7l9.8-18.6z" style="fill:#8adcb3"/><path class="st14" d="M383.6 272.6h.8c1.6 0 3.1-.7 4.6-1.1l9.1-2.6c6.7-1.7 13.5-1.9 20.2-3 3.5-.5 7.6-.3 11.2-.2.9 0 2.3-.1 3.1.4-1.5 1-6.8.3-8.9.7-1.9.3-3.9.1-5.9.4-4 .7-8.1 1-12.1 1.9-16.9 3.6-34.2 10.9-48.1 21.3l-5.9-2.2c6.2-4.2 13-7.5 19.8-10.6 3.8-1.9 8.1-3.9 12.1-5z"/><path class="st22" d="M392.7 307.7c12.3-7.8 24.3-16.4 37.3-23 9.5-4.8 19.6-8.4 30-10.7 2-.4 8-2 9.6-.8 4.7 3.5 8.5 9.4 11.7 14.2 10.1 15.1 18.5 31.5 27.6 47.2 7 12.2 15.2 24 21 36.8 1.8 3.9 2.8 7.6 3.4 11.9-.6-.4-.3-.3-.9-.3l-.3.7c-.8-2.4-1.3-5-2.3-7.3-5.3-13.1-14.3-25.2-21.8-37.1 2.9 11 3.2 21.2 2.6 32.4l-3.2-2.2c.1-3.8-.2-7.5-.6-11.4-.7-8.1-1.7-16.9-4.6-24.5-1.2-3.1-3.6-6-5.3-8.9l-18.7-30.6c-2.9-4.5-5.9-9.3-9.5-13.3-.7-.7-1.4-1.4-2.2-2-19.5 2.5-39 14.5-54.9 25.6-3.3 2.3-7 4.5-9.9 7.3-2.6-.9-6.9-2.3-9-4z"/><path class="st14" d="m465.4 533.4-27.6 8.5-.5-.3c-3.5-1.9-7.3-3-11-4.2l-13.6-4.6-46.9-17c-10.1-3.6-20.8-6.8-30.5-11.3-2.1-1-3.9-2.2-5.5-3.7-4.6-4.4-8.2-10-11.7-15.3L299.5 455l-24.8-43.5c-4.2-7.7-8.7-15.7-12.2-23.8l-.2-.6c-1-2.5.9-6.7 2-9.1 3.2-6.7 6.9-13.2 10.6-19.7 8.3-14.7 17.6-29.5 27.8-42.8.6 3.1.6 6.4.6 9.6l-9.9 18.7c2.2-1.4 4.1-5.5 5.7-7.7l10.5-15.3-.1 1.1c-.4.6-.8 1-.9 1.8l.8-.7c2-1.4 3.4-3.7 5.2-4.8l.7-.4-.2.8c-.2.9-.2 1.7-.3 2.6-.1 1.3-.2 1.7-.9 2.8l-.4.8-8.2 14.7c-.8 1.4.3-.6-.5 1.1l-.6.8-.8 1.4c-.4.6-.3.9-.6 1.4l-.6.8-.7 1.4c-.3.5-.6.9-.9 1.4l-1.6 2.6c-.4.6-.4.8-.6 1.4-.2.8-.4.9-.2 1.7l-7.3 14.1c-3.4 7-6.7 13.5-4.3 21.4l.1.3c3.6 8.7 9.7 17.2 14.6 25.3l27.1 45.7c.9.3 9 13.6 10.1 15.2 1.7 2.5 3.6 5 5.6 7.2 3.9 4.5 8.8 8.1 13.5 11.6 22.6 16.7 50.5 27.1 77.7 33.7 10.1 2.6 19.8 4.8 30.1 5.4z"/><path class="st0" d="M328.6 460.4h-1.2c-13.7-17.8-24.4-38.3-34.7-58.2-1.7-3.2-5.9-9.4-5.8-12.8 3.6 8.7 9.7 17.2 14.6 25.3l27.1 45.7z"/><path class="st46" d="M491.7 458.2c-6.2 18.9-13.9 43.1-31.5 54.5-8.6 5.6-15.8 4.7-25.2 2.6-.8-.1-.9-.2-1.5-.7 2.7-2.4 5-5.4 7.3-8.3 6-7.5 10.9-15.6 15.5-23.9l4.5-8.7c.3-.6 1-2.5 1.3-2.8.4-.3 2-.6 2.5-.8l7.7-2.3c7-2.3 13.4-5.4 19.4-9.6zM459.5 471.5c-1.9 4.2-4.6 8.1-7.1 11.9-7.5 11.3-15.8 21.3-25.8 30.5-18.3-6.6-37.1-12.4-54.4-21.3l-13.5-7.7 23.2-11.1 16.7-8.4c.7-.3 2.7-1.6 3.4-1.6.8 0 3.7 1.7 4.6 2.1 4.1 1.9 8.5 3.3 13 4.4 12.8 3.3 26.8 2.7 39.9 1.2zM341.8 301.7l.5 160.4-19.8-30.3c-8-12-27.7-35.8-24.3-50.9 1.8-7.9 6.8-15.8 10.6-23 10-19 20.7-38.4 33-56.2z"/></svg>