<?xml version="1.0" encoding="utf-8"?>
<!-- Generator: Adobe Illustrator 26.1.0, SVG Export Plug-In . SVG Version: 6.00 Build 0)  -->
<svg version="1.1" id="Layer_1" xmlns="http://www.w3.org/2000/svg" xmlns:xlink="http://www.w3.org/1999/xlink" x="0px" y="0px"
	 viewBox="0 0 776 776" style="enable-background:new 0 0 776 776;" xml:space="preserve">
<style type="text/css">
	.st0{fill:#04020A;}
	.st1{fill:#EB8D2D;}
	.st2{fill:#377168;}
	.st3{fill:#FDFDFD;}
	.st4{fill:#CB7225;}
	.st5{fill:#FBBA4F;}
	.st6{fill:#1C5B62;}
	.st7{fill:url(#SVGID_1_);}
	.st8{fill:#1C0B11;}
	.st9{fill:#F6D528;}
</style>
<g>
	<path class="st0" d="M510.5,371.6c2.7,2,5.4,3.7,7.2,6.5c1.4,2.1,3.3,5.4,2.7,8c-2,2.5-5.4,4.4-8.2,5.9l-4,2.7
		c-0.1,0.4,0,0.8-0.2,1.1c-0.2,0.3-1.3,0.9-1.6,1.1l-5.7,3.7l-15.8,10.9l-80.8,49.2c-2.4-0.7-4.7-1.6-6.9-2.7l-1.6,0.7l-30.2,16.4
		c-4.6,2.5-9.8,5.9-14.8,7.5c-1.1-6.5-0.1-13.1-0.8-19.6v0.5l-0.2,11.4l-7.3-12.8l-0.5-160.4c2.3-3.1,5.6-5.3,8-8.5l0.3-2.8
		c0.2-1.4,0.7-1.6,1.7-2.4l5.9,2.2l35,17.3c2.1,1.7,6.4,3.1,9,4l105.7,57.7L510.5,371.6z"/>
	<path class="st1" d="M353.7,355.4c1.5,2.1,1.3,6.2,1.8,8.7l4,19.1c1,5.7,1.4,11.5,1.5,17.2c0.1,2.1,0.5,3.8,0.1,5.9
		c-3.3-7.6-6.2-16.8-7.6-25c-0.6-3.7-0.2-7.9-0.1-11.6C353.5,365.1,353.2,360.1,353.7,355.4z"/>
	<path class="st2" d="M508.3,394.8c-0.1,0.4,0,0.8-0.2,1.1c-0.2,0.3-1.3,0.9-1.6,1.1l-5.7,3.7L485,411.6l-80.8,49.2
		c-2.4-0.7-4.7-1.6-6.9-2.7l37-21.3l39.7-22.5l20.4-11.6C498.7,400,503.5,396.6,508.3,394.8z"/>
	<path class="st3" d="M388.6,309.1l21.1,10.9l77.2,41.5c8.7,4.9,18.6,9.4,26.5,15.4c2.2,1.7,5,5.8,5.3,8.5l-1.3,0.5
		c-2.3-0.1-4.4-0.6-6.6-1.2L490.1,371l-33.9-19.4l-35.9-21.7l-20.7-12l-7.8-4.6c-1.3-0.8-3-1.6-4-2.8l0.3-0.4
		C388.5,309.6,388.3,309.8,388.6,309.1z"/>
	<path class="st2" d="M349.8,293.3l0.1,169.7v0.5l-0.2,11.4l-7.3-12.8l-0.5-160.4C344.1,298.7,347.4,296.4,349.8,293.3z"/>
	<path class="st4" d="M517.5,385.8c-2.8,0.8-5.3,2.6-7.6,4.2l-23,13.7l-67.8,38.5l-19.8,11.2c-0.9,0.5-4,2-4.5,2.6l-41.9,23.1
		l0.1-89.6l0.1,0.6c2.7,13.4,8.4,27.1,16.7,37.9c2.5,3.3,5.4,6.7,8.9,9c0.9,0.6,1.9,1.1,3,1.5c-2.5-2.4-5.1-4.7-6.8-7.8
		c3,1.2,5.8,2.9,8.7,4.2c3.1,1.3,6.9,1.8,10.2,1.8c4.2,0.1,8.1-1.2,11.9-2.5c11.1-3.8,21.7-9.6,32-15.2l22.4-12.2
		c9.8-5.8,19.3-12.5,29.9-16.9c6.7-2.8,13.8-4.3,21-5.1C513.2,385.2,515.3,385.7,517.5,385.8z"/>
	<path class="st5" d="M388.6,309.1c-0.3,0.7-0.2,0.4-0.6,1l-0.3,0.4c1,1.2,2.7,2,4,2.8l7.8,4.6l20.7,12l35.9,21.7L490,371l20.8,13.6
		c-7.2,0.8-14.2,2.4-21,5.1c-10.6,4.3-20,11.1-29.9,16.9l-22.4,12.2c-10.3,5.5-20.9,11.4-32,15.2c-3.9,1.3-7.8,2.6-11.9,2.5
		c-3.4-0.1-7.1-0.6-10.2-1.8c-3-1.2-5.7-3-8.7-4.2c-5.5-6.9-10.8-15.7-13.7-24.2c0.4-2.1,0-3.9-0.1-5.9c-0.2-5.8-0.6-11.6-1.5-17.2
		l-4-19.1c-0.5-2.5-0.3-6.6-1.8-8.7c-0.4-3.6-0.1-7.8-0.1-11.4v-24.7c-0.9-8.5-0.4-17.9-0.3-26.4l0.5-0.4l1.2,0.8L388.6,309.1z"/>
	<path class="st4" d="M355.1,293.3c0,0.7,0.1,1.2,0.5,1.8c0.8,0.9,2.4,1.7,3.4,2.4c2.3,1.6,4.6,3.2,6.8,5c9.9,8.2,19,17.2,28.4,26.1
		l6.7,6.2c1.4,1.3,2.9,2.4,3.7,4.1l-0.4-0.2l-19.3-10.9v53.7l-0.4-23.4l-0.1-23.4c-1.4,1.3-1,5.3-1,7.2c-0.2,7.2-0.7,15.1,0,22.3
		l-2.5,32.3c-4.8-22.2-13.5-43.6-20.3-65.2l-3.9-12.9c-0.7-2.6-1.2-5.8-2.5-8.1c0,2.9,0.2,6.2-0.2,9.1c-0.9-8.5-0.4-17.9-0.3-26.4
		l0.5-0.4L355.1,293.3z"/>
	<path class="st6" d="M404.6,338.8l68,38.1l-84.5,47.6c-0.8-0.3-0.5,0-1-0.8l-0.4-2.3c-2-13.1-1.9-26.6-1.9-39.8v-53.7l19.3,10.9
		L404.6,338.8z"/>
	
		<linearGradient id="SVGID_1_" gradientUnits="userSpaceOnUse" x1="287.2188" y1="503.5519" x2="287.1225" y2="499.4641" gradientTransform="matrix(0 0.7585 -0.7585 0 777.1908 154.1839)">
		<stop  offset="0" style="stop-color:#10000B"/>
		<stop  offset="1" style="stop-color:#2C0F0E"/>
	</linearGradient>
	<path class="st7" d="M398.7,346.4l-0.5,1.3l-1.2,0.4l-0.1,3.5l0.2,42.9l-0.1,0.3l-1.4,0.7l-0.3,3.2c-1-7-0.6-14.9-0.6-21.9
		c-0.1-10.2-0.8-21.3,0.8-31.4C396.8,345.2,397.5,345.8,398.7,346.4z"/>
	<path class="st0" d="M447.8,374.2l3.5,2.4c-6.9,6-15.3,9.4-23.2,14l-22.4,12.8c-2.9,1.5-5.9,3.2-8.9,4.3l-1.1,0.5
		c-0.9-1.4-0.8-7.6-0.6-9.4l0.3-3.2l1.4-0.7l0.1-0.3l0.7,0.7c2,0,4.9,1.7,6.9,2.4c1.6,0.6,2.4,1.1,3.6,2.4l41-23.4
		c-0.1-0.7-1.3-1.1-1.8-1.5L447.8,374.2z"/>
	<path class="st5" d="M408.2,400.2c-3.5,2.1-7.2,4.7-10.9,6.3c-0.6-3.8-0.1-7.7-0.4-11.6l0.1-0.3l0.7,0.7c2,0,4.9,1.7,6.9,2.4
		C406.2,398.4,407,398.9,408.2,400.2z"/>
	<path class="st8" d="M404.6,338.8l68,38.1l-84.5,47.6c-0.8-0.3-0.5,0-1-0.8l0.3-0.4c2-2.5,6.4-4.7,9.1-6.4l35.6-20.5l33.6-19.1
		c-2.4-2.3-6.2-4.1-9.2-5.6l-15.7-8.2l-36.5-20.2c-5.5-3.1-11.4-5.6-16.6-8.9l-0.2,42.5l-0.6,18.5l-0.1,16.7c0,3,0.4,6.4-0.2,9.3
		c-2-13.1-1.9-26.6-1.9-39.8v-53.7l19.3,10.9H404.6z"/>
	<path class="st5" d="M447.4,375.2c0.6,0.4,1.7,0.8,1.8,1.5l-41,23.4c-1.2-1.3-2-1.8-3.6-2.4c-2-0.7-4.8-2.4-6.9-2.4l-0.7-0.7
		l-0.2-42.9l0.1-3.5l1.2-0.4l0.5-1.3c4.6,3,9.8,5.6,14.6,8.3l22.4,12.4c4,2.3,8.4,4.3,12.1,7.1L447.4,375.2z"/>
	<path class="st9" d="M405.6,352.8l-0.8,0.3c-2-0.7-3.5-2.1-5.4-2.9c0.2,1.1,0.8,1.5,1.6,2.2c0.6,0.6,0.3,0.4,0.9,0.7
		c1.2,0.5,1.5,1.9,2.8,2.2c0.4,0.5,0.6,0.6,0.5,1.3l-5-3.9c-0.8-0.9-1-1.2-2.2-1.6c-0.3,0.2-1,0.6-1.3,0.6l0.1-3.5
		C399.9,349.1,402.9,351.3,405.6,352.8z"/>
	<path class="st8" d="M447.8,374.2l-0.5,1l-41.7-22.4c-2.7-1.6-5.7-3.8-8.7-4.7l1.2-0.4l0.5-1.3c4.6,3,9.8,5.6,14.6,8.3l22.4,12.4
		C439.7,369.4,444.2,371.4,447.8,374.2z"/>
	<path class="st1" d="M405.3,356.6l29.9,24.4l-14.5,8.6l-9.4-17.6l-8.4-14.6c-0.8-1.4-2.4-3.2-2.5-4.7L405.3,356.6z"/>
</g>
</svg>
