<svg version="1.1" id="Layer_1" xmlns="http://www.w3.org/2000/svg" x="0" y="0" viewBox="0 0 1024 1024" style="enable-background:new 0 0 1024 1024" xml:space="preserve"><style>.st0{fill:#040c20}.st1{fill:#2b5d6f}.st2{fill:#5ecce8}.st3{fill:#09a1c2}.st4{fill:#477b8f}.st5{fill:#7ca2b0}.st6{fill:#0a4769}.st7{fill:#f8fbfa}.st8{fill:#7f3b26}.st9{fill:#081a34}.st10{fill:#9ce7f2}.st11{fill:#5b2d1b}.st12{fill:#28f5f7}.st16{fill:#effefc}</style><path class="st0" d="m491.4.6.4-.1c19.7-1.2 40.1-.3 59.7 1.1 110.4 8.2 217.8 52.7 300.8 126.1 67.1 59.3 116.1 136.1 144 221 13.6 41.4 21.1 86.8 23.7 130.2 6 101.2-18.5 205-69.7 292.7-17.3 29.6-38 57.3-60.8 82.9-72.3 81.1-172.3 138.1-278.9 159-25.3 4.9-51.6 7.2-77.3 8.7-27.5.4-54.9.1-82.3-3.2-103.1-12.3-202.1-57.8-279.5-126.9C119.9 846 77.3 789 48.7 725.7c-27-59.8-42-124.9-45.6-190.3-3.5-62.2 5.7-125.8 24.7-185 5.9-18.4 12.5-36.8 20.6-54.4 21.6-47.3 50.3-90.6 85-129.3 16.2-18.2 34.1-34.2 52.8-49.7 46.6-38.4 99.7-68.7 156.9-88.3C390.8 12.1 441 3.4 491.4.6z"/><path class="st1" d="M996.2 499.7c.2 1.1.4 2.1.7 3.1.9 2.8.7 5.8.7 8.8L997 528l-2.6 37.9c-3.4 29.7-9.7 59-17.9 87.7-28.8 100.7-94 191.2-178 253.2-19 14-39.6 26.4-60.3 37.8-26.8 14.9-56.3 26.2-85.6 34.9-90.8 26.8-186 27.2-277 .9-88.7-25.6-171.1-77.5-231.9-147.4-23.4-26.9-43.4-56.5-60.5-87.8C40.4 667 21.5 574.1 26 485.4l1.4-20.5c.4-7.4.7-16.2 2.7-23.3.8 10.6-.3 22-.3 32.7-.1 19 .8 37.5 2.9 56.4 12.7 111.4 68.7 218 153.5 291.5 49.7 43.1 107.5 77.3 170.1 98 60.9 20.2 127.7 27.7 191.6 23 129-9.5 251.5-70.1 336.1-168.1 40.1-46.4 71.6-101.3 90.5-159.7 6.2-19.2 10.8-38.9 14.5-58.8l5.1-35.2c.9-7.1.9-14.6 2.1-21.7z"/><path class="st2" d="M30.2 441.8c4.1-25.7 8.4-51 15.6-76.1 21.3-74.9 61.9-143.9 116.8-199.1 19.3-19.4 40.8-37.1 62.9-53.1 19.7-14.3 40.6-26.3 62.2-37.4 19.5-10 39.2-19.1 59.8-26.6C424.3 21.8 508.7 13 589.4 26c128 20.5 244.9 91.7 320.6 197 49 68.1 79.5 150.6 85.2 234.4.9 13.9 2 28.3.9 42.3-1.2 7.1-1.2 14.6-1.9 21.8l-5.1 35.2c-3.7 19.9-8.2 39.5-14.5 58.8-18.9 58.4-50.5 113.3-90.5 159.7-84.6 98-207.1 158.6-336.1 168.1-63.9 4.7-130.8-2.8-191.6-23-62.6-20.7-120.4-55-170.1-98-84.8-73.4-140.7-180.1-153.5-291.5-2.2-18.9-3-37.4-2.9-56.4 0-10.7 1.1-22 .3-32.6z"/><path class="st3" d="M243.4 124.1c2.7-3.5 6.4-5.4 10-7.7l11.1-7.4c17.7-12 36.5-21.5 56-30.3 14.5-6.6 29.2-12.8 44.3-17.8 29.8-9.9 61.2-16.5 92.4-20.5 103.3-13.2 212.4 10.8 301 65.7 13.3 8.2 26.4 16.5 38.7 26.1l33.7 28.3c6.7 6.3 13.9 12.3 20.4 18.9 49.9 51.3 86.2 112.7 107.5 180.9 4.2 13.5 7 26.8 9.9 40.6.8 3.9 2.2 8.5 2.4 12.5v2c-1.4-4.8-1.9-9.6-3.1-14.4l-11-40.6c-24.3-75.7-70.3-144.3-127-199.5-2.5-1.5-4.6-3.7-6.9-5.6l-14.2-11.7c-49.8-39.1-107.1-68-167.9-85.3C628 54.6 615 51 602 48.6c-48.9-9.3-100.2-10.3-149.5-4.3-50.2 6.2-99.1 20.9-144.7 42.7l-29.4 15.7-18.9 10.9c-2.1 1.3-5 2.7-6.5 4.7-2.9 2.5-6.1 4.4-9.6 5.8z"/><path class="st4" d="M53.2 544.3c-2.1-14.8-4.1-29.4-4.9-44.4-2-40.8 2.9-82.3 13.4-121.7 20.6-77.6 63.3-148.9 120.1-205.3l23.5-21.6c3.7-3.1 7.3-6.5 11.5-8.9l-.6.9c-1.9 2.6-5.3 4.7-7.7 6.8l-12.4 10.8c-12.5 11.3-24.8 23.4-35.8 36.2-6.6 7.7-13.6 15.4-19.2 23.8-6 9-11 18.7-15.8 28.3-22.8 46-32.5 95.8-32.4 147 0 12.2.1 24.5 1.4 36.7.7 6.6 2.3 14.1 1.6 20.7-.7 7.6-4.2 17-7.5 23.9-6.5 13.7-14.8 26.4-21.7 39.8-1.4 2.7-4 6-4 9.1l-8.1 15.2c-.3.7-.9 1.3-1.2 2l-.2.7z"/><path class="st1" d="m431.4 869.9 30.8 5.8c24.6 3.4 49.3 4.4 74.1 4 44.3-.6 90.1-7.3 132.6-20 65.9-19.6 130.2-55.2 182.3-100.1 15.7-13.5 30.4-28.4 44.6-43.4 3.2-3.4 5.7-7.4 8.9-10.6l1.3-1.3c1.1-1.9-.7.1 1.1-1.8.8-.8 1.5-1.5 2.2-2.4l1.8-2.4c1-1.3 2.5-2.8 3.3-4.2.7-1.2 1.6-2.8 3-3.6 1.9-1.1 3.2-2.4 4.6-4.1l.5-.7.9-1.2c1-1.7 1.5-2.9 3.1-4.1l.9-.6c-9.2 18.7-21.4 36-33.6 52.8-11.5 15.8-23.4 30.9-36.7 45.2-54.3 58-123.4 100.8-198.4 126.4-61.7 21-129.9 27.9-194.7 21.4l-38.5-5.8c1.5-4 3.3-7.9 4.4-12 3.2-12.3 2.9-24.8 1.5-37.3z"/><path class="st5" d="m216.9 142.4.1-.1c2.9-2.9 9.1-8.1 13-9.3l.4.3c3.1 2.4 7 3.9 10.6 5.6l18.6 8.6c4.4 2 9.3 3.8 13.4 6.4 4.6 2.9 9.1 10.3 12.9 14.4l16.5 17.7c3.9 3.9 8.7 7.9 12 12.2.9 1.2 1.1 2.4 1.3 3.8l-1.4-.4-32.3 23.9c-44.7 36.7-77.8 83.2-98 137.4-3.1 8.3-5.8 16.7-7.9 25.4-1.3 5.2-2 11.1-3.8 16.1l-20.2 18.9c-2 1.9-4.8 4.8-7.4 5.9-11.9 7.2-23.6 13.6-37.5 15.6.6 3.9 1.3 8.1.9 12-1.2 9.7-9.4 21.6-15.1 29.2l-30.1 40.3c0-3.1 2.6-6.4 4-9.1 7-13.4 15.3-26.1 21.7-39.8 3.3-6.9 6.7-16.3 7.5-23.9.6-6.6-1-14.1-1.6-20.7-1.3-12.1-1.4-24.5-1.4-36.7-.1-51.2 9.6-100.9 32.4-147 4.8-9.7 9.8-19.4 15.8-28.3 5.6-8.4 12.6-16.2 19.2-23.8 11-12.8 23.3-24.9 35.8-36.2l12.4-10.8c2.5-2.1 5.8-4.3 7.7-6.8l.5-.8z"/><path class="st1" d="M231 212.6c1.2-.3.6-.4 1.6 0-30.3 18.9-53.4 48.6-64.2 82.6-2.3 7.1-3 14.4-4.8 21.5-.5 2.1-.7 4.1-.8 6.2l-.6 1c1.3-11.9 2.9-23.5 6-35.1 7.2-26.3 21.7-49.3 44.1-65.2 6-4.1 12.5-7.4 18.7-11zM144.7 429.2c-4.8-4.1-8.8-7.6-12-13.2-19.4-34-11.2-74.2-1.7-109.7l.5.3c-3.6 16.3-6.6 31-6.6 47.8-.1 17.3 3.4 36.4 12.6 51.3 4 6.5 9.2 12.2 14.6 17.6-2.1 1.9-4.9 4.8-7.4 5.9z"/><path class="st4" d="M84.8 580.9c6.9 13.8 13.9 27.7 22.1 40.7C156 699 231.2 760.3 318.4 789.2c18 6 37.6 11.6 56.5 13.6l-6.9-24.6c-1.2-4.4-3.5-9.5-3.1-14 2 1.2 3.1 2.1 4.2 4.2 2.5-.5 6 1.9 8.5 2.8 4.4 1.6 9 3.1 13.6 4l5 13.8c2.4 7.3 6 14.3 9 21.3l15 33.8c3.9 8.2 9.6 16.9 11.3 25.8 1.4 12.5 1.6 25-1.7 37.2-1.1 4.1-2.9 8.1-4.4 12l-29.8-6.6C288.7 886 191.4 820.2 127.9 730.1c-9.1-11.3-16.5-24.4-23.6-37.1-9.6-17.4-18.9-35.4-25.9-54l6.4-58.1z"/><path class="st6" d="M364.9 764.1c2 1.2 3.1 2.1 4.2 4.2 2.5-.5 6 1.9 8.5 2.8 4.4 1.6 9 3.1 13.6 4l5 13.8c2.4 7.3 6 14.3 9 21.3l15 33.8c3.9 8.2 9.6 16.9 11.3 25.8 1.4 12.5 1.6 25-1.7 37.2-1.1 4.1-2.9 8.1-4.4 12l-29.8-6.6c2-8 4.8-18.3 4.5-26.5l.3-4.3c.5-4.7.3-9.4.4-14.1l-2.1-.4c-6.1-8.4-9-17.1-12.1-26.9L375 802.6l-6.9-24.6c-1.3-4.2-3.6-9.3-3.2-13.9z"/><path class="st7" d="M364.9 764.1c2 1.2 3.1 2.1 4.2 4.2 8.9 20.5 17.2 41.8 23.7 63.1 3.6 11.8 7.1 23.9 8 36.3l-2.1-.4c-6.1-8.4-9-17.1-12.1-26.9L375 802.8l-6.9-24.6c-1.3-4.4-3.6-9.5-3.2-14.1z"/><path class="st1" d="M127.9 730.1c.6.1 1.1.1 1.7.3 1.5.6 3.8 3.7 5.1 4.8 10.9 9.5 21.6 19.6 33.1 28.4 32.3 24.8 65.1 46.7 101.9 64.2 29.9 14.2 62.1 26.1 94.3 33.7 9.7 2.3 19.3 4.6 29.3 5.5 1.6.1 3.5 0 4.3 1.6l.3 1.5.1.8c.4 2.8.8 5.8.8 8.6 0 1.2-.3 4 0 4.9.3.6.9 1.1 1.3 1.6.3 8.2-2.4 18.5-4.5 26.5-106.9-26.5-204.2-92.3-267.7-182.4z"/><path class="st5" d="m152.1 423.3 20.2-18.9-3.5 19.6c0 2.1.1 4.1-.4 6.1-7.7 87 18.6 173.1 74.8 240.1 28.2 33.6 62.1 60.9 100.2 82.7 6.2 3.5 14.4 9.1 21.2 11.3h.3c-.5 4.6 1.9 9.7 3.1 14l6.9 24.6c-18.9-2-38.5-7.6-56.5-13.6C231.2 760.3 156 699 106.9 621.7c-8.3-13-15.2-27-22.1-40.7l-6.3 58c-2.1-3.6-2.8-7.6-3.5-11.7-2.9-3.9-4.3-10.4-5.9-15-7.2-22.4-12.7-44.6-15.9-68l.3-.8c.3-.7.8-1.3 1.2-2l8.1-15.2L92.9 486c5.7-7.7 13.9-19.5 15.1-29.2.5-4-.3-8.1-.9-12 14-2 25.6-8.4 37.5-15.6 2.6-1.1 5.4-4 7.5-5.9z"/><path class="st6" d="M154.7 634.6c1.2.3 5.2 6.9 6.2 8.3 5.2 7.1 10.5 13.9 16.4 20.4 18 19.9 42.7 30.4 65.1 44.3-2.3.4-5.8-1.5-8-2.3l-18.4-6.4c-8.9-3.3-17.4-7.1-25-12.8-16.2-12.1-28-33.4-36.3-51.5zM152.1 423.3l20.2-18.9-3.5 19.6c0 2.1.1 4.1-.4 6.1-5.5 2.9-10.3 8.9-15 13.2-5.6 5-13.6 10.2-17.9 16.3-10.3 14.2-13.7 33.3-21 49.1-3.8 8.1-8.7 15.3-13 23.1-4.6 8.3-8.3 17.2-11.1 26.3L84.8 581l-6.3 58c-2.1-3.6-2.8-7.6-3.5-11.7-2.9-3.9-4.3-10.4-5.9-15-7.2-22.4-12.7-44.6-15.9-68l.3-.8c.3-.7.8-1.3 1.2-2l8.1-15.2L92.9 486c5.7-7.7 13.9-19.5 15.1-29.2.5-4-.3-8.1-.9-12 14-2 25.6-8.4 37.5-15.6 2.6-1.1 5.4-4 7.5-5.9z"/><path class="st7" d="M168.8 424c0 2.1.1 4.1-.4 6.1-5.5 2.9-10.3 8.9-15 13.2-5.6 5-13.6 10.2-17.9 16.3-10.3 14.2-13.7 33.3-21 49.1-3.8 8.1-8.7 15.3-13 23.1-4.6 8.3-8.3 17.2-11.1 26.3L84.8 581l-6.3 58c-2.1-3.6-2.8-7.6-3.5-11.7v-2.7c.4-12.6 1.7-25.1 3.3-37.6 2.5-19.7 6-38.3 14.9-56.3 6.8-13.6 15.5-26.1 21.8-40l11.1-26.5c1.2-2.8 2.5-6.9 4.3-9.2 1.5-1.9 4.2-3.3 6.1-4.6l11.9-8.5c7.2-5.5 13.8-11.7 20.4-17.9z"/><path class="st8" d="M172.3 404.3c1.8-5 2.5-10.9 3.8-16.1 2.1-8.6 4.8-17.1 7.9-25.4 20.2-54.1 53.3-100.7 98-137.4l32.2-23.9 1.4.4 1.7 37.8c.2 4.1-.2 9.8 1.3 13.5L280.4 278c-11.9 7.5-26.6 15-35.5 26-5.6 6.9-9.1 15.5-10.7 24.2-.8 4.3-.8 9-.5 13.4l4.2 42.5 2.8 30.5c.3 3.3.2 8.1 1.1 11.2-1.7 8.6-.3 18.3.2 27.1l2.9 42 3.5 60 2.3 35.3c.5 4.4 1.3 9.7 3.7 13.5 4.1 6.3 12.5 11.8 18.4 16.3l22.8 18.1L448 761l30.2 24.7c2.8 2.5 6.4 5 8.7 7.9-17.9-1.1-35.8-3.3-53.3-7.2l-42.5-11.2c-4.6-1-9.2-2.4-13.6-4-2.5-.9-6-3.3-8.5-2.8-1.1-2.1-2.2-3-4.2-4.2h-.3c-6.8-2.1-15-7.7-21.2-11.3-38-21.8-72-49.1-100.2-82.7-56.2-67-82.5-153.1-74.8-240.1.5-2.1.4-4 .4-6.1l3.6-19.7z"/><path class="st5" d="M253 118.4c1.6-2 4.4-3.4 6.5-4.7l18.9-10.9L307.8 87c45.6-21.8 94.5-36.5 144.7-42.7 49.3-6.1 100.6-5 149.5 4.3 13 2.5 25.9 6 38.6 9.6 60.9 17.3 118.1 46.2 167.9 85.3l14.2 11.7c2.2 1.8 4.4 4.1 6.9 5.6 56.7 55.2 102.7 123.8 127 199.5l11 40.6c1.2 4.8 1.8 9.7 3.1 14.4 10.6 60.9 6.5 123.9-10.7 183.2-3.7 12.7-7.5 25.4-12.9 37.5-3.6 10.7-8.7 21.1-13.5 31.3-1.7 3.5-3.7 9.1-6.3 11.9l-.9.6c-1.6 1.2-2.1 2.4-3.1 4.1l-.9 1.2-.5.7c-1.4 1.7-2.7 3.1-4.6 4.1-1.4.8-2.3 2.3-3 3.6-.8 1.4-2.3 2.9-3.3 4.2l-1.8 2.4c-.6.9-1.4 1.7-2.2 2.4-1.9 1.9-.1-.2-1.1 1.8l-1.3 1.3c-3.2 3.3-5.7 7.3-8.9 10.6-14.2 15-28.9 29.9-44.6 43.4-52.1 44.8-116.4 80.5-182.3 100.1-42.5 12.6-88.3 19.3-132.6 20-24.8.4-49.5-.6-74.1-4l-30.8-5.8c-1.7-9-7.4-17.6-11.3-25.8l-15-33.8c-3.1-7-6.7-14-9-21.3l-5-13.8 42.5 11.2c17.5 3.8 35.4 6 53.3 7.2 16.8.9 34.6 1.8 51.3.1 22.8-.6 46.7-5.4 68.9-10.6-1.4-18.2-.4-37.6 2.7-55.6.8-4.8 1.3-9.3 2.6-14.1.3 3.6.3 9 3.2 11.6 1 .8.6.6 1.7 1 1.8-3.3 2-5.5 1.7-9.2l-.1-1 .6-.6c0-1.3.1-2.3.4-3.5.3-1.3.5-2.5.6-3.9.9-3 .7-7.4 1-10.6l1.4-20 1.4-9.3c20-5.4 40-13.5 57.7-24.4 5.1-3.1 10.4-6.3 14.6-10.7l3.4-11.6c4.2-17.3 7.5-38.7 3.1-56.3l17.9-24.9-1.4.5-1.3-.8 6.8-13c-1.8-4.1-2.3-9.3-2.9-13.6-2.1-17 .1-34-1.8-50.9-.2-3.8.5-8 .6-11.9.2-13.7.3-27.9-1.8-41.5.3-1.3-.4-4.1-.6-5.5l-2.5-17.4c-.9-.2-1.3 0-2.2.3-3.9-19.2-9.1-37.4-17-55.4-15.4-34.8-39.6-64.2-68.9-88.3l.8-1.7c4.8 3.3 9.1 6.5 13.4 10.4-1-6.3-1-12.9-1.5-19.2-.9-10.9-2.5-22.5-1.9-33.4.1-1.7.7-2 1.8-3.2 7.3-7.5 15.5-14.3 23.3-21.4-9-5.6-18.7-9.5-28.4-13.5-36.6-15-75.6-24.5-115.2-26-2.6 0-5.2-.2-7.8.5-43.7 1.1-86.5 13.4-126.6 30.2-11.5 4.8-22.6 11-34.2 15.4l-.1.4c-9.7 3.7-18.1 11.9-28 15-1.7 4.8-.7 13.3-.8 18.6l-.6 37-3.4 1.8c-1.5-3.7-1.1-9.5-1.3-13.5l-1.7-37.8c-.2-1.4-.4-2.6-1.3-3.8-3.3-4.3-8.1-8.3-12-12.2l-16.5-17.7c-3.7-4.1-8.3-11.6-12.9-14.4-4.1-2.6-9-4.4-13.4-6.4L241 139c-3.5-1.7-7.4-3.2-10.6-5.6l-.4-.3 3.2-2.1c3-2.6 6.9-4.6 10.2-6.7 3.5-1.6 6.7-3.5 9.6-5.9z"/><path class="st9" d="m749.7 204-1.8-19.3c5.6-6.2 12.1-11.4 18.3-16.9 6.3-5.6 12.6-11.7 19.7-16.4 1.9.8 3.5 1.7 5.2 2.8l-.1 1.9-2.7-1.3c-1.7.7-2.9 2.3-4.1 3.5l-8.4 8.2c-7.1 6.8-14.2 13.8-21.9 19.9l-.9.4-1.8 1.2c-.4 5.9.9 11.4.9 17.2l-2.4-1.2z"/><path class="st0" d="m791.1 156.1.1-1.9c9.6 5.9 18.4 13.7 26.7 21.4 43.2 40.5 73.4 97.2 87.1 154.5l7.3 38-.7 1.6c-.5-2.8-.6-5.7-1.4-8.4-.3-1-.7-2.6-.9-3.6l.1-2.1-1.3-1.6c-.2.8-.4 1-.2 1.9.4 1.3.4 2.5.5 3.9.1 1.1 0 .6.3 1.7.4 1.8.1 3.6.8 5.2l-.9 1.7-2.8-19.7c-12.1-74.9-52.6-148-114.7-192.6z"/><path class="st1" d="m974.4 488.2-22 40.8c-2.3 4.6-5.1 9.5-6.6 14.4-1.5 5.1-1.8 10.6-2.4 15.8l-3 29.5-.6.2-.2-2.6-3.2-25.7c-.7-6.4-2.3-14.9-.7-21.2l.2-.6c1.9-7.5 8.7-14.4 13.4-20.4 8-10.4 15.9-20.7 25.1-30.2zM604.1 70.1l35.2 15.4c6.4 2.9 12.8 6.4 19.4 8.5 8.1 2.6 16.9 3.5 25.2 5.3l49.8 11.4c7.2 1.7 14.7 2.9 21.8 4.9-1.9.2-4.6 0-6.4-.4-6.5-1.3-13.4-1.7-20-2.5l-42.9-5.1-19.7-1.9c-4.4-.4-11.1-.2-15-2.2-4.9-2.4-9.7-6.7-14.2-9.8l-33.2-23.6zM309.6 138.2c14 1.9 28 4.2 42.3 3.3 20.8-1.4 40.6-12.2 58.9-21.5 17.6-8.9 36.1-18.5 55.1-23.9 2.1-.6 17.4-4.8 18-4.3l-5.4 2.1c-19.4 6.1-38.2 16-55.8 26-21.1 12-43.8 30.7-69.1 31.7-10.3.4-19.8-1.9-29.7-4.6-3.3-.9-6.9-2.5-10.3-2.6l-4-6.2z"/><path class="st6" d="M253 118.4c17.7 10.7 36.6 15.8 56.7 19.8l4 6c9.8 16.1 23.2 25.4 38 36.4l-.1.4c-9.7 3.7-18.1 11.9-28 15-1.7 4.8-.7 13.3-.8 18.6l-.6 37-3.4 1.8c-1.5-3.7-1.1-9.5-1.3-13.5l-1.7-37.8c-.2-1.4-.4-2.6-1.3-3.8-3.3-4.3-8.1-8.3-12-12.2L286 168.4c-3.7-4.1-8.3-11.6-12.9-14.4-4.1-2.6-9-4.4-13.4-6.4l-18.6-8.6c-3.5-1.7-7.4-3.2-10.6-5.6l-.4-.3 3.2-2.1c3-2.6 6.9-4.6 10.2-6.7 3.4-1.6 6.6-3.5 9.5-5.9z"/><path class="st7" d="m233.2 130.8 49.7 18.7c2.3 1.1 4.9 5 6.5 7l18 21.1 13 13.9c1.2 1.3 2.6 2.7 3.1 4.4-1.7 4.8-.7 13.3-.8 18.6l-.6 37-3.4 1.8c-1.5-3.7-1.1-9.5-1.3-13.5l-1.7-37.8c-.2-1.4-.4-2.6-1.3-3.8-3.3-4.3-8.1-8.3-12-12.2l-16.5-17.7c-3.7-4.1-8.3-11.6-12.9-14.4-4.1-2.6-9-4.4-13.4-6.4l-18.6-8.6c-3.5-1.7-7.4-3.2-10.6-5.6l-.4-.3 3.2-2.2z"/><path class="st1" d="M916.1 397.1c3.8 16.8 4.3 34.4 4.6 51.6 1.4 77.8-20.5 152.2-61.7 217.9-17.2 27.4-38.4 52.4-61.3 75.2-20.9 20.8-43.2 39.9-67.5 56.6-9.8 6.7-19.9 14.1-31 18.5-7.4-7.1-11.7-16.2-16.1-25.3l-14.4-30.2c5.5-3.4 12.1-5.8 18-8.5l14.6 18.5c2.1 2.3 4.1 4.5 7.4 4.6 7 .2 15.4-6 21.2-9.5 26.1-16.1 50.5-35.6 72-57.4 64.4-65.3 104.2-157.3 113-248.2 1.9-21.3 1.4-42.4 1.2-63.8z"/><path class="st4" d="M396.2 788.9c.7-1.6.4-2.7 0-4.3l-1.6-6.8 16.8 13.8c18.2 13.2 39.3 22.4 60.5 29.6 29.4 9.9 61.1 16.3 92.2 17.7 27.1 1.2 55.3-1.2 82.1-5.6 42.6-7 82.1-20.2 121.2-38.4 52.6-24.5 102-57.9 140.3-102 8.5-9.8 17.1-20.2 23.9-31.3l10.8-17.7c1.4-2.3 2.4-4.9 4-7.1l.7-.9c-3.6 10.7-8.7 21.1-13.5 31.3-1.7 3.5-3.7 9.1-6.3 11.9l-.9.6c-1.6 1.2-2.1 2.4-3.1 4.1l-.9 1.2-.5.7c-1.4 1.7-2.7 3.1-4.6 4.1-1.4.8-2.3 2.3-3 3.6-.8 1.4-2.3 2.9-3.3 4.2l-1.8 2.4c-.6.9-1.4 1.7-2.2 2.4-1.9 1.9-.1-.2-1.1 1.8l-1.3 1.3c-3.2 3.3-5.7 7.3-8.9 10.6-14.2 15-28.9 29.9-44.6 43.4C799 804.3 734.7 840 668.8 859.6c-42.5 12.6-88.3 19.3-132.6 20-24.8.4-49.5-.6-74.1-4l-30.8-5.8c-1.7-9-7.4-17.6-11.3-25.8l-15-33.8c-2.9-7-6.5-14-8.8-21.3z"/><path class="st2" d="M753.9 186.4c7.7-6.1 14.9-13.1 21.9-19.9l8.4-8.2c1.3-1.2 2.5-2.8 4.1-3.5l2.7 1.3c62.1 44.6 102.6 117.7 114.8 192.6l2.8 19.7.9-1.7c-.8-1.7-.4-3.5-.8-5.2-.3-1.1-.2-.6-.3-1.7-.1-1.3-.2-2.6-.5-3.9-.2-.8-.1-1.1.2-1.9l1.3 1.6-.1 2.1c.2 1 .6 2.6.9 3.6.8 2.7.8 5.6 1.4 8.4l.7-1.6 3.9 29c.2 21.3.7 42.5-1.4 63.7-8.9 91-48.6 182.9-113 248.2-21.5 21.8-45.9 41.3-72 57.4-5.7 3.5-14.2 9.7-21.2 9.5-3.3-.1-5.3-2.3-7.4-4.6l-14.6-18.5c-5.9 2.8-12.4 5.2-18 8.5-20 9.2-40.2 15.8-61.4 21.5-1.4-18.2-.4-37.6 2.7-55.6.8-4.8 1.3-9.3 2.6-14.1.3 3.6.3 9 3.2 11.6 1 .8.6.6 1.7 1 1.8-3.3 2-5.5 1.7-9.2l-.1-1 .6-.6c0-1.3.1-2.3.4-3.5.3-1.3.5-2.5.6-3.9.9-3 .7-7.4 1-10.6l1.4-20 1.4-9.3c20-5.4 40-13.5 57.7-24.4 5.1-3.1 10.4-6.3 14.6-10.7l3.4-11.6c4.2-17.3 7.5-38.7 3.1-56.3l17.9-24.9-1.4.5-1.3-.8 6.8-13c-1.8-4.1-2.3-9.3-2.9-13.6-2.1-17 .1-34-1.8-50.9-.2-3.8.5-8 .6-11.9.2-13.7.3-27.9-1.8-41.5.3-1.3-.4-4.1-.6-5.5l-2.5-17.4c-.9-.2-1.3 0-2.2.3-3.9-19.2-9.1-37.4-17-55.4-15.4-34.8-39.6-64.2-68.9-88.3l.8-1.7c4.8 3.3 9.1 6.5 13.4 10.4-1-6.3-1-12.9-1.5-19.2-.9-10.9-2.5-22.5-1.9-33.4.1-1.7.7-2 1.8-3.2 7.3-7.5 15.5-14.3 23.3-21.4 3.8-3 7.2-7.1 11.3-9.6 2.4-1.5 3.6-.9 6.2-.3 9.2 4.7 17.2 10.7 25.1 17.3 9.5 7.9 18.7 16.3 27 25.5l19.7 23.5-3.3-26.6 2.4 1.3c0-5.8-1.3-11.3-.9-17.2l1.8-1.2h.6z"/><path class="st3" d="M687.1 692.2h.4c2.6-.5 6.4-3 8.8-4.2 21.8-11.5 40-26.5 57.7-43.5-.4 19.4-9.8 40.4-19.8 56.8-1.9 3.2-3.9 7.1-6.5 9.8-4.2 4.5-13.6 7.5-19.1 9.9-3.1-3.4-5.6-7.6-8.3-11.4l-13.2-17.4z"/><path class="st10" d="M753.9 186.4c7.7-6.1 14.9-13.1 21.9-19.9l8.4-8.2c1.3-1.2 2.5-2.8 4.1-3.5l2.7 1.3c62.1 44.6 102.6 117.7 114.8 192.6l2.8 19.7c2.5 23.7 2.8 46.3 1.5 70.1-3.1 20.6-5.4 41.2-11.1 61.3-15.2 53.7-45.1 105.6-81.5 147.7-14.3 16.6-30 32.3-47.6 45.3-12.9 9.5-26.5 18.6-40.6 26.3-1.8 1-5 3.2-7 3.6-1.2 0-2.5 0-3.6.6-1 .5-1.8 1.1-2.8 1.5-1 .4-1.7.9-2.5 1.6-1.1.9-1.3.6-2.7.5-1.4-1-2.1-1.9-3-3.4.4-.7.9-1.2 1.5-1.7 5.3-1.7 15.1-5 18.8-9.3 1.5-1.8 3.4-2.8 5.5-3.8 22.5-10.8 41.9-29.2 59.3-46.7 17.1-17.2 32.9-34.6 46.7-54.7 6.3-9.1 12.7-18.4 18.2-28 11.2-19.5 19.9-40.2 27.2-61.5 3.3-9.6 6.6-19.3 8.9-29.2 2.6-11.1 3.9-22.3 5.3-33.5 1.5-12.4 2.9-24.8 2.8-37.3-.1-9.7-1.1-19.6-1.9-29.3-1.2-14.8-2.6-29.4-5.4-44.1-4.7-24.7-13.4-48.3-24-70.9-14.6-30.5-31.8-57.8-54.9-82.5-7.7-8.2-15.9-16.7-25.2-23-7.8 6-14.4 11.2-23.6 14.9-3.1 1.2-6.4 2-9.4 3.3-1.6.6-2 .4-3.6.2z"/><path class="st6" d="M752.1 205.3c0-5.8-1.3-11.3-.9-17.2l1.8-1.2c17.2 12.1 32.1 28.5 44.7 45.2 26 34.5 47 75.1 54.6 118 2.6 14.8 4.9 30 5.5 45 1.3 32.2-3 64-11.2 95.1-5.6 21.1-13.3 42.5-23.9 61.6l-.2.1-.8-.5.8-1.9 1.5-3 1.2-2.4 1.2-2.5.9-1.8.6-.6c.5-2 1.4-3.4 2.1-5.2.3-.9.5-1.7.9-2.5l6-14.7 1.2-3.2.3-1 .3-.7.3-1 .3-.7.9-2.4.3-1.2c.8-1.5.5-.2.8-1.8l.4-2.4c.8-1.6.5-.2.8-1.6.1-.6.2-1.4.4-2 .7-1.2.6-1 .6-2.4l.6-.6v-1.2c.7-1.1.6-1.1.6-2.4.7-1.1.6-1.1.6-2.4.7-1.1.6-.6.8-1.8.2-1.3 0-.5.3-1.5.4-1.4.4-2.8 1.1-4 .5-.9.3-1.2.2-2.2.7-1.1.6-1.1.6-2.4.7-1.1.6-1.1.6-2.4.8-1.2.6-1.6.6-3 .7-1.1.6-1.1.6-2.4.8-1.2.6-1.6.6-3 1.1-1.3.7-1.4.6-3 1-1.5.2-1.6.6-3 0-.1.9-1.4.9-1.5.1-.7-.4-1.4-.3-2.1.1-.6.8-.9.9-1.5.3-1.9-.7-1.8.6-3.6-.2-1.3-.4-2.1 0-3.3.5-1.4.7-2.2.5-3.7-.2-1.5.3-.8.6-2 .4-1.4-.4-3.2-.1-4.5.2-1 .7-.9.8-2.3.1-1.4-.5-3.7-.2-4.8.1-.5.5-.8.7-1.2 0-.8.4-2.9.1-3.6-.2-.6-.9-1-1.1-1.6-1-2.8.6-7-.4-10.1l-.3 2.1c-.9 4.8.4 9.6-.7 14.3-.7 2.8.1 5.5-.5 8.2-.5 2.1-.1 4.1-.7 6.1-.8 2.5-.4 5.2-1 7.8-.4 1.8-.3 3.8-.8 5.5-2.6 8.4-3.5 17.9-5.6 26.6-4.4 18.5-11 36.3-19.1 53.4-1.4 2.9-3.3 9-5.8 10.8l-.9.6c4.9-10.3 10-20.5 14.1-31.1 12.9-33.6 19.3-68.6 19.3-104.5l-1.3-19.7c-4-14.8-10.1-29.4-17.4-43-8.6-16-20-28.4-32.4-41.5-1.7-1.8-4.4-5.9-6.8-6.6-.4-.2-1.8-3-2.2-3.6l-.4.5-2.1-4.2c-.5.6-.3.4-1 .8l-.5.3-10.3-20.7 2.2-1.9-8.6-15.3c-.4-.9-2.3-4.1-2.1-4.9.6-1.8 6.7-8 8.4-8.9l1.4.9 2.4-1c-5.8-5.8-12.2-11.2-18.5-16.3-2.6-2.1-7.7-5.2-9.5-7.8-.7-1.3-1.8-14.6-2.1-16.9z"/><path class="st0" d="m779.8 247.2 2.4-1c7.8 7.7 15.3 15.6 22 24.3 22.3 29 38.1 64.8 45.3 100.6 2.5 12.5 4.5 24.9 4.5 37.7l-.4 6.7-.8-.6-1.3-19.7c-.9-12.4-3.7-25-7-37.1-8.2-30.3-22.1-59.3-41.1-84.3-7.2-9.5-15.3-18.1-23.6-26.6z"/><path class="st1" d="M772.1 260.1c-.4-.9-2.3-4.1-2.1-4.9.6-1.8 6.7-8 8.4-8.9l1.4.9c8.3 8.5 16.4 17.1 23.6 26.6 19 25 32.9 54 41.1 84.3 3.3 12 6.1 24.6 7 37.1-4-14.8-10.1-29.4-17.4-43-8.6-16-20-28.4-32.4-41.5-1.7-1.8-4.4-5.9-6.8-6.6-.4-.2-1.8-3-2.2-3.6l-.4.5-2.1-4.2c-.5.6-.3.4-1 .8l-.5.3-10.3-20.7 2.2-1.9-8.5-15.2z"/><path class="st0" d="M780.7 275.4c4.2 7.9 9.2 16.5 12.1 25.1l-.4.5-2.1-4.2c-.5.6-.3.4-1 .8l-.5.3-10.3-20.7 2.2-1.8z"/><path class="st9" d="m788.9 298 .5-.3c.7-.5.4-.3 1-.8l2.1 4.2.4-.5c.3.6 1.7 3.4 2.2 3.6 2.4.7 5 4.8 6.8 6.6 12.3 13.1 23.8 25.5 32.4 41.5 7.3 13.5 13.4 28.1 17.4 43L853 415c0 35.9-6.4 71-19.3 104.5-4.1 10.6-9.1 20.8-14.1 31.1l.9-.6c2.5-1.8 4.5-7.9 5.8-10.8 8.1-17.2 14.7-34.9 19.1-53.4 2.1-8.7 3-18.2 5.6-26.6.5-1.7.4-3.7.8-5.5.6-2.6.3-5.3 1-7.8.6-2 .2-4.1.7-6.1.6-2.7-.2-5.4.5-8.2 1.1-4.7-.2-9.5.7-14.3l.3-2.1c1 3.1-.6 7.3.4 10.1.2.6.9 1 1.1 1.6.2.7-.1 2.7-.1 3.6-.2.4-.6.7-.7 1.2-.3 1.1.3 3.5.2 4.8-.1 1.4-.7 1.3-.8 2.3-.2 1.3.5 3.1.1 4.5-.3 1.1-.8.5-.6 2 .2 1.5-.1 2.3-.5 3.7-.4 1.2-.2 2.1 0 3.3-1.3 1.8-.3 1.7-.6 3.6-.1.6-.8.9-.9 1.5-.1.7.4 1.4.3 2.1 0 .1-.9 1.4-.9 1.5-.4 1.4.4 1.5-.6 3 .1 1.6.5 1.7-.6 3 0 1.4.2 1.8-.6 3 0 1.3.1 1.3-.6 2.4 0 1.4.2 1.8-.6 3 0 1.3.1 1.3-.6 2.4 0 1.3.1 1.3-.6 2.4.1 1 .3 1.3-.2 2.2-.7 1.3-.8 2.6-1.1 4-.3 1-.1.2-.3 1.5-.2 1.2 0 .7-.8 1.8 0 1.3.1 1.3-.6 2.4 0 1.3.1 1.3-.6 2.4v1.2l-.6.6c0 1.4.1 1.2-.6 2.4-.3.5-.3 1.4-.4 2-.3 1.5 0 0-.8 1.6l-.4 2.4c-.3 1.5 0 .2-.8 1.8l-.3 1.2-.9 2.4-.3.7-.3 1-.3.7-.3 1-1.2 3.2-6 14.7c-.4.8-.6 1.7-.9 2.5-.7 1.9-1.6 3.2-2.1 5.2l-.6.6-.9 1.8-1.2 2.5-1.2 2.4-1.5 3-.8 1.9.8.5c-5.5 11.5-12.1 22.1-19 32.8-14.1 21.8-30.2 42.4-49.4 59.9-17.7 17-35.9 32-57.7 43.5-2.4 1.2-6.1 3.7-8.8 4.2h-.4l13.2 17.5c2.7 3.7 5.1 8 8.3 11.4l.4.6c-.6.6-1.1 1-1.5 1.7.9 1.5 1.5 2.4 3 3.4 1.4.1 1.6.4 2.7-.5.9-.7 1.5-1.2 2.5-1.6 1-.4 1.9-1 2.8-1.5 1.1-.6 2.4-.5 3.6-.6 2-.4 5.1-2.6 7-3.6 14.1-7.7 27.7-16.7 40.6-26.3 17.6-13 33.3-28.7 47.6-45.3 36.4-42.1 66.3-94 81.5-147.7 5.7-20.1 8-40.7 11.1-61.3 1.3-23.7 1-46.4-1.5-70.1l.9-1.7c-.8-1.7-.4-3.5-.8-5.2-.3-1.1-.2-.6-.3-1.7-.1-1.3-.2-2.6-.5-3.9-.2-.8-.1-1.1.2-1.9l1.3 1.6-.1 2.1c.2 1 .6 2.6.9 3.6.8 2.7.8 5.6 1.4 8.4l.7-1.6 3.9 29c.2 21.3.7 42.5-1.4 63.7-8.9 91-48.6 182.9-113 248.2-21.5 21.8-45.9 41.3-72 57.4-5.7 3.5-14.2 9.7-21.2 9.5-3.3-.1-5.3-2.3-7.4-4.6l-14.6-18.5c-5.9 2.8-12.4 5.2-18 8.5-20 9.2-40.2 15.8-61.4 21.5-1.4-18.2-.4-37.6 2.7-55.6.8-4.8 1.3-9.3 2.6-14.1.3 3.6.3 9 3.2 11.6 1 .8.6.6 1.7 1 1.8-3.3 2-5.5 1.7-9.2l-.1-1 .6-.6c0-1.3.1-2.3.4-3.5.3-1.3.5-2.5.6-3.9.9-3 .7-7.4 1-10.6l1.4-20c6.4-1.5 12.9-4 19.1-6.3 22-8.2 42.3-19.9 60.7-34.3 34.7-27.1 60.1-60.8 79.5-100.2 9.6-19.6 17.7-40.3 22.9-61.5 4.6-19 6.4-37.6 8.8-56.9 1.1-40.4-8.9-82.3-25.1-119.6z"/><path class="st4" d="M788.9 599.4c-2 3.6-5.2 6.8-7.9 10-16.3 19.6-36.2 38.6-57.4 53 2.6-3.7 6.6-7 9.7-10.2 5.6-5.8 11-11.8 16-18.2 20.4-26.2 39.5-56.9 51.1-88 4.2-11.1 6.9-22.7 10.5-34 1 5.4-.8 11.2-1.6 16.7l-2.4 18c-1.4 7.7-3.8 15.4-6.3 22.9l-5.3 13.9c-2 4.3-6.5 11-6.4 15.9z"/><path class="st11" d="m617.3 725.9.8.3c7.7 2.5 46.4-14 54-18.1l.6-.4 3.2 24.1c.6 4.2 1.1 9.1 3.2 12.8 1.8 3.2 4.9 5.8 7.5 8.3-5.9 2.8-12.4 5.2-18 8.5-20 9.2-40.2 15.8-61.4 21.5-1.4-18.2-.4-37.6 2.7-55.6.8-4.8 1.3-9.3 2.6-14.1.3 3.6.3 9 3.2 11.6.9.9.6.7 1.6 1.1z"/><path class="st6" d="M910.1 438.5c1.5 13.3-1.6 29-3.7 42.2-7.4 46.7-23.9 93.2-47.6 134.2-11.3 19.5-24.8 38.1-38.8 55.8-26 32.6-57.8 59.5-92.5 82.3-4.6 3-11.8 8.9-17 10.1l-.8.1c-7-7.2-13.2-15.8-19.3-23.9-1.2-1.6-3.8-4.3-4.5-6-.7-1.7-.6-5.1-.8-7-.7-7.8-1-15.8-.9-23.6 0-2.4 0-5 .5-7.4.3-1.6 1.3-2 2.5-3.1l13.2 17.5c2.7 3.7 5.1 8 8.3 11.4l.4.6c-.6.6-1.1 1-1.5 1.7.9 1.5 1.5 2.4 3 3.4 1.4.1 1.6.4 2.7-.5.9-.7 1.5-1.2 2.5-1.6 1-.4 1.9-1 2.8-1.5 1.1-.6 2.4-.5 3.6-.6 2-.4 5.1-2.6 7-3.6 14.1-7.7 27.7-16.7 40.6-26.3 17.6-13 33.3-28.7 47.6-45.3 36.4-42.1 66.3-94 81.5-147.7 5.7-20 8.1-40.6 11.2-61.2z"/><path class="st12" d="m687.1 692.2 13.2 17.5c2.7 3.7 5.1 8 8.3 11.4l.4.6c-.6.6-1.1 1-1.5 1.7.9 1.5 1.5 2.4 3 3.4 1.4.1 1.6.4 2.7-.5.9-.7 1.5-1.2 2.5-1.6 1-.4 1.9-1 2.8-1.5 1.1-.6 2.4-.5 3.6-.6l-11.8 6.3-25.8-33.6c.5-1.7 1.4-2.1 2.6-3.1z"/><path class="st5" d="M794.9 304.1c2.4.7 5 4.8 6.8 6.6 12.3 13.1 23.8 25.5 32.4 41.5 7.3 13.5 13.4 28.1 17.4 43l1.3 19.7c0 35.9-6.4 71-19.3 104.5-4.1 10.6-9.1 20.8-14.1 31.1-5.9 11.4-12.1 22.4-19.1 33.1-3.5 5.4-7.1 11-11.3 15.7-.1-4.9 4.4-11.5 6.3-16l5.3-13.9c2.5-7.4 4.9-15.1 6.3-22.9l2.4-18c.8-5.4 2.6-11.2 1.6-16.7l3.8-22.2c2.2-10.6 3-22 3.8-32.8 4-52.4-2.9-104.2-23.6-152.7z"/><path class="st6" d="M813.7 418c.1 2.2 0 4.8 1.1 6.9 1.5 3 .8 9.4.8 12.7.1 16.4-1 32.4-3.8 48.7l-8.4 37.7-.4 1c-4.3 11-7.4 22.1-12.3 32.9-8.2 17.8-18.7 34.8-30 50.8-11.4 16-23.6 31.6-37.9 45.2-19.4 18.4-42.5 32.9-66.8 43.8-11.2 5-22.7 10.5-34.6 13.6-.5-1.1-.6-2.2-.8-3.4.9-3 .7-7.4 1-10.6l1.4-20c6.4-1.5 12.9-4 19.1-6.3 22-8.2 42.3-19.9 60.7-34.3 34.7-27.1 60.1-60.8 79.5-100.2 9.6-19.6 17.7-40.3 22.9-61.5 4.3-19.1 6.1-37.7 8.5-57z"/><path class="st2" d="M663.7 174.1c3.8-3 7.2-7.1 11.3-9.6 2.4-1.5 3.6-.9 6.2-.3 9.2 4.7 17.2 10.7 25.1 17.3 9.5 7.9 18.7 16.3 27 25.5l19.7 23.5-3.3-26.6 2.4 1.3c.3 2.3 1.4 15.6 2.2 16.8 1.8 2.6 6.9 5.7 9.5 7.8 6.3 5.2 12.7 10.6 18.5 16.3l-2.4 1-1.4-.9c-1.8.8-7.9 7-8.4 8.9-.2.8 1.7 4 2.1 4.9l8.6 15.3-2.2 1.9 10.3 20.7c16.2 37.3 26.3 79.2 24.9 120.1-2.4 19.3-4.2 37.9-8.8 56.9-5.1 21.2-13.2 42-22.9 61.5-19.3 39.4-44.7 73.1-79.5 100.2-18.5 14.4-38.8 26.1-60.7 34.3-6.1 2.3-12.7 4.8-19.1 6.3l1.4-9.3c20-5.4 40-13.5 57.7-24.4 5.1-3.1 10.4-6.3 14.6-10.7l3.4-11.6c4.2-17.3 7.5-38.7 3.1-56.3l17.9-24.9-1.4.5-1.3-.8 6.8-13c-1.8-4.1-2.3-9.3-2.9-13.6-2.1-17 .1-34-1.8-50.9-.2-3.8.5-8 .6-11.9.2-13.7.3-27.9-1.8-41.5.3-1.3-.4-4.1-.6-5.5l-2.5-17.4c-.9-.2-1.3 0-2.2.3-3.9-19.2-9.1-37.4-17-55.4-15.4-34.8-39.6-64.2-68.9-88.3l.8-1.7c4.8 3.3 9.1 6.5 13.4 10.4-1-6.3-1-12.9-1.5-19.2-.9-10.9-2.5-22.5-1.9-33.4.1-1.7.7-2 1.8-3.2 7.3-7.5 15.4-14.3 23.2-21.3z"/><path class="st0" d="m738.6 493.6.8.3c1.4-.5 2-2.2 2.8-3.5 0 2.6-.3 4.7-1.2 7.1l-1.1 3.6.3.3c.8-1.4 1.1-2.4 1.5-3.9l1.2-3.1.6.9c-3.2 10.3-8.2 20-13.4 29.3-2.9 5.2-5.7 10.6-9.1 15.4l-1.4.5-1.3-.8 6.8-13 13.5-33.1z"/><linearGradient id="SVGID_1_" gradientUnits="userSpaceOnUse" x1="652.27" y1="646.226" x2="743.144" y2="710.39" gradientTransform="matrix(1 0 0 -1 0 1024)"><stop offset="0" style="stop-color:#063560"/><stop offset="1" style="stop-color:#075375"/></linearGradient><path d="m703.2 282.9-.1-.6c-1.2-2.5-5-5.7-7.1-7.8-15.3-15.9-32-28.8-51.3-39.3l-3.2-35.1 1.8-1.5c12.6 8.8 25.3 17.7 36.6 28.2 39.4 36.7 65 88.6 74.3 141.3 7.6 43.2 4.1 85.8-10.4 127.1l-.2.2-.6-.9-1.2 3.1c-.4 1.5-.7 2.5-1.5 3.9l-.3-.3 1.1-3.6c.9-2.5 1.2-4.5 1.2-7.1-.8 1.2-1.4 3-2.8 3.5l-.8-.3c5.9-20.7 9.1-40.3 10.1-61.9 0-5.8.1-11.7-.6-17.5.7-3.8 0-7.9-.4-11.7.2-1.1.3-1.6.9-2.5l1.1-.1c.4-3.3-.5-7.4-.8-10.8-1.7-16.2-5.2-32-10.4-47.4-4.5-12.7-11.2-24.9-18.2-36.3-5.1-7.9-10.5-16.2-17.2-22.6z" style="fill:url(#SVGID_1_)"/><path class="st0" d="M747.6 402.5c.2-1.1.3-1.6.9-2.5l1.1-.1 1.3 27.8-.7 2.9-.4-.4c.1-1.3.5-2-.4-3-.2 1.6-.2 3-.8 4.6 0-5.8.1-11.7-.6-17.5.7-3.9 0-8-.4-11.8z"/><path d="M748.6 431.7c.6-1.5.6-2.9.8-4.6.8 1 .4 1.7.4 3l.4.4.7-2.9c-.3 15.1-1.7 30.2-4.6 45l-4.1 17.7c-.8 1.2-1.4 3-2.8 3.5l-.8-.3c5.9-20.6 9.1-40.2 10-61.8z" style="fill:#222630"/><path class="st10" d="M681.2 164.2c9.2 4.7 17.2 10.7 25.1 17.3 9.5 7.9 18.7 16.3 27 25.5l19.7 23.5-3.3-26.6 2.4 1.3c.3 2.3 1.4 15.6 2.2 16.8 1.8 2.6 6.9 5.7 9.5 7.8 6.3 5.2 12.7 10.6 18.5 16.3l-2.4 1-1.4-.9c-1.8.8-7.9 7-8.4 8.9-.2.8 1.7 4 2.1 4.9l8.6 15.3-2.2 1.9 10.3 20.7c16.2 37.3 26.3 79.2 24.9 120.1-2.4 19.3-4.2 37.9-8.8 56.9-5.1 21.2-13.2 42-22.9 61.5-19.3 39.4-44.7 73.1-79.5 100.2-18.5 14.4-38.8 26.1-60.7 34.3-6.1 2.3-12.7 4.8-19.1 6.3l1.4-9.3c20-5.4 40-13.5 57.7-24.4 5.1-3.1 10.4-6.3 14.6-10.7 4.1-1.8 7.9-5 11.4-7.8 20.8-16.2 36-37.4 49.7-59.7 12.8-20.8 22.5-42.8 30.3-65.9 8.4-25 14.1-51.4 14.4-77.8.3-21-3-42.9-7.9-63.3-14.6-60-43.4-119.5-90-161.2-7.3-6.5-15.1-13.2-23.5-18.3-3.3 2.6-6.3 4.5-10.3 6-3.4 1.3-10.4 3.6-13.8 2.1l23.1-21 1.3-1.7z"/><linearGradient id="SVGID_00000047033598623982238330000004001226751457708941_" gradientUnits="userSpaceOnUse" x1="707.932" y1="793.707" x2="764.308" y2="818.302" gradientTransform="matrix(1 0 0 -1 0 1024)"><stop offset="0" style="stop-color:#000010"/><stop offset="1" style="stop-color:#111c33"/></linearGradient><path style="fill:url(#SVGID_00000047033598623982238330000004001226751457708941_)" d="M681.2 164.2c9.2 4.7 17.2 10.7 25.1 17.3 9.5 7.9 18.7 16.3 27 25.5l19.7 23.5-3.3-26.6 2.4 1.3c.3 2.3 1.4 15.6 2.2 16.8 1.8 2.6 6.9 5.7 9.5 7.8 6.3 5.2 12.7 10.6 18.5 16.3l-2.4 1-1.4-.9c-1.8.8-7.9 7-8.4 8.9-.2.8 1.7 4 2.1 4.9l8.6 15.3-2.2 1.9-11.7-21.1c-1.1-.7-11.2-16.7-13.1-19.3-10.9-15-22.9-29.2-36.1-42.2-11.3-11.1-23.5-21.5-37.6-28.6l1.1-1.8z"/><path class="st4" d="M663.7 174.1c3.8-3 7.2-7.1 11.3-9.6 2.4-1.5 3.6-.9 6.2-.3L680 166l-23.1 21-13.7 11.5-1.8 1.5 3.2 35.1c19.3 10.5 36.1 23.4 51.3 39.3 2.1 2.1 5.8 5.3 7.1 7.8l.1.6c6.7 6.4 12.1 14.7 17 22.6 7.1 11.4 13.8 23.7 18.2 36.3 5.2 15.4 8.7 31.2 10.4 47.4.3 3.4 1.2 7.5.8 10.8l-1.1.1c-.6 1-.7 1.4-.9 2.5.4 3.8 1.1 7.9.4 11.7.8 5.8.6 11.7.6 17.5-.9 21.5-4.2 41.1-10.1 61.9L725 526.8c-1.8-4.1-2.3-9.3-2.9-13.6-2.1-17 .1-34-1.8-50.9-.2-3.8.5-8 .6-11.9.2-13.7.3-27.9-1.8-41.5.3-1.3-.4-4.1-.6-5.5L716 386c-.9-.2-1.3 0-2.2.3-3.9-19.2-9.1-37.4-17-55.4-15.4-34.8-39.6-64.2-68.9-88.3l.8-1.7c4.8 3.3 9.1 6.5 13.4 10.4-1-6.3-1-12.9-1.5-19.2-.9-10.9-2.5-22.5-1.9-33.4.1-1.7.7-2 1.8-3.2 7.3-7.6 15.4-14.4 23.2-21.4z"/><path class="st0" d="M663.7 174.1c3.8-3 7.2-7.1 11.3-9.6 2.4-1.5 3.6-.9 6.2-.3L680 166l-23.1 21-13.7 11.5-1.8 1.5 3.2 35.1c19.3 10.5 36.1 23.4 51.3 39.3 2.1 2.1 5.8 5.3 7.1 7.8l.1.6c6.7 6.4 12.1 14.7 17 22.6 7.1 11.4 13.8 23.7 18.2 36.3 5.2 15.4 8.7 31.2 10.4 47.4.3 3.4 1.2 7.5.8 10.8l-1.1.1c-.6 1-.7 1.4-.9 2.5-2.5-21.3-5.3-41.1-12.1-61.6-8.7-20.2-18.9-37.5-32.6-54.6-9.5-10.4-19.1-20.2-30.1-29-8.6-6.8-17.7-12.5-26.8-18.5l1.7 13c.2 1.5.2 4.1.8 5.4.5 1.1 3.3 3.2 4.2 4.2 4.7 4.6 9.2 9 13.4 14.1 6 7.2 11.4 14.8 16.2 22.7 2.5 4.1 4.7 9.2 7.7 12.9 7.2 14 13.9 28.8 18.5 43.9 3.1 10.2 5.1 20.5 7.5 30.9-.9-.2-1.3 0-2.2.3-3.9-19.2-9.1-37.4-17-55.4-15.4-34.8-39.6-64.2-68.9-88.3l.8-1.7c4.8 3.3 9.1 6.5 13.4 10.4-1-6.3-1-12.9-1.5-19.2-.9-10.9-2.5-22.5-1.9-33.4.1-1.7.7-2 1.8-3.2 7.4-7.5 15.5-14.3 23.3-21.3z"/><path class="st5" d="M689.9 311.2c.7 0 1.5-.2 2.2 0 .8.3 2.5 1.9 3.2 2.5 3.7 3 7.1 6.6 10.4 10l3.7 4.2c16.4 19.8 26 40.6 33 65.2 2 7 3.1 14.3 5.5 21.1.8 5.8.6 11.7.6 17.5-.9 21.5-4.2 41.1-10.1 61.9L725 526.8c-1.8-4.1-2.3-9.3-2.9-13.6-2.1-17 .1-34-1.8-50.9-.2-3.8.5-8 .6-11.9.2-13.7.3-27.9-1.8-41.5.3-1.3-.4-4.1-.6-5.5L716 386c-2.5-10.4-4.4-20.6-7.5-30.9-4.7-15.2-11.4-29.9-18.6-43.9z"/><path class="st9" d="M512.4 135c2.5-.7 5.2-.5 7.8-.5 39.6 1.5 78.6 11.1 115.2 26 9.7 4 19.4 7.9 28.4 13.5-7.8 7-16 13.8-23.3 21.4-1.2 1.2-1.7 1.5-1.8 3.2-.6 10.9 1.1 22.5 1.9 33.4.5 6.4.6 12.9 1.5 19.2-4.3-3.9-8.6-7.2-13.4-10.4l-.8 1.7c29.3 24.1 53.5 53.5 68.9 88.3 7.9 17.9 13.1 36.2 17 55.4.9-.3 1.3-.4 2.2-.3l2.5 17.4c.2 1.4.9 4.2.6 5.5 2.1 13.6 2.1 27.8 1.8 41.5-.1 3.9-.7 8-.6 11.9 1.9 16.9-.3 34 1.8 50.9.6 4.4 1.1 9.6 2.9 13.6l-6.8 13 1.3.8 1.4-.5-17.9 24.9c4.4 17.6 1.1 38.9-3.1 56.3l-3.4 11.6c-4.1 4.4-9.5 7.6-14.6 10.7-17.7 10.9-37.6 19-57.7 24.4l-1.4 9.3-1.4 20c-.2 3.2 0 7.6-1 10.6-.2 1.3-.3 2.6-.6 3.9-.3 1.2-.4 2.2-.4 3.5l-.6.6.1 1c.3 3.7.1 5.9-1.7 9.2-1-.4-.7-.2-1.7-1-2.9-2.5-2.9-8-3.2-11.6-1.3 4.8-1.8 9.3-2.6 14.1-3 18-4.1 37.4-2.7 55.6-22.2 5.2-46.1 10.1-68.9 10.6-16.7 1.7-34.5.8-51.3-.1-2.3-2.9-5.9-5.5-8.7-7.9L447.9 761 295.6 638l-22.8-18.1c-5.9-4.6-14.3-10.1-18.4-16.3-2.5-3.8-3.2-9.1-3.7-13.5l-2.3-35.3-3.5-60-2.9-42c-.6-8.8-2-18.4-.2-27.1-.9-3.1-.7-7.9-1.1-11.2l-2.8-30.5-4.2-42.5c-.2-4.4-.3-9 .5-13.4 1.6-8.7 5.1-17.2 10.7-24.2 8.9-11 23.6-18.5 35.5-26l38.3-24.6 3.4-1.8.6-37c.1-5.3-.9-13.8.8-18.6 9.9-3.1 18.3-11.3 28-15l.1-.4c11.6-4.5 22.7-10.6 34.2-15.4 40.1-16.7 82.8-29 126.6-30.1z"/><path class="st16" d="M531 164.7c.3-1.4.4-2.4 1.2-3.7l39.6 49.7-1.1-.2-24.5-26.8c-5.4-6-11.1-12-15.2-19z"/><path class="st8" d="M351.6 180.7c11.6-4.5 22.7-10.6 34.2-15.4 40.1-16.9 82.8-29.2 126.6-30.2-15.5 4.9-28.2 15.2-42 23.5L375 217.7c-12 7.5-23.6 16.2-35.9 23.1l14.1-51.4c.7-3.4 0-5.4-1.7-8.3l.1-.4zM520.1 134.6c39.6 1.5 78.6 11.1 115.2 26 9.7 4 19.4 7.9 28.4 13.5-7.8 7-16 13.8-23.3 21.4-1.2 1.2-1.7 1.5-1.8 3.2-.6 10.9 1.1 22.5 1.9 33.4.5 6.4.6 12.9 1.5 19.2-4.3-3.9-8.6-7.2-13.4-10.4-5.2-4-10.6-8.7-16.9-11-1.5-.6-2.6-1.1-3.8-2.3-5.6-6-10.2-13.3-15.4-19.8L556.3 163c-6.1-7.5-12.1-16.8-20-22.5-5-3.6-10.3-4.9-16.2-5.9z"/><path class="st4" d="M260.8 427.9c3.6 1.1 6.8 4.6 9.6 7l21.9 19.2 104.1 89.6 38.4 30.9c5.5 4.4 10.9 10 16.8 13.8l4 3.5c6 6 12.7 11.5 19.2 17l33.7 27.2c2.9 2.2 6.7 6.2 10.1 7.1l1.4 26c.3 4.6.3 9.3 1 13.9l3.3 51.7-1 .3L441 664l-94.5-80.3-49.4-42-16.4-14c-2.7-2.4-6.1-5-7.9-8.2-2.1-3.8-2.2-8.9-2.7-13.1l-2.6-23.1-6.7-55.4z"/><path class="st3" d="M531 164.7c4.2 7 9.9 12.9 15.2 19l24.5 26.8 1.1.2c2.7 2.2 4.8 5.4 7 8.1 5.5 7 11.1 15.5 18.2 20.9l-22.6 22.5 3.6 25c.5 3.2.5 7.6 1.8 10.5l3.4 1.8c18.4 13.4 34.8 33.5 45.1 53.8l-7.7 13.8-.4.6-18 31.7c-2.2 4.1-17.7 35-19.7 36.1l-66 116.6c-1-4.6-.5-9.5-.8-14.2-.6-11.7-1.7-23.5-.6-35.2l2-104.4c.6-3.3.5-7 .8-10.4l1.3-23.7 5.1-90c1.4-6.2 1.6-13.7 2.2-20.1l3.1-61.7c.8-8.8-.4-18.8 1.4-27.7z"/><path class="st4" d="M583.1 299.7c18.4 13.4 34.8 33.5 45.1 53.8l-7.7 13.8-.4.6-23.2-24.1c-2.3-2.3-7.1-6-8.7-8.6-1.3-2.3-1.6-7.1-1.9-9.7l-3.2-25.8z"/><path class="st12" d="M524.1 274.6c1.4-6.2 1.6-13.7 2.2-20.1l-9 265.6c.5 2.4 2.8 4 4.5 5.6 3.7-2.3 7.5-8.7 10.1-12.2L559 473l17.7-30.1c1.3-2 3.3-6.2 5.6-7l-66 116.6c-1-4.6-.5-9.5-.8-14.2-.6-11.7-1.7-23.5-.6-35.2l2-104.4c.6-3.3.5-7 .8-10.4l1.3-23.7 5.1-90z"/><path class="st11" d="m241.7 425.7 7.1 58.6c1.2 10.9 1.8 22.7 4.1 33.4.8 3.8 2.4 7.7 4.3 11.1 5.3 9.4 16.3 16.6 24.5 23.4l23.3 19.9 123.8 104.6 59.9 51.4 33.5 28.3c2.1 1.6 4.3 3.4 6.8 4.5 3.9-1.5 7-2.6 9.8-5.9 2.7-3.2 4.9-7.2 7.2-10.7l14.4-22.9 26.1-42c9.9-15.6 20.7-31.6 28.9-48.3 3.3-3.8 8.5-7.3 13.4-8.7 1.4-.7 1.4-1 3-.7l.4 2.3-8 43.9-1.4 9.3-1.4 20c-.2 3.2 0 7.6-1 10.6-.2 1.3-.3 2.6-.6 3.9-.3 1.2-.4 2.2-.4 3.5l-.6.6.1 1c.3 3.7.1 5.9-1.7 9.2-1-.4-.7-.2-1.7-1-2.9-2.5-2.9-8-3.2-11.6-1.3 4.8-1.8 9.3-2.6 14.1-3 18-4.1 37.4-2.7 55.6-22.2 5.2-46.1 10.1-68.9 10.6-16.7 1.7-34.5.8-51.3-.1-2.3-2.9-5.9-5.5-8.7-7.9L447.9 761 295.6 638l-22.8-18.1c-5.9-4.6-14.3-10.1-18.4-16.3-2.5-3.8-3.2-9.1-3.7-13.5l-2.3-35.3-3.5-60-2.9-42c-.7-8.8-2-18.4-.3-27.1z"/><path class="st8" d="M628.8 622.4c1.4-.7 1.4-1 3-.7l.4 2.3-8 43.9-1.4 9.3-1.4 20c-.2 3.2 0 7.6-1 10.6-.2 1.3-.3 2.6-.6 3.9-.3 1.2-.4 2.2-.4 3.5l-.6.6.1 1c.3 3.7.1 5.9-1.7 9.2-1-.4-.7-.2-1.7-1-2.9-2.5-2.9-8-3.2-11.6-1.3 4.8-1.8 9.3-2.6 14.1-3 18-4.1 37.4-2.7 55.6-22.2 5.2-46.1 10.1-68.9 10.6l67.5-113.9 8.3-13.8c2-3.6 3.6-8.1 6.3-11.2l.8.4 7.8-32.8z"/><path class="st0" d="M628.8 622.4c1.4-.7 1.4-1 3-.7l.4 2.3-8 43.9-1.4 9.3-1.4 20c-.2 3.2 0 7.6-1 10.6-.2 1.3-.3 2.6-.6 3.9-.3 1.2-.4 2.2-.4 3.5l-.6.6.1 1c.3 3.7.1 5.9-1.7 9.2-1-.4-.7-.2-1.7-1-2.9-2.5-2.9-8-3.2-11.6l8.8-58.1 7.7-32.9z"/><path class="st9" d="m581.1 261.3 29.6-29.5c6.2 3.1 11.7 6.6 17.3 10.7 29.3 24.1 53.5 53.5 68.9 88.3 7.9 17.9 13.1 36.2 17 55.4.9-.3 1.3-.4 2.2-.3l2.5 17.4c.2 1.4.9 4.2.6 5.5 2.1 13.6 2.1 27.8 1.8 41.5-.1 3.9-.7 8-.6 11.9 1.9 16.9-.3 34 1.8 50.9.6 4.4 1.1 9.6 2.9 13.6l-6.8 13 1.3.8 1.4-.5-18 24.9c4.4 17.6 1.1 38.9-3.1 56.3l-3.4 11.6c-4.1 4.4-9.5 7.6-14.6 10.7-17.7 10.9-37.6 19-57.7 24.4l8-43.9-.4-2.3c-1.6-.3-1.6 0-3 .7-4.9 1.5-10.1 4.9-13.4 8.7-1.6.4-3 .9-4.5 1.7l-5.4 2.4-2.4.9c-2 .8-3.5 1.7-5.7 2.1l-.9-.3-.8-.3c-1.4-.5-2.5-1.2-3.9-1.6-3.4 7.9-9.6 15.7-14.4 23L556 692l-19.2 30.4c-2.6 4-5.6 10-9.3 12.9l-.9.1-.5 1.9-.9-.1c-.4-.8-.7-1.6-.9-2.5L521 683c-.7-4.5-.7-9.3-1-13.9l-1.4-26-.9-23.8-.9-30c-1.4-1.7-1.2-32-1.1-36.5l.7-.6 66-116.6c2-1.1 17.5-32 19.7-36.1l18-31.7.4-.6 7.7-13.8c.4.9.9 1.7 1.4 2.6 1.1 1.7 1.8 3.5 2.6 5.2l.6-3.2c-8.2-18.7-20.9-35.7-35.7-49.7-4.6-4.4-9-8.7-14.7-11.6l-.6-.3-3.7-27.3c-.2-2.3-.7-4.2.8-6l2.2-1.8z"/><path d="M642.8 386.2c1.7 4 2.7 8.5 3.9 12.7 7.9 29.5 13.1 60.3-2.8 88.1l-5.5 9.2 4.4-110z" style="fill:#7c6f65"/><path class="st4" d="M718.2 539.7c-4 5.1-7.4 10.6-11.6 15.6-15.1 17.7-34.3 32.1-53.2 45.6 3-4.1 7.9-7.6 11.6-11.1 4.7-4.5 9-9.3 13.2-14.4 19.1-23.4 31.4-53.6 37.5-83 2.1-10 3.1-20.1 4.6-30.1 1.9 16.9-.3 34 1.8 50.9.6 4.4 1.1 9.6 2.9 13.6l-6.8 12.9z"/><path class="st6" d="M632.8 358.1c-8.2-18.7-20.9-35.7-35.7-49.7-4.6-4.4-9-8.7-14.7-11.6l-.6-.3-3.7-27.3c-.2-2.3-.7-4.2.8-6l.4.6c2.1 2.3 5.8 4.1 8.4 6.1l16.1 13.8c23 21.6 40.4 48.1 50.5 78.1 2.2 6.6 4.7 14.1 5.4 21.1-.3.7-.7 1.3-.9 2-.2.8.5 3.3.6 4.3l1.3 10.7c1.5 16.4 1.9 35.2-2.9 51.1-1.3-16-3.5-31.8-7.9-47.3-2.1-7.2-4.9-14.1-7.4-21.2-2.8-8.6-5.7-16.4-9.7-24.4z"/><path class="st3" d="m649.9 484.5 14.7 48.1c-2.6 4.6-7.4 8.9-11.2 12.7-19.1 19-40.1 32.5-64.7 43.3l-3.5-27.7c-.2-1.4-2.2-9.5-1.9-10.3.2-.5 6.6-4 7.4-4.5 6.5-4.1 12.9-8.5 18.9-13.3 16.8-13.5 29.8-29.6 40.3-48.3zM703 564.9c4.4 17.6 1.1 38.9-3.1 56.3l-3.4 11.6c-4.1 4.4-9.5 7.6-14.6 10.7-17.7 10.9-37.6 19-57.7 24.4l8-43.9c.2-.9.6-2.5 1.3-3.2 1-.9 3.6-1.9 4.8-2.6l10.2-6.1c20.7-13.3 38.4-28.7 54.5-47.2z"/><path class="st6" d="m714.3 414.8 1.5-2.2c.4.8.7 1 .6 1.9-.1 1.3.5 2.7.9 4-.7 48.2-5.6 96-33.5 136.9-6.5 9.6-14.5 18.1-22.8 26.1-10.5 10.2-22.1 20.1-34.3 28.3-10.7 7.2-22.1 13.3-33.4 19.7l-3.6-32.1c19-8.3 36.4-19 52.1-32.5 44.5-38.3 68.2-92.2 72.5-150.1z"/><path class="st2" d="m581.1 261.3 29.6-29.5c6.2 3.1 11.7 6.6 17.3 10.7 29.3 24.1 53.5 53.5 68.9 88.3 7.9 17.9 13.1 36.2 17 55.4 1.2 9.6 1.2 19 .5 28.6-4.3 57.9-27.9 111.7-72.3 150-15.7 13.5-33.2 24.3-52.1 32.5l-1-8.7c24.5-10.9 45.5-24.3 64.7-43.3 3.8-3.8 8.5-8.1 11.2-12.7l-14.7-48.1c2.3-6.5 5.4-12.5 7.4-19.1 7.5-25.7 7.9-56.6 2.4-82.7-.8-7-3.2-14.4-5.4-21.1-10.1-29.9-27.5-56.5-50.5-78.1L588 269.7c-2.5-2-6.3-3.8-8.4-6.1l-.4-.6 1.9-1.7z"/><path class="st10" d="m581.1 261.3 29.6-29.5c6.2 3.1 11.7 6.6 17.3 10.7 29.3 24.1 53.5 53.5 68.9 88.3 7.9 17.9 13.1 36.2 17 55.4 1.2 9.6 1.2 19 .5 28.6-4.3 57.9-27.9 111.7-72.3 150-15.7 13.5-33.2 24.3-52.1 32.5l-1-8.7c24.5-10.9 45.5-24.3 64.7-43.3 3.8-3.8 8.5-8.1 11.2-12.7l3.4-4.2c6.8-9.1 12.5-20.1 17.3-30.4 6.6-14 12.4-28.8 15.7-44 4.1-18.8 3.7-39.6 1.3-58.7-5-39.2-20.1-76.7-43-108.8-6.4-9.1-13.1-17.8-21.1-25.6-7.2-7-15.7-12.5-23.6-18.6-2.3 2.2-4 5.2-6.1 7.7-2.9 3.3-6.9 8.1-11.1 9.5-4.4 1.5-9.5 1.3-14.1 2.2-1.5.3-1.5.1-2.5-.4z"/><path class="st6" d="M628.1 353.5c.4.9.9 1.7 1.4 2.6 1.1 1.7 1.8 3.5 2.6 5.2 1.3 2.7 2.7 5.7 3.1 8.7 1.1 9.1.2 19.4.1 28.7L630 504.4c-7.5 10.6-16.4 20.5-26.6 28.6-3.8 3-20.2 13.9-21.4 17.2-.6 1.8.8 7.2 1 9.3l.8 9.9 1.7 31.1c.3 8.8 0 18 1.5 26.6.6 3.7 2.1 6.3 4.7 9-3.4 7.9-9.6 15.7-14.4 23L556 692l-19.2 30.4c-2.6 4-5.6 10-9.3 12.9l-.9.1-.5 1.9-.9-.1c-.4-.8-.7-1.6-.9-2.5L521 683c-.7-4.5-.7-9.3-1-13.9l-1.4-26-.9-23.8-.9-30c-1.4-1.7-1.2-32-1.1-36.5l.7-.6 66-116.6c2-1.1 17.5-32 19.7-36.1l18-31.7.4-.6 7.6-13.7z"/><path class="st0" d="m516.8 589.5.7-.1c.9 2.9.9 6.2 1.1 9.3l1.1 14.7c1.4 19.9 3.5 40.2 3.7 60.1l3.3 61.9-.5 1.9-.9-.1c-.4-.8-.7-1.6-.9-2.5l-3.3-51.7c-.7-4.5-.7-9.3-1-13.9l-1.4-26-.9-23.8-1-29.8z"/><linearGradient id="SVGID_00000018921789465435969750000008454605495503797691_" gradientUnits="userSpaceOnUse" x1="308.707" y1="771.168" x2="444.892" y2="677.655" gradientTransform="matrix(1 0 0 -1 0 1024)"><stop offset="0" style="stop-color:#91e8f4"/><stop offset="1" style="stop-color:#d2f1f3"/></linearGradient><path style="fill:url(#SVGID_00000018921789465435969750000008454605495503797691_)" d="m473.1 178.9.3-.5c1.6-1.4 4.1-2.6 6-3.7l14.7-8.7c5.8-3.5 12.1-8.4 18.3-11 3-1.3 6.4-1.5 9.6-1 4.5.7 7.5 3.3 10.1 7-.8 1.2-.9 2.3-1.2 3.7-1.8 8.9-.6 18.9-1.6 28l-3.1 61.7c-.6 6.4-.8 13.9-2.2 20.1l-5.1 90-1.3 23.7c-.2 3.4-.1 7.1-.8 10.4L515 503c-1 11.7.1 23.5.6 35.2.2 4.7-.2 9.6.8 14.2l-.7.6c-.1 4.5-.3 34.8 1.1 36.5l.9 30 .9 23.8c-3.4-1-7.2-5-10.1-7.1L474.8 609c-6.5-5.5-13.2-11-19.2-17l-4-3.5c-5.9-3.8-11.3-9.4-16.8-13.8l-38.4-30.9-104.1-89.6-21.9-19.2c-2.8-2.4-6.1-5.9-9.6-7l-10.7-90c-.1-3.5 1-7.6 2.1-11 1.9-5.8 5.3-11.9 10.1-15.7 5.3-4.3 11.8-7.6 17.5-11.3l47.9-30.2 77.6-48.7 44.1-27.7c7.8-5 15.5-10.1 23.7-14.5z"/><path class="st7" d="M250.1 337.9c-.1-3.5 1-7.6 2.1-11 1.9-5.8 5.3-11.9 10.1-15.7 5.3-4.3 11.8-7.6 17.5-11.3l47.9-30.2 77.6-48.7 44.1-27.7c7.9-4.9 15.6-10 23.8-14.4-.4 2.7-2.3 3.7-4.5 5.3-13.6 9.9-28.7 18.3-42.8 27.4l-23.8 15.7-36.7 22.6-40.7 26.1-45.7 29c-3.7 2.5-9.1 5-12.2 8-1.9 1.8-2.8 4.9-3.9 7.3-1.8 3.8-3.8 7.3-5.3 11.3 4.7 7 11.8 12.6 18.1 18l22.3 19.1 37.1 31.9 33.1 29.7c4.1 3.6 8.4 8.2 13 11.1l21 18.7 44.2 38.4 29.7 25.4c3.8 3 8.1 7.1 12.9 8.1 2.2.4 6.2.4 8-1l.5-.4.6-.5c3.9-3.3 6.1-9.5 7.2-14.4 3.5-15.3 3.7-32.6 4.7-48.3l4.6-69.2c1.6-2.8 1.4-4.6 1.4-7.7l1 8.2-2 104.3c-1 11.7.1 23.5.6 35.2.2 4.7-.2 9.6.8 14.2l-.7.6c-6.2 0-12.2-2-17.7-4.9-14.5-7.7-27.3-19.6-39.8-30.2l-57.9-49.4c-6.2-6.9-14.7-12.6-21.8-18.7-10.5-9-20.5-19.7-32-27.3-1.1-2-4.5-4.3-6.3-5.9l-23.1-19.5c-2-2.5-4.9-4.7-7.4-6.9-3.8-3.3-7.6-6.8-11.7-9.8-4.5-5.4-10.3-9.8-15.6-14.4l-32.3-28.1z"/><path class="st3" d="m400.3 468.5 57.9 49.4c12.5 10.6 25.3 22.5 39.8 30.2 5.4 2.9 11.5 4.9 17.7 4.9-.1 4.5-.3 34.8 1.1 36.5l.9 30 .9 23.8c-3.4-1-7.2-5-10.1-7.1L474.8 609c-6.5-5.5-13.2-11-19.2-17l.5-1c-.3-2.8-1.6-5.4-2.5-8-2.7-7.5-6.3-14.8-9.6-22.1l-43.7-92.4z"/><path class="st2" d="M444 560.7c1.3.3 2.6.7 3.7 1.5 5.3 3.9 10.2 9.2 15.3 13.5l40.5 32.8 14.2 11.1.9 23.8c-3.4-1-7.2-5-10.1-7.1l-33.7-27.2c-6.5-5.5-13.2-11-19.2-17l.5-1c-.3-2.8-1.6-5.4-2.5-8-2.7-7.8-6.3-15.1-9.6-22.4z"/><path class="st3" d="m250.1 337.9 32.4 28.2c5.3 4.6 11.1 9 15.6 14.4 4.1 3 7.9 6.5 11.7 9.8 2.4 2.1 5.4 4.3 7.4 6.9l23.1 19.5c1.8 1.6 5.2 3.9 6.3 5.9 11.5 7.6 21.5 18.3 32 27.3 7 6.1 15.6 11.8 21.8 18.7l43.7 92.2c3.3 7.3 6.9 14.6 9.6 22.1 1 2.6 2.2 5.2 2.5 8l-.5 1-4-3.5c-5.9-3.8-11.3-9.4-16.8-13.8l-38.4-30.9-104.1-89.6-21.9-19.2c-2.8-2.4-6.1-5.9-9.6-7l-10.8-90z"/><path class="st12" d="M298.1 380.5c4.1 3 7.9 6.5 11.7 9.8 2.4 2.1 5.4 4.3 7.4 6.9l23.1 19.5c1.8 1.6 5.2 3.9 6.3 5.9 11.5 7.6 21.5 18.3 32 27.3 7 6.1 15.6 11.8 21.8 18.7l43.7 92.2c3.3 7.3 6.9 14.6 9.6 22.1 1 2.6 2.2 5.2 2.5 8l-.5 1-4-3.5c-.2-.8-.2-2.1-.5-2.9-1-2.2-4.9-5.5-6.7-7.5l-21.1-23.3-40.7-50.2-26.7-32.2c-17.7-23.1-33-47.5-47.5-72.7-3.4-5.9-8.2-12.7-10.4-19.1z"/><path class="st3" d="m317.1 397.1 23.1 19.5c1.8 1.6 5.2 3.9 6.3 5.9.2 4 5.6 10.2 7.9 13.7l29.2 43.2 50.5 80.1c.8 1.1 1.3 2.1 1.8 3.4l-2.7-3.2c-1.6-2.2-3.7-4-5.6-6.1l-8.7-10.8L383 495c-18.6-24.6-37.1-49.2-53.2-75.5-4.2-6.9-10.2-14.7-12.7-22.4z"/><path class="st10" d="M381.2 441.3c4.5-6.7 8.1-14.2 11.8-21.4l18.8-37.2 71.8-140.3 32.3-60.1c3.7-6.3 7-12.9 11.1-18.9.1 8-1.3 17.2.1 25.1.2 1.3.6 2.6 1.6 3.6l.7.6-3.1 61.7c-.6 6.4-.8 13.9-2.2 20.1l-5.1 90-1.3 23.7c-.2 3.4-.1 7.1-.8 10.4l-1-8.2c0 3.2.2 4.9-1.4 7.7l-4.6 69.2c-1 15.7-1.2 33-4.7 48.3-1.1 4.9-3.3 11-7.2 14.4l-.6.5-.5.4c-1.8 1.4-5.8 1.4-8 1-4.8-1-9.1-5.1-12.9-8.1l-29.7-25.4-44.2-38.4-20.9-18.7z"/><path class="st16" d="m514.6 398.1 3.9-59.2 2.9-47.2 1.1-18c.2-1.8.1-4 1.3-5.4.5 2 .3 4.2.3 6.3l-5.1 90-1.3 23.7c-.2 3.4-.1 7.1-.8 10.4l-1-8.2c0 3 .3 4.8-1.3 7.6z"/></svg>