<?xml version="1.0" encoding="utf-8"?>
<!-- Generator: Adobe Illustrator 26.1.0, SVG Export Plug-In . SVG Version: 6.00 Build 0)  -->
<svg version="1.1" id="Layer_1" xmlns="http://www.w3.org/2000/svg" xmlns:xlink="http://www.w3.org/1999/xlink" x="0px" y="0px"
	 viewBox="0 0 776 776" style="enable-background:new 0 0 776 776;" xml:space="preserve">
<style type="text/css">
	.st0{fill:#04020A;}
	.st1{fill:#EB8D2D;}
	.st2{fill:#377168;}
	.st3{fill:#CB7225;}
	.st4{fill:#FBBA4F;}
	.st5{fill:#1C0B11;}
</style>
<g>
	<path class="st0" d="M382.8,463c0.7,6.1-0.2,12.3,0.6,18.3c0.1,0.7,0.8,1.1,1.4,0.8c4.6-1.7,35.4,0.1,35.4,0.1V288.1l-34.8,0.1
		c-0.3-0.1-0.7-0.1-1,0.2c-0.7,0.5-7.1,10.2-9.3,13c-0.1,0.2-0.2,0.4-0.2,0.7l0.5,159.8c0,0.2,0,0.4,0.1,0.5l5.3,9.2
		c0.5,0.9,1.9,0.6,2-0.5"/>
	<path class="st1" d="M386.4,364.2c0-1.3,1.8-1.4,2.1-0.2c0,0,0,0.1,0,0.1l4,19.1c1,5.7,1.4,11.5,1.5,17.2c0,0.1,0,0.2,0,0.2
		c0.1,1.2-1.6,1.6-2,0.4c-2.4-6.4-4.4-13.4-5.5-19.8c-0.6-3.7-0.2-7.9-0.1-11.6C386.4,367.9,386.4,366.1,386.4,364.2z"/>
	<path class="st2" d="M381,295.3c0.7-0.7,1.8-0.2,1.8,0.7l0.1,166.9v0.5l-0.1,7.6c0,1.1,1.2,11.2,0.6,10.3l-7.9-19
		c-0.1-0.2-0.1-0.3-0.1-0.5l-0.5-159.8c0-0.2,0.1-0.5,0.2-0.7C376.8,299.2,379,297.4,381,295.3z"/>
	<path class="st3" d="M416.6,434.9c-1.7-0.8-3.4-1.7-5.1-2.6c-1-0.5-2,0.8-1.3,1.6c1.4,1.6,3,3.1,4.5,4.5c-1.1-0.4-2.1-0.9-3-1.5
		c-3.5-2.3-6.4-5.7-8.9-9c-8.3-10.8-14-24.5-16.7-37.9l-0.1-0.6l-0.1,87.8c0,0.8,0.9,1.3,1.6,0.9l30.2-1.4"/>
	<path class="st4" d="M416.6,292.5l-28.6,0.8c0,0-0.1,0-0.1-0.1l-1.1-0.8l-0.5,0.4c-0.1,8.5-0.6,17.9,0.3,26.4c0,0,0,0.1,0,0.1V344
		c0,3.5-0.3,7.6,0.1,11.2c0,0.2,0.1,0.3,0.2,0.5c1.3,2.2,1.2,6.1,1.7,8.5l4,19.1c0.9,5.6,1.3,11.4,1.5,17.2c0.1,1.9,0.5,3.6,0.1,5.6
		c0,0.2,0,0.4,0,0.5c2.9,8.3,8.1,16.9,13.4,23.7c0.1,0.1,2.5,8.9,2.7,9c2.9,1.2,4.6,21.6,7.5,22.8c1.2,0.5-1.3-18.9,0-18.7
		L416.6,292.5z"/>
	<path class="st5" d="M419.9,395.4l0.2-7.7v-58.5c0,0-2.4-0.4-2.4,0.4v51.9c0,13.2-0.1,26.7,1.9,39.8c0.6-2.9,0.2-6.3,0.2-9.3
		L419.9,395.4z"/>
</g>
<g>
	<path class="st0" d="M446.7,464.3c0.7,6.1-0.2,12.3,0.6,18.3c0.1,0.7,0.8,1.1,1.4,0.8c4.6-1.7,35.4,0.1,35.4,0.1V289.4l-34.8,0.1
		c-0.3-0.1-0.7-0.1-1,0.2c-0.7,0.5-7.1,10.2-9.3,13c-0.1,0.2-0.2,0.4-0.2,0.7l0.5,159.8c0,0.2,0,0.4,0.1,0.5l5.3,9.2
		c0.5,0.9,1.9,0.6,2-0.5"/>
	<path class="st2" d="M444.9,296.6c0.7-0.7,1.8-0.2,1.8,0.7l0.1,166.9v0.5l-0.1,7.6c0,1.1,1.2,11.2,0.6,10.3l-7.9-19
		c-0.1-0.2-0.1-0.3-0.1-0.5l-0.5-159.8c0-0.2,0.1-0.5,0.2-0.7C440.7,300.5,442.9,298.7,444.9,296.6z"/>
	<path class="st4" d="M482.2,478.4c1.2,0.5-1.9-34-0.6-33.7l-1.1-150.9l-30.4,0.4c-0.1,8.5,0.1,182.2-0.2,184.2"/>
	<path class="st5" d="M483.8,396.7l0.2-7.7v-58.5c0,0-2.4-0.4-2.4,0.4v51.9c0,13.2-0.1,26.7,1.9,39.8c0.6-2.9,0.2-6.3,0.2-9.3
		L483.8,396.7z"/>
</g>
<path class="st3" d="M450,388l-0.7,2.5l-0.1,87.8c0,0.8,0.9,1.3,1.6,0.9l30.2-1.4"/>
</svg>
